G04 #@! TF.GenerationSoftware,KiCad,Pcbnew,(5.1.5)-3*
G04 #@! TF.CreationDate,2020-09-05T19:48:14+08:00*
G04 #@! TF.ProjectId,VS1053 Dev Brd,56533130-3533-4204-9465-76204272642e,rev?*
G04 #@! TF.SameCoordinates,Original*
G04 #@! TF.FileFunction,Soldermask,Bot*
G04 #@! TF.FilePolarity,Negative*
%FSLAX46Y46*%
G04 Gerber Fmt 4.6, Leading zero omitted, Abs format (unit mm)*
G04 Created by KiCad (PCBNEW (5.1.5)-3) date 2020-09-05 19:48:14*
%MOMM*%
%LPD*%
G04 APERTURE LIST*
%ADD10C,0.100000*%
G04 APERTURE END LIST*
D10*
G36*
X82126521Y-133912374D02*
G01*
X82226795Y-133953909D01*
X82226796Y-133953910D01*
X82317042Y-134014210D01*
X82393790Y-134090958D01*
X82393791Y-134090960D01*
X82454091Y-134181205D01*
X82495626Y-134281479D01*
X82516800Y-134387930D01*
X82516800Y-134496470D01*
X82495626Y-134602921D01*
X82454091Y-134703195D01*
X82454090Y-134703196D01*
X82393790Y-134793442D01*
X82317042Y-134870190D01*
X82271612Y-134900545D01*
X82226795Y-134930491D01*
X82126521Y-134972026D01*
X82020070Y-134993200D01*
X81911530Y-134993200D01*
X81805079Y-134972026D01*
X81704805Y-134930491D01*
X81659988Y-134900545D01*
X81614558Y-134870190D01*
X81537810Y-134793442D01*
X81477510Y-134703196D01*
X81477509Y-134703195D01*
X81435974Y-134602921D01*
X81414800Y-134496470D01*
X81414800Y-134387930D01*
X81435974Y-134281479D01*
X81477509Y-134181205D01*
X81537809Y-134090960D01*
X81537810Y-134090958D01*
X81614558Y-134014210D01*
X81704804Y-133953910D01*
X81704805Y-133953909D01*
X81805079Y-133912374D01*
X81911530Y-133891200D01*
X82020070Y-133891200D01*
X82126521Y-133912374D01*
G37*
G36*
X103129042Y-131538181D02*
G01*
X103274814Y-131598562D01*
X103274816Y-131598563D01*
X103406008Y-131686222D01*
X103517578Y-131797792D01*
X103605237Y-131928984D01*
X103605238Y-131928986D01*
X103665619Y-132074758D01*
X103696400Y-132229507D01*
X103696400Y-132387293D01*
X103665619Y-132542042D01*
X103605238Y-132687814D01*
X103605237Y-132687816D01*
X103517578Y-132819008D01*
X103406008Y-132930578D01*
X103274816Y-133018237D01*
X103274815Y-133018238D01*
X103274814Y-133018238D01*
X103129042Y-133078619D01*
X102974293Y-133109400D01*
X102816507Y-133109400D01*
X102661758Y-133078619D01*
X102515986Y-133018238D01*
X102515985Y-133018238D01*
X102515984Y-133018237D01*
X102384792Y-132930578D01*
X102273222Y-132819008D01*
X102185563Y-132687816D01*
X102185562Y-132687814D01*
X102125181Y-132542042D01*
X102094400Y-132387293D01*
X102094400Y-132229507D01*
X102125181Y-132074758D01*
X102185562Y-131928986D01*
X102185563Y-131928984D01*
X102273222Y-131797792D01*
X102384792Y-131686222D01*
X102515984Y-131598563D01*
X102515986Y-131598562D01*
X102661758Y-131538181D01*
X102816507Y-131507400D01*
X102974293Y-131507400D01*
X103129042Y-131538181D01*
G37*
G36*
X92588042Y-131538181D02*
G01*
X92733814Y-131598562D01*
X92733816Y-131598563D01*
X92865008Y-131686222D01*
X92976578Y-131797792D01*
X93064237Y-131928984D01*
X93064238Y-131928986D01*
X93124619Y-132074758D01*
X93155400Y-132229507D01*
X93155400Y-132387293D01*
X93124619Y-132542042D01*
X93064238Y-132687814D01*
X93064237Y-132687816D01*
X92976578Y-132819008D01*
X92865008Y-132930578D01*
X92733816Y-133018237D01*
X92733815Y-133018238D01*
X92733814Y-133018238D01*
X92588042Y-133078619D01*
X92433293Y-133109400D01*
X92275507Y-133109400D01*
X92120758Y-133078619D01*
X91974986Y-133018238D01*
X91974985Y-133018238D01*
X91974984Y-133018237D01*
X91843792Y-132930578D01*
X91732222Y-132819008D01*
X91644563Y-132687816D01*
X91644562Y-132687814D01*
X91584181Y-132542042D01*
X91553400Y-132387293D01*
X91553400Y-132229507D01*
X91584181Y-132074758D01*
X91644562Y-131928986D01*
X91644563Y-131928984D01*
X91732222Y-131797792D01*
X91843792Y-131686222D01*
X91974984Y-131598563D01*
X91974986Y-131598562D01*
X92120758Y-131538181D01*
X92275507Y-131507400D01*
X92433293Y-131507400D01*
X92588042Y-131538181D01*
G37*
G36*
X74395121Y-130089574D02*
G01*
X74495395Y-130131109D01*
X74535053Y-130157608D01*
X74585642Y-130191410D01*
X74662390Y-130268158D01*
X74662391Y-130268160D01*
X74722691Y-130358405D01*
X74764226Y-130458679D01*
X74785400Y-130565130D01*
X74785400Y-130673670D01*
X74764226Y-130780121D01*
X74722691Y-130880395D01*
X74722690Y-130880396D01*
X74662390Y-130970642D01*
X74585642Y-131047390D01*
X74540212Y-131077745D01*
X74495395Y-131107691D01*
X74395121Y-131149226D01*
X74288670Y-131170400D01*
X74180130Y-131170400D01*
X74073679Y-131149226D01*
X73973405Y-131107691D01*
X73928588Y-131077745D01*
X73883158Y-131047390D01*
X73806410Y-130970642D01*
X73746110Y-130880396D01*
X73746109Y-130880395D01*
X73704574Y-130780121D01*
X73683400Y-130673670D01*
X73683400Y-130565130D01*
X73704574Y-130458679D01*
X73746109Y-130358405D01*
X73806409Y-130268160D01*
X73806410Y-130268158D01*
X73883158Y-130191410D01*
X73933747Y-130157608D01*
X73973405Y-130131109D01*
X74073679Y-130089574D01*
X74180130Y-130068400D01*
X74288670Y-130068400D01*
X74395121Y-130089574D01*
G37*
G36*
X84666521Y-128171974D02*
G01*
X84766795Y-128213509D01*
X84766796Y-128213510D01*
X84857042Y-128273810D01*
X84933790Y-128350558D01*
X84949348Y-128373843D01*
X84994091Y-128440805D01*
X85035626Y-128541079D01*
X85056800Y-128647530D01*
X85056800Y-128756070D01*
X85035626Y-128862521D01*
X84994091Y-128962795D01*
X84994090Y-128962796D01*
X84933790Y-129053042D01*
X84857042Y-129129790D01*
X84811612Y-129160145D01*
X84766795Y-129190091D01*
X84664182Y-129232595D01*
X84645562Y-129238242D01*
X84623951Y-129249793D01*
X84605009Y-129265337D01*
X84589463Y-129284278D01*
X84577911Y-129305889D01*
X84570797Y-129329337D01*
X84568394Y-129353723D01*
X84570795Y-129378110D01*
X84577907Y-129401559D01*
X84589458Y-129423170D01*
X84605002Y-129442112D01*
X84623943Y-129457658D01*
X84645558Y-129469212D01*
X84741395Y-129508909D01*
X84741396Y-129508910D01*
X84831642Y-129569210D01*
X84908390Y-129645958D01*
X84908391Y-129645960D01*
X84968691Y-129736205D01*
X85010226Y-129836479D01*
X85031400Y-129942930D01*
X85031400Y-130051470D01*
X85010226Y-130157921D01*
X84968691Y-130258195D01*
X84938745Y-130303012D01*
X84908390Y-130348442D01*
X84831642Y-130425190D01*
X84786212Y-130455545D01*
X84741395Y-130485491D01*
X84641121Y-130527026D01*
X84534670Y-130548200D01*
X84426130Y-130548200D01*
X84319679Y-130527026D01*
X84219405Y-130485491D01*
X84174588Y-130455545D01*
X84129158Y-130425190D01*
X84052410Y-130348442D01*
X84022055Y-130303012D01*
X83992109Y-130258195D01*
X83950574Y-130157921D01*
X83929400Y-130051470D01*
X83929400Y-129942930D01*
X83950574Y-129836479D01*
X83992109Y-129736205D01*
X84052409Y-129645960D01*
X84052410Y-129645958D01*
X84129158Y-129569210D01*
X84219404Y-129508910D01*
X84219405Y-129508909D01*
X84322018Y-129466405D01*
X84340638Y-129460758D01*
X84362249Y-129449207D01*
X84381191Y-129433663D01*
X84396737Y-129414722D01*
X84408289Y-129393111D01*
X84415403Y-129369663D01*
X84417806Y-129345277D01*
X84415405Y-129320890D01*
X84408293Y-129297441D01*
X84396742Y-129275830D01*
X84381198Y-129256888D01*
X84362257Y-129241342D01*
X84340642Y-129229788D01*
X84244805Y-129190091D01*
X84199988Y-129160145D01*
X84154558Y-129129790D01*
X84077810Y-129053042D01*
X84017510Y-128962796D01*
X84017509Y-128962795D01*
X83975974Y-128862521D01*
X83954800Y-128756070D01*
X83954800Y-128647530D01*
X83975974Y-128541079D01*
X84017509Y-128440805D01*
X84062252Y-128373843D01*
X84077810Y-128350558D01*
X84154558Y-128273810D01*
X84244804Y-128213510D01*
X84244805Y-128213509D01*
X84345079Y-128171974D01*
X84451530Y-128150800D01*
X84560070Y-128150800D01*
X84666521Y-128171974D01*
G37*
G36*
X82301338Y-129451116D02*
G01*
X82321957Y-129457371D01*
X82340953Y-129467524D01*
X82357608Y-129481192D01*
X82371276Y-129497847D01*
X82381429Y-129516843D01*
X82387684Y-129537462D01*
X82390400Y-129565040D01*
X82390400Y-130073760D01*
X82387684Y-130101338D01*
X82381429Y-130121957D01*
X82371276Y-130140953D01*
X82357608Y-130157608D01*
X82340953Y-130171276D01*
X82321957Y-130181429D01*
X82301338Y-130187684D01*
X82273760Y-130190400D01*
X81815040Y-130190400D01*
X81787462Y-130187684D01*
X81766843Y-130181429D01*
X81747847Y-130171276D01*
X81731192Y-130157608D01*
X81717524Y-130140953D01*
X81707371Y-130121957D01*
X81701116Y-130101338D01*
X81698400Y-130073760D01*
X81698400Y-129565040D01*
X81701116Y-129537462D01*
X81707371Y-129516843D01*
X81717524Y-129497847D01*
X81731192Y-129481192D01*
X81747847Y-129467524D01*
X81766843Y-129457371D01*
X81787462Y-129451116D01*
X81815040Y-129448400D01*
X82273760Y-129448400D01*
X82301338Y-129451116D01*
G37*
G36*
X81331338Y-129451116D02*
G01*
X81351957Y-129457371D01*
X81370953Y-129467524D01*
X81387608Y-129481192D01*
X81401276Y-129497847D01*
X81411429Y-129516843D01*
X81417684Y-129537462D01*
X81420400Y-129565040D01*
X81420400Y-130073760D01*
X81417684Y-130101338D01*
X81411429Y-130121957D01*
X81401276Y-130140953D01*
X81387608Y-130157608D01*
X81370953Y-130171276D01*
X81351957Y-130181429D01*
X81331338Y-130187684D01*
X81303760Y-130190400D01*
X80845040Y-130190400D01*
X80817462Y-130187684D01*
X80796843Y-130181429D01*
X80777847Y-130171276D01*
X80761192Y-130157608D01*
X80747524Y-130140953D01*
X80737371Y-130121957D01*
X80731116Y-130101338D01*
X80728400Y-130073760D01*
X80728400Y-129565040D01*
X80731116Y-129537462D01*
X80737371Y-129516843D01*
X80747524Y-129497847D01*
X80761192Y-129481192D01*
X80777847Y-129467524D01*
X80796843Y-129457371D01*
X80817462Y-129451116D01*
X80845040Y-129448400D01*
X81303760Y-129448400D01*
X81331338Y-129451116D01*
G37*
G36*
X82301338Y-128308116D02*
G01*
X82321957Y-128314371D01*
X82340953Y-128324524D01*
X82357608Y-128338192D01*
X82371276Y-128354847D01*
X82381429Y-128373843D01*
X82387684Y-128394462D01*
X82390400Y-128422040D01*
X82390400Y-128930760D01*
X82387684Y-128958338D01*
X82381429Y-128978957D01*
X82371276Y-128997953D01*
X82357608Y-129014608D01*
X82340953Y-129028276D01*
X82321957Y-129038429D01*
X82301338Y-129044684D01*
X82273760Y-129047400D01*
X81815040Y-129047400D01*
X81787462Y-129044684D01*
X81766843Y-129038429D01*
X81747847Y-129028276D01*
X81731192Y-129014608D01*
X81717524Y-128997953D01*
X81707371Y-128978957D01*
X81701116Y-128958338D01*
X81698400Y-128930760D01*
X81698400Y-128422040D01*
X81701116Y-128394462D01*
X81707371Y-128373843D01*
X81717524Y-128354847D01*
X81731192Y-128338192D01*
X81747847Y-128324524D01*
X81766843Y-128314371D01*
X81787462Y-128308116D01*
X81815040Y-128305400D01*
X82273760Y-128305400D01*
X82301338Y-128308116D01*
G37*
G36*
X81331338Y-128308116D02*
G01*
X81351957Y-128314371D01*
X81370953Y-128324524D01*
X81387608Y-128338192D01*
X81401276Y-128354847D01*
X81411429Y-128373843D01*
X81417684Y-128394462D01*
X81420400Y-128422040D01*
X81420400Y-128930760D01*
X81417684Y-128958338D01*
X81411429Y-128978957D01*
X81401276Y-128997953D01*
X81387608Y-129014608D01*
X81370953Y-129028276D01*
X81351957Y-129038429D01*
X81331338Y-129044684D01*
X81303760Y-129047400D01*
X80845040Y-129047400D01*
X80817462Y-129044684D01*
X80796843Y-129038429D01*
X80777847Y-129028276D01*
X80761192Y-129014608D01*
X80747524Y-128997953D01*
X80737371Y-128978957D01*
X80731116Y-128958338D01*
X80728400Y-128930760D01*
X80728400Y-128422040D01*
X80731116Y-128394462D01*
X80737371Y-128373843D01*
X80747524Y-128354847D01*
X80761192Y-128338192D01*
X80777847Y-128324524D01*
X80796843Y-128314371D01*
X80817462Y-128308116D01*
X80845040Y-128305400D01*
X81303760Y-128305400D01*
X81331338Y-128308116D01*
G37*
G36*
X82301338Y-127292116D02*
G01*
X82321957Y-127298371D01*
X82340953Y-127308524D01*
X82357608Y-127322192D01*
X82371276Y-127338847D01*
X82381429Y-127357843D01*
X82387684Y-127378462D01*
X82390400Y-127406040D01*
X82390400Y-127914760D01*
X82387684Y-127942338D01*
X82381429Y-127962957D01*
X82371276Y-127981953D01*
X82357608Y-127998608D01*
X82340953Y-128012276D01*
X82321957Y-128022429D01*
X82301338Y-128028684D01*
X82273760Y-128031400D01*
X81815040Y-128031400D01*
X81787462Y-128028684D01*
X81766843Y-128022429D01*
X81747847Y-128012276D01*
X81731192Y-127998608D01*
X81717524Y-127981953D01*
X81707371Y-127962957D01*
X81701116Y-127942338D01*
X81698400Y-127914760D01*
X81698400Y-127406040D01*
X81701116Y-127378462D01*
X81707371Y-127357843D01*
X81717524Y-127338847D01*
X81731192Y-127322192D01*
X81747847Y-127308524D01*
X81766843Y-127298371D01*
X81787462Y-127292116D01*
X81815040Y-127289400D01*
X82273760Y-127289400D01*
X82301338Y-127292116D01*
G37*
G36*
X81331338Y-127292116D02*
G01*
X81351957Y-127298371D01*
X81370953Y-127308524D01*
X81387608Y-127322192D01*
X81401276Y-127338847D01*
X81411429Y-127357843D01*
X81417684Y-127378462D01*
X81420400Y-127406040D01*
X81420400Y-127914760D01*
X81417684Y-127942338D01*
X81411429Y-127962957D01*
X81401276Y-127981953D01*
X81387608Y-127998608D01*
X81370953Y-128012276D01*
X81351957Y-128022429D01*
X81331338Y-128028684D01*
X81303760Y-128031400D01*
X80845040Y-128031400D01*
X80817462Y-128028684D01*
X80796843Y-128022429D01*
X80777847Y-128012276D01*
X80761192Y-127998608D01*
X80747524Y-127981953D01*
X80737371Y-127962957D01*
X80731116Y-127942338D01*
X80728400Y-127914760D01*
X80728400Y-127406040D01*
X80731116Y-127378462D01*
X80737371Y-127357843D01*
X80747524Y-127338847D01*
X80761192Y-127322192D01*
X80777847Y-127308524D01*
X80796843Y-127298371D01*
X80817462Y-127292116D01*
X80845040Y-127289400D01*
X81303760Y-127289400D01*
X81331338Y-127292116D01*
G37*
G36*
X84971321Y-126647974D02*
G01*
X85071595Y-126689509D01*
X85071596Y-126689510D01*
X85161842Y-126749810D01*
X85238590Y-126826558D01*
X85238591Y-126826560D01*
X85298891Y-126916805D01*
X85340426Y-127017079D01*
X85361600Y-127123530D01*
X85361600Y-127232070D01*
X85340426Y-127338521D01*
X85298891Y-127438795D01*
X85268945Y-127483612D01*
X85238590Y-127529042D01*
X85161842Y-127605790D01*
X85116412Y-127636145D01*
X85071595Y-127666091D01*
X84971321Y-127707626D01*
X84864870Y-127728800D01*
X84756330Y-127728800D01*
X84649879Y-127707626D01*
X84549605Y-127666091D01*
X84504788Y-127636145D01*
X84459358Y-127605790D01*
X84382610Y-127529042D01*
X84352255Y-127483612D01*
X84322309Y-127438795D01*
X84280774Y-127338521D01*
X84259600Y-127232070D01*
X84259600Y-127123530D01*
X84280774Y-127017079D01*
X84322309Y-126916805D01*
X84382609Y-126826560D01*
X84382610Y-126826558D01*
X84459358Y-126749810D01*
X84549604Y-126689510D01*
X84549605Y-126689509D01*
X84649879Y-126647974D01*
X84756330Y-126626800D01*
X84864870Y-126626800D01*
X84971321Y-126647974D01*
G37*
G36*
X89263921Y-125454174D02*
G01*
X89364195Y-125495709D01*
X89364196Y-125495710D01*
X89454442Y-125556010D01*
X89531190Y-125632758D01*
X89549924Y-125660796D01*
X89591491Y-125723005D01*
X89633026Y-125823279D01*
X89654200Y-125929730D01*
X89654200Y-126038270D01*
X89633026Y-126144721D01*
X89591491Y-126244995D01*
X89591490Y-126244996D01*
X89531190Y-126335242D01*
X89454442Y-126411990D01*
X89409012Y-126442345D01*
X89364195Y-126472291D01*
X89263921Y-126513826D01*
X89157470Y-126535000D01*
X89048930Y-126535000D01*
X88942479Y-126513826D01*
X88842205Y-126472291D01*
X88797388Y-126442345D01*
X88751958Y-126411990D01*
X88675210Y-126335242D01*
X88614910Y-126244996D01*
X88614909Y-126244995D01*
X88573374Y-126144721D01*
X88552200Y-126038270D01*
X88552200Y-125929730D01*
X88573374Y-125823279D01*
X88614909Y-125723005D01*
X88656476Y-125660796D01*
X88675210Y-125632758D01*
X88751958Y-125556010D01*
X88842204Y-125495710D01*
X88842205Y-125495709D01*
X88942479Y-125454174D01*
X89048930Y-125433000D01*
X89157470Y-125433000D01*
X89263921Y-125454174D01*
G37*
G36*
X99068321Y-125327174D02*
G01*
X99168595Y-125368709D01*
X99168596Y-125368710D01*
X99258842Y-125429010D01*
X99335590Y-125505758D01*
X99335591Y-125505760D01*
X99395891Y-125596005D01*
X99437426Y-125696279D01*
X99458600Y-125802730D01*
X99458600Y-125911270D01*
X99437426Y-126017721D01*
X99395891Y-126117995D01*
X99395890Y-126117996D01*
X99335590Y-126208242D01*
X99258842Y-126284990D01*
X99213412Y-126315345D01*
X99168595Y-126345291D01*
X99068321Y-126386826D01*
X98961870Y-126408000D01*
X98853330Y-126408000D01*
X98746879Y-126386826D01*
X98646605Y-126345291D01*
X98601788Y-126315345D01*
X98556358Y-126284990D01*
X98479610Y-126208242D01*
X98419310Y-126117996D01*
X98419309Y-126117995D01*
X98377774Y-126017721D01*
X98356600Y-125911270D01*
X98356600Y-125802730D01*
X98377774Y-125696279D01*
X98419309Y-125596005D01*
X98479609Y-125505760D01*
X98479610Y-125505758D01*
X98556358Y-125429010D01*
X98646604Y-125368710D01*
X98646605Y-125368709D01*
X98746879Y-125327174D01*
X98853330Y-125306000D01*
X98961870Y-125306000D01*
X99068321Y-125327174D01*
G37*
G36*
X103129042Y-124538181D02*
G01*
X103274814Y-124598562D01*
X103274816Y-124598563D01*
X103406008Y-124686222D01*
X103517578Y-124797792D01*
X103593561Y-124911510D01*
X103605238Y-124928986D01*
X103665619Y-125074758D01*
X103696400Y-125229507D01*
X103696400Y-125387293D01*
X103665619Y-125542042D01*
X103616429Y-125660796D01*
X103605237Y-125687816D01*
X103517578Y-125819008D01*
X103406008Y-125930578D01*
X103274816Y-126018237D01*
X103274815Y-126018238D01*
X103274814Y-126018238D01*
X103129042Y-126078619D01*
X102974293Y-126109400D01*
X102816507Y-126109400D01*
X102661758Y-126078619D01*
X102515986Y-126018238D01*
X102515985Y-126018238D01*
X102515984Y-126018237D01*
X102384792Y-125930578D01*
X102273222Y-125819008D01*
X102185563Y-125687816D01*
X102174371Y-125660796D01*
X102125181Y-125542042D01*
X102094400Y-125387293D01*
X102094400Y-125229507D01*
X102125181Y-125074758D01*
X102185562Y-124928986D01*
X102197239Y-124911510D01*
X102273222Y-124797792D01*
X102384792Y-124686222D01*
X102515984Y-124598563D01*
X102515986Y-124598562D01*
X102661758Y-124538181D01*
X102816507Y-124507400D01*
X102974293Y-124507400D01*
X103129042Y-124538181D01*
G37*
G36*
X92588042Y-124538181D02*
G01*
X92733814Y-124598562D01*
X92733816Y-124598563D01*
X92865008Y-124686222D01*
X92976578Y-124797792D01*
X93052561Y-124911510D01*
X93064238Y-124928986D01*
X93124619Y-125074758D01*
X93155400Y-125229507D01*
X93155400Y-125387293D01*
X93124619Y-125542042D01*
X93075429Y-125660796D01*
X93064237Y-125687816D01*
X92976578Y-125819008D01*
X92865008Y-125930578D01*
X92733816Y-126018237D01*
X92733815Y-126018238D01*
X92733814Y-126018238D01*
X92588042Y-126078619D01*
X92433293Y-126109400D01*
X92275507Y-126109400D01*
X92120758Y-126078619D01*
X91974986Y-126018238D01*
X91974985Y-126018238D01*
X91974984Y-126018237D01*
X91843792Y-125930578D01*
X91732222Y-125819008D01*
X91644563Y-125687816D01*
X91633371Y-125660796D01*
X91584181Y-125542042D01*
X91553400Y-125387293D01*
X91553400Y-125229507D01*
X91584181Y-125074758D01*
X91644562Y-124928986D01*
X91656239Y-124911510D01*
X91732222Y-124797792D01*
X91843792Y-124686222D01*
X91974984Y-124598563D01*
X91974986Y-124598562D01*
X92120758Y-124538181D01*
X92275507Y-124507400D01*
X92433293Y-124507400D01*
X92588042Y-124538181D01*
G37*
G36*
X84971321Y-124869974D02*
G01*
X85071595Y-124911509D01*
X85071596Y-124911510D01*
X85161842Y-124971810D01*
X85238590Y-125048558D01*
X85238591Y-125048560D01*
X85298891Y-125138805D01*
X85340426Y-125239079D01*
X85361600Y-125345530D01*
X85361600Y-125454070D01*
X85340426Y-125560521D01*
X85298891Y-125660795D01*
X85298890Y-125660796D01*
X85238590Y-125751042D01*
X85161842Y-125827790D01*
X85116412Y-125858145D01*
X85071595Y-125888091D01*
X84971321Y-125929626D01*
X84864870Y-125950800D01*
X84756330Y-125950800D01*
X84649879Y-125929626D01*
X84549605Y-125888091D01*
X84504788Y-125858145D01*
X84459358Y-125827790D01*
X84382610Y-125751042D01*
X84322310Y-125660796D01*
X84322309Y-125660795D01*
X84280774Y-125560521D01*
X84259600Y-125454070D01*
X84259600Y-125345530D01*
X84280774Y-125239079D01*
X84322309Y-125138805D01*
X84382609Y-125048560D01*
X84382610Y-125048558D01*
X84459358Y-124971810D01*
X84549604Y-124911510D01*
X84549605Y-124911509D01*
X84649879Y-124869974D01*
X84756330Y-124848800D01*
X84864870Y-124848800D01*
X84971321Y-124869974D01*
G37*
G36*
X106256521Y-124184174D02*
G01*
X106356795Y-124225709D01*
X106356796Y-124225710D01*
X106447042Y-124286010D01*
X106523790Y-124362758D01*
X106523791Y-124362760D01*
X106584091Y-124453005D01*
X106625626Y-124553279D01*
X106646800Y-124659730D01*
X106646800Y-124768270D01*
X106625627Y-124874717D01*
X106584091Y-124974995D01*
X106584090Y-124974996D01*
X106523790Y-125065242D01*
X106447042Y-125141990D01*
X106401612Y-125172345D01*
X106356795Y-125202291D01*
X106256521Y-125243826D01*
X106150070Y-125265000D01*
X106041530Y-125265000D01*
X105935079Y-125243826D01*
X105834805Y-125202291D01*
X105789988Y-125172345D01*
X105744558Y-125141990D01*
X105667810Y-125065242D01*
X105607510Y-124974996D01*
X105607509Y-124974995D01*
X105565973Y-124874717D01*
X105544800Y-124768270D01*
X105544800Y-124659730D01*
X105565974Y-124553279D01*
X105607509Y-124453005D01*
X105667809Y-124362760D01*
X105667810Y-124362758D01*
X105744558Y-124286010D01*
X105834804Y-124225710D01*
X105834805Y-124225709D01*
X105935079Y-124184174D01*
X106041530Y-124163000D01*
X106150070Y-124163000D01*
X106256521Y-124184174D01*
G37*
G36*
X82301338Y-123863116D02*
G01*
X82321957Y-123869371D01*
X82340953Y-123879524D01*
X82357608Y-123893192D01*
X82371276Y-123909847D01*
X82381429Y-123928843D01*
X82387684Y-123949462D01*
X82390400Y-123977040D01*
X82390400Y-124485760D01*
X82387684Y-124513338D01*
X82381429Y-124533957D01*
X82371276Y-124552953D01*
X82357608Y-124569608D01*
X82340953Y-124583276D01*
X82321957Y-124593429D01*
X82301338Y-124599684D01*
X82273760Y-124602400D01*
X81815040Y-124602400D01*
X81787462Y-124599684D01*
X81766843Y-124593429D01*
X81747847Y-124583276D01*
X81731192Y-124569608D01*
X81717524Y-124552953D01*
X81707371Y-124533957D01*
X81701116Y-124513338D01*
X81698400Y-124485760D01*
X81698400Y-123977040D01*
X81701116Y-123949462D01*
X81707371Y-123928843D01*
X81717524Y-123909847D01*
X81731192Y-123893192D01*
X81747847Y-123879524D01*
X81766843Y-123869371D01*
X81787462Y-123863116D01*
X81815040Y-123860400D01*
X82273760Y-123860400D01*
X82301338Y-123863116D01*
G37*
G36*
X81331338Y-123863116D02*
G01*
X81351957Y-123869371D01*
X81370953Y-123879524D01*
X81387608Y-123893192D01*
X81401276Y-123909847D01*
X81411429Y-123928843D01*
X81417684Y-123949462D01*
X81420400Y-123977040D01*
X81420400Y-124485760D01*
X81417684Y-124513338D01*
X81411429Y-124533957D01*
X81401276Y-124552953D01*
X81387608Y-124569608D01*
X81370953Y-124583276D01*
X81351957Y-124593429D01*
X81331338Y-124599684D01*
X81303760Y-124602400D01*
X80845040Y-124602400D01*
X80817462Y-124599684D01*
X80796843Y-124593429D01*
X80777847Y-124583276D01*
X80761192Y-124569608D01*
X80747524Y-124552953D01*
X80737371Y-124533957D01*
X80731116Y-124513338D01*
X80728400Y-124485760D01*
X80728400Y-123977040D01*
X80731116Y-123949462D01*
X80737371Y-123928843D01*
X80747524Y-123909847D01*
X80761192Y-123893192D01*
X80777847Y-123879524D01*
X80796843Y-123869371D01*
X80817462Y-123863116D01*
X80845040Y-123860400D01*
X81303760Y-123860400D01*
X81331338Y-123863116D01*
G37*
G36*
X84996721Y-123244374D02*
G01*
X85096995Y-123285909D01*
X85096996Y-123285910D01*
X85187242Y-123346210D01*
X85263990Y-123422958D01*
X85263991Y-123422960D01*
X85324291Y-123513205D01*
X85365826Y-123613479D01*
X85387000Y-123719930D01*
X85387000Y-123828470D01*
X85365826Y-123934921D01*
X85324291Y-124035195D01*
X85324290Y-124035196D01*
X85263990Y-124125442D01*
X85187242Y-124202190D01*
X85141812Y-124232545D01*
X85096995Y-124262491D01*
X84996721Y-124304026D01*
X84890270Y-124325200D01*
X84781730Y-124325200D01*
X84675279Y-124304026D01*
X84575005Y-124262491D01*
X84530188Y-124232545D01*
X84484758Y-124202190D01*
X84408010Y-124125442D01*
X84347710Y-124035196D01*
X84347709Y-124035195D01*
X84306174Y-123934921D01*
X84285000Y-123828470D01*
X84285000Y-123719930D01*
X84306174Y-123613479D01*
X84347709Y-123513205D01*
X84408009Y-123422960D01*
X84408010Y-123422958D01*
X84484758Y-123346210D01*
X84575004Y-123285910D01*
X84575005Y-123285909D01*
X84675279Y-123244374D01*
X84781730Y-123223200D01*
X84890270Y-123223200D01*
X84996721Y-123244374D01*
G37*
G36*
X81331338Y-122847116D02*
G01*
X81351957Y-122853371D01*
X81370953Y-122863524D01*
X81387608Y-122877192D01*
X81401276Y-122893847D01*
X81411429Y-122912843D01*
X81417684Y-122933462D01*
X81420400Y-122961040D01*
X81420400Y-123469760D01*
X81417684Y-123497338D01*
X81411429Y-123517957D01*
X81401276Y-123536953D01*
X81387608Y-123553608D01*
X81370953Y-123567276D01*
X81351957Y-123577429D01*
X81331338Y-123583684D01*
X81303760Y-123586400D01*
X80845040Y-123586400D01*
X80817462Y-123583684D01*
X80796843Y-123577429D01*
X80777847Y-123567276D01*
X80761192Y-123553608D01*
X80747524Y-123536953D01*
X80737371Y-123517957D01*
X80731116Y-123497338D01*
X80728400Y-123469760D01*
X80728400Y-122961040D01*
X80731116Y-122933462D01*
X80737371Y-122912843D01*
X80747524Y-122893847D01*
X80761192Y-122877192D01*
X80777847Y-122863524D01*
X80796843Y-122853371D01*
X80817462Y-122847116D01*
X80845040Y-122844400D01*
X81303760Y-122844400D01*
X81331338Y-122847116D01*
G37*
G36*
X82301338Y-122847116D02*
G01*
X82321957Y-122853371D01*
X82340953Y-122863524D01*
X82357608Y-122877192D01*
X82371276Y-122893847D01*
X82381429Y-122912843D01*
X82387684Y-122933462D01*
X82390400Y-122961040D01*
X82390400Y-123469760D01*
X82387684Y-123497338D01*
X82381429Y-123517957D01*
X82371276Y-123536953D01*
X82357608Y-123553608D01*
X82340953Y-123567276D01*
X82321957Y-123577429D01*
X82301338Y-123583684D01*
X82273760Y-123586400D01*
X81815040Y-123586400D01*
X81787462Y-123583684D01*
X81766843Y-123577429D01*
X81747847Y-123567276D01*
X81731192Y-123553608D01*
X81717524Y-123536953D01*
X81707371Y-123517957D01*
X81701116Y-123497338D01*
X81698400Y-123469760D01*
X81698400Y-122961040D01*
X81701116Y-122933462D01*
X81707371Y-122912843D01*
X81717524Y-122893847D01*
X81731192Y-122877192D01*
X81747847Y-122863524D01*
X81766843Y-122853371D01*
X81787462Y-122847116D01*
X81815040Y-122844400D01*
X82273760Y-122844400D01*
X82301338Y-122847116D01*
G37*
G36*
X102675121Y-122152174D02*
G01*
X102775395Y-122193709D01*
X102775396Y-122193710D01*
X102865642Y-122254010D01*
X102942390Y-122330758D01*
X102942391Y-122330760D01*
X103002691Y-122421005D01*
X103044226Y-122521279D01*
X103065400Y-122627730D01*
X103065400Y-122736270D01*
X103044226Y-122842721D01*
X103002691Y-122942995D01*
X102984219Y-122970640D01*
X102942390Y-123033242D01*
X102865642Y-123109990D01*
X102820212Y-123140345D01*
X102775395Y-123170291D01*
X102675121Y-123211826D01*
X102568670Y-123233000D01*
X102460130Y-123233000D01*
X102353679Y-123211826D01*
X102253405Y-123170291D01*
X102208588Y-123140345D01*
X102163158Y-123109990D01*
X102086410Y-123033242D01*
X102044581Y-122970640D01*
X102026109Y-122942995D01*
X101984574Y-122842721D01*
X101963400Y-122736270D01*
X101963400Y-122627730D01*
X101984574Y-122521279D01*
X102026109Y-122421005D01*
X102086409Y-122330760D01*
X102086410Y-122330758D01*
X102163158Y-122254010D01*
X102253404Y-122193710D01*
X102253405Y-122193709D01*
X102353679Y-122152174D01*
X102460130Y-122131000D01*
X102568670Y-122131000D01*
X102675121Y-122152174D01*
G37*
G36*
X74395121Y-122089574D02*
G01*
X74495395Y-122131109D01*
X74495396Y-122131110D01*
X74585642Y-122191410D01*
X74662390Y-122268158D01*
X74662391Y-122268160D01*
X74722691Y-122358405D01*
X74764226Y-122458679D01*
X74785400Y-122565130D01*
X74785400Y-122673670D01*
X74764226Y-122780121D01*
X74722691Y-122880395D01*
X74712885Y-122895071D01*
X74662390Y-122970642D01*
X74585642Y-123047390D01*
X74540212Y-123077745D01*
X74495395Y-123107691D01*
X74395121Y-123149226D01*
X74288670Y-123170400D01*
X74180130Y-123170400D01*
X74073679Y-123149226D01*
X73973405Y-123107691D01*
X73928588Y-123077745D01*
X73883158Y-123047390D01*
X73806410Y-122970642D01*
X73755915Y-122895071D01*
X73746109Y-122880395D01*
X73704574Y-122780121D01*
X73683400Y-122673670D01*
X73683400Y-122565130D01*
X73704574Y-122458679D01*
X73746109Y-122358405D01*
X73806409Y-122268160D01*
X73806410Y-122268158D01*
X73883158Y-122191410D01*
X73973404Y-122131110D01*
X73973405Y-122131109D01*
X74073679Y-122089574D01*
X74180130Y-122068400D01*
X74288670Y-122068400D01*
X74395121Y-122089574D01*
G37*
G36*
X84615721Y-121644174D02*
G01*
X84715995Y-121685709D01*
X84715996Y-121685710D01*
X84806242Y-121746010D01*
X84882990Y-121822758D01*
X84888981Y-121831724D01*
X84943291Y-121913005D01*
X84984826Y-122013279D01*
X85006000Y-122119730D01*
X85006000Y-122228270D01*
X84984826Y-122334721D01*
X84943291Y-122434995D01*
X84927466Y-122458679D01*
X84882990Y-122525242D01*
X84806242Y-122601990D01*
X84767719Y-122627730D01*
X84715995Y-122662291D01*
X84615721Y-122703826D01*
X84509270Y-122725000D01*
X84400730Y-122725000D01*
X84294279Y-122703826D01*
X84194005Y-122662291D01*
X84142281Y-122627730D01*
X84103758Y-122601990D01*
X84027010Y-122525242D01*
X83982534Y-122458679D01*
X83966709Y-122434995D01*
X83925174Y-122334721D01*
X83904000Y-122228270D01*
X83904000Y-122119730D01*
X83925174Y-122013279D01*
X83966709Y-121913005D01*
X84021019Y-121831724D01*
X84027010Y-121822758D01*
X84103758Y-121746010D01*
X84194004Y-121685710D01*
X84194005Y-121685709D01*
X84294279Y-121644174D01*
X84400730Y-121623000D01*
X84509270Y-121623000D01*
X84615721Y-121644174D01*
G37*
G36*
X81331338Y-121831116D02*
G01*
X81351957Y-121837371D01*
X81370953Y-121847524D01*
X81387608Y-121861192D01*
X81401276Y-121877847D01*
X81411429Y-121896843D01*
X81417684Y-121917462D01*
X81420400Y-121945040D01*
X81420400Y-122453760D01*
X81417684Y-122481338D01*
X81411429Y-122501957D01*
X81401276Y-122520953D01*
X81387608Y-122537608D01*
X81370953Y-122551276D01*
X81351957Y-122561429D01*
X81331338Y-122567684D01*
X81303760Y-122570400D01*
X80845040Y-122570400D01*
X80817462Y-122567684D01*
X80796843Y-122561429D01*
X80777847Y-122551276D01*
X80761192Y-122537608D01*
X80747524Y-122520953D01*
X80737371Y-122501957D01*
X80731116Y-122481338D01*
X80728400Y-122453760D01*
X80728400Y-121945040D01*
X80731116Y-121917462D01*
X80737371Y-121896843D01*
X80747524Y-121877847D01*
X80761192Y-121861192D01*
X80777847Y-121847524D01*
X80796843Y-121837371D01*
X80817462Y-121831116D01*
X80845040Y-121828400D01*
X81303760Y-121828400D01*
X81331338Y-121831116D01*
G37*
G36*
X82301338Y-121831116D02*
G01*
X82321957Y-121837371D01*
X82340953Y-121847524D01*
X82357608Y-121861192D01*
X82371276Y-121877847D01*
X82381429Y-121896843D01*
X82387684Y-121917462D01*
X82390400Y-121945040D01*
X82390400Y-122453760D01*
X82387684Y-122481338D01*
X82381429Y-122501957D01*
X82371276Y-122520953D01*
X82357608Y-122537608D01*
X82340953Y-122551276D01*
X82321957Y-122561429D01*
X82301338Y-122567684D01*
X82273760Y-122570400D01*
X81815040Y-122570400D01*
X81787462Y-122567684D01*
X81766843Y-122561429D01*
X81747847Y-122551276D01*
X81731192Y-122537608D01*
X81717524Y-122520953D01*
X81707371Y-122501957D01*
X81701116Y-122481338D01*
X81698400Y-122453760D01*
X81698400Y-121945040D01*
X81701116Y-121917462D01*
X81707371Y-121896843D01*
X81717524Y-121877847D01*
X81731192Y-121861192D01*
X81747847Y-121847524D01*
X81766843Y-121837371D01*
X81787462Y-121831116D01*
X81815040Y-121828400D01*
X82273760Y-121828400D01*
X82301338Y-121831116D01*
G37*
G36*
X106942321Y-119967774D02*
G01*
X107042595Y-120009309D01*
X107042596Y-120009310D01*
X107132842Y-120069610D01*
X107209590Y-120146358D01*
X107209591Y-120146360D01*
X107269891Y-120236605D01*
X107311426Y-120336879D01*
X107332600Y-120443330D01*
X107332600Y-120551870D01*
X107311426Y-120658321D01*
X107269891Y-120758595D01*
X107269890Y-120758596D01*
X107209590Y-120848842D01*
X107132842Y-120925590D01*
X107087412Y-120955945D01*
X107042595Y-120985891D01*
X106942321Y-121027426D01*
X106835870Y-121048600D01*
X106727330Y-121048600D01*
X106620879Y-121027426D01*
X106520605Y-120985891D01*
X106475788Y-120955945D01*
X106430358Y-120925590D01*
X106353610Y-120848842D01*
X106293310Y-120758596D01*
X106293309Y-120758595D01*
X106251774Y-120658321D01*
X106230600Y-120551870D01*
X106230600Y-120443330D01*
X106251774Y-120336879D01*
X106293309Y-120236605D01*
X106353609Y-120146360D01*
X106353610Y-120146358D01*
X106430358Y-120069610D01*
X106520604Y-120009310D01*
X106520605Y-120009309D01*
X106620879Y-119967774D01*
X106727330Y-119946600D01*
X106835870Y-119946600D01*
X106942321Y-119967774D01*
G37*
G36*
X107044166Y-118167299D02*
G01*
X107176288Y-118222026D01*
X107176290Y-118222027D01*
X107295198Y-118301479D01*
X107396321Y-118402602D01*
X107396322Y-118402604D01*
X107475774Y-118521512D01*
X107530501Y-118653634D01*
X107558400Y-118793894D01*
X107558400Y-118936906D01*
X107530501Y-119077166D01*
X107475774Y-119209288D01*
X107475773Y-119209290D01*
X107396321Y-119328198D01*
X107295198Y-119429321D01*
X107176290Y-119508773D01*
X107176289Y-119508774D01*
X107176288Y-119508774D01*
X107044166Y-119563501D01*
X106903906Y-119591400D01*
X106760894Y-119591400D01*
X106620634Y-119563501D01*
X106488512Y-119508774D01*
X106488511Y-119508774D01*
X106488510Y-119508773D01*
X106369602Y-119429321D01*
X106268479Y-119328198D01*
X106189027Y-119209290D01*
X106189026Y-119209288D01*
X106134299Y-119077166D01*
X106106400Y-118936906D01*
X106106400Y-118793894D01*
X106134299Y-118653634D01*
X106189026Y-118521512D01*
X106268478Y-118402604D01*
X106268479Y-118402602D01*
X106369602Y-118301479D01*
X106488510Y-118222027D01*
X106488512Y-118222026D01*
X106620634Y-118167299D01*
X106760894Y-118139400D01*
X106903906Y-118139400D01*
X107044166Y-118167299D01*
G37*
G36*
X76614721Y-116894374D02*
G01*
X76714995Y-116935909D01*
X76751057Y-116960005D01*
X76805242Y-116996210D01*
X76881990Y-117072958D01*
X76881991Y-117072960D01*
X76942291Y-117163205D01*
X76983826Y-117263479D01*
X77005000Y-117369930D01*
X77005000Y-117478470D01*
X76983826Y-117584921D01*
X76942291Y-117685195D01*
X76912345Y-117730012D01*
X76881990Y-117775442D01*
X76805242Y-117852190D01*
X76773199Y-117873600D01*
X76714995Y-117912491D01*
X76614721Y-117954026D01*
X76508270Y-117975200D01*
X76399730Y-117975200D01*
X76293279Y-117954026D01*
X76193005Y-117912491D01*
X76134801Y-117873600D01*
X76102758Y-117852190D01*
X76026010Y-117775442D01*
X75995655Y-117730012D01*
X75965709Y-117685195D01*
X75924174Y-117584921D01*
X75903000Y-117478470D01*
X75903000Y-117369930D01*
X75924174Y-117263479D01*
X75965709Y-117163205D01*
X76026009Y-117072960D01*
X76026010Y-117072958D01*
X76102758Y-116996210D01*
X76156943Y-116960005D01*
X76193005Y-116935909D01*
X76293279Y-116894374D01*
X76399730Y-116873200D01*
X76508270Y-116873200D01*
X76614721Y-116894374D01*
G37*
G36*
X72525321Y-116818174D02*
G01*
X72625595Y-116859709D01*
X72670412Y-116889655D01*
X72715842Y-116920010D01*
X72792590Y-116996758D01*
X72792591Y-116996760D01*
X72852891Y-117087005D01*
X72894426Y-117187279D01*
X72915600Y-117293730D01*
X72915600Y-117402270D01*
X72894426Y-117508721D01*
X72852891Y-117608995D01*
X72852890Y-117608996D01*
X72792590Y-117699242D01*
X72715842Y-117775990D01*
X72677476Y-117801625D01*
X72625595Y-117836291D01*
X72525321Y-117877826D01*
X72418870Y-117899000D01*
X72310330Y-117899000D01*
X72203879Y-117877826D01*
X72103605Y-117836291D01*
X72051724Y-117801625D01*
X72013358Y-117775990D01*
X71936610Y-117699242D01*
X71876310Y-117608996D01*
X71876309Y-117608995D01*
X71834774Y-117508721D01*
X71813600Y-117402270D01*
X71813600Y-117293730D01*
X71834774Y-117187279D01*
X71876309Y-117087005D01*
X71936609Y-116996760D01*
X71936610Y-116996758D01*
X72013358Y-116920010D01*
X72058788Y-116889655D01*
X72103605Y-116859709D01*
X72203879Y-116818174D01*
X72310330Y-116797000D01*
X72418870Y-116797000D01*
X72525321Y-116818174D01*
G37*
G36*
X89797321Y-116792774D02*
G01*
X89897595Y-116834309D01*
X89911814Y-116843810D01*
X89987842Y-116894610D01*
X90064590Y-116971358D01*
X90081563Y-116996760D01*
X90124891Y-117061605D01*
X90166426Y-117161879D01*
X90187600Y-117268330D01*
X90187600Y-117376870D01*
X90166426Y-117483321D01*
X90124891Y-117583595D01*
X90098535Y-117623040D01*
X90064590Y-117673842D01*
X89987842Y-117750590D01*
X89955799Y-117772000D01*
X89897595Y-117810891D01*
X89797321Y-117852426D01*
X89690870Y-117873600D01*
X89582330Y-117873600D01*
X89475879Y-117852426D01*
X89375605Y-117810891D01*
X89317401Y-117772000D01*
X89285358Y-117750590D01*
X89208610Y-117673842D01*
X89174665Y-117623040D01*
X89148309Y-117583595D01*
X89106774Y-117483321D01*
X89085600Y-117376870D01*
X89085600Y-117268330D01*
X89106774Y-117161879D01*
X89148309Y-117061605D01*
X89191637Y-116996760D01*
X89208610Y-116971358D01*
X89285358Y-116894610D01*
X89361386Y-116843810D01*
X89375605Y-116834309D01*
X89475879Y-116792774D01*
X89582330Y-116771600D01*
X89690870Y-116771600D01*
X89797321Y-116792774D01*
G37*
G36*
X80145321Y-116741974D02*
G01*
X80245595Y-116783509D01*
X80290412Y-116813455D01*
X80335842Y-116843810D01*
X80412590Y-116920558D01*
X80412591Y-116920560D01*
X80472891Y-117010805D01*
X80514426Y-117111079D01*
X80535600Y-117217530D01*
X80535600Y-117326070D01*
X80514426Y-117432521D01*
X80472891Y-117532795D01*
X80472890Y-117532796D01*
X80412590Y-117623042D01*
X80335842Y-117699790D01*
X80290412Y-117730145D01*
X80245595Y-117760091D01*
X80145321Y-117801626D01*
X80038870Y-117822800D01*
X79930330Y-117822800D01*
X79823879Y-117801626D01*
X79723605Y-117760091D01*
X79678788Y-117730145D01*
X79633358Y-117699790D01*
X79556610Y-117623042D01*
X79496310Y-117532796D01*
X79496309Y-117532795D01*
X79454774Y-117432521D01*
X79433600Y-117326070D01*
X79433600Y-117217530D01*
X79454774Y-117111079D01*
X79496309Y-117010805D01*
X79556609Y-116920560D01*
X79556610Y-116920558D01*
X79633358Y-116843810D01*
X79678788Y-116813455D01*
X79723605Y-116783509D01*
X79823879Y-116741974D01*
X79930330Y-116720800D01*
X80038870Y-116720800D01*
X80145321Y-116741974D01*
G37*
G36*
X84006121Y-116691174D02*
G01*
X84106395Y-116732709D01*
X84106396Y-116732710D01*
X84196642Y-116793010D01*
X84273390Y-116869758D01*
X84273391Y-116869760D01*
X84333691Y-116960005D01*
X84375226Y-117060279D01*
X84396400Y-117166730D01*
X84396400Y-117275270D01*
X84375226Y-117381721D01*
X84333691Y-117481995D01*
X84333690Y-117481996D01*
X84273390Y-117572242D01*
X84196642Y-117648990D01*
X84159451Y-117673840D01*
X84106395Y-117709291D01*
X84006121Y-117750826D01*
X83899670Y-117772000D01*
X83791130Y-117772000D01*
X83684679Y-117750826D01*
X83584405Y-117709291D01*
X83531349Y-117673840D01*
X83494158Y-117648990D01*
X83417410Y-117572242D01*
X83357110Y-117481996D01*
X83357109Y-117481995D01*
X83315574Y-117381721D01*
X83294400Y-117275270D01*
X83294400Y-117166730D01*
X83315574Y-117060279D01*
X83357109Y-116960005D01*
X83417409Y-116869760D01*
X83417410Y-116869758D01*
X83494158Y-116793010D01*
X83584404Y-116732710D01*
X83584405Y-116732709D01*
X83684679Y-116691174D01*
X83791130Y-116670000D01*
X83899670Y-116670000D01*
X84006121Y-116691174D01*
G37*
G36*
X107558400Y-117591400D02*
G01*
X106106400Y-117591400D01*
X106106400Y-116139400D01*
X107558400Y-116139400D01*
X107558400Y-117591400D01*
G37*
G36*
X103488166Y-115912299D02*
G01*
X103620288Y-115967026D01*
X103620290Y-115967027D01*
X103739198Y-116046479D01*
X103840321Y-116147602D01*
X103840322Y-116147604D01*
X103919774Y-116266512D01*
X103974501Y-116398634D01*
X104002400Y-116538894D01*
X104002400Y-116681906D01*
X103974501Y-116822166D01*
X103927387Y-116935909D01*
X103919773Y-116954290D01*
X103840321Y-117073198D01*
X103739198Y-117174321D01*
X103620290Y-117253773D01*
X103620289Y-117253774D01*
X103620288Y-117253774D01*
X103488166Y-117308501D01*
X103347906Y-117336400D01*
X103204894Y-117336400D01*
X103064634Y-117308501D01*
X102932512Y-117253774D01*
X102932511Y-117253774D01*
X102932510Y-117253773D01*
X102813602Y-117174321D01*
X102712479Y-117073198D01*
X102633027Y-116954290D01*
X102625413Y-116935909D01*
X102578299Y-116822166D01*
X102550400Y-116681906D01*
X102550400Y-116538894D01*
X102578299Y-116398634D01*
X102633026Y-116266512D01*
X102712478Y-116147604D01*
X102712479Y-116147602D01*
X102813602Y-116046479D01*
X102932510Y-115967027D01*
X102932512Y-115967026D01*
X103064634Y-115912299D01*
X103204894Y-115884400D01*
X103347906Y-115884400D01*
X103488166Y-115912299D01*
G37*
G36*
X103488166Y-113912299D02*
G01*
X103620288Y-113967026D01*
X103620290Y-113967027D01*
X103739198Y-114046479D01*
X103840321Y-114147602D01*
X103840322Y-114147604D01*
X103919774Y-114266512D01*
X103974501Y-114398634D01*
X104002400Y-114538894D01*
X104002400Y-114681906D01*
X103974501Y-114822166D01*
X103919774Y-114954288D01*
X103919773Y-114954290D01*
X103840321Y-115073198D01*
X103739198Y-115174321D01*
X103620290Y-115253773D01*
X103620289Y-115253774D01*
X103620288Y-115253774D01*
X103488166Y-115308501D01*
X103347906Y-115336400D01*
X103204894Y-115336400D01*
X103064634Y-115308501D01*
X102932512Y-115253774D01*
X102932511Y-115253774D01*
X102932510Y-115253773D01*
X102813602Y-115174321D01*
X102712479Y-115073198D01*
X102633027Y-114954290D01*
X102633026Y-114954288D01*
X102578299Y-114822166D01*
X102550400Y-114681906D01*
X102550400Y-114538894D01*
X102578299Y-114398634D01*
X102633026Y-114266512D01*
X102712478Y-114147604D01*
X102712479Y-114147602D01*
X102813602Y-114046479D01*
X102932510Y-113967027D01*
X102932512Y-113967026D01*
X103064634Y-113912299D01*
X103204894Y-113884400D01*
X103347906Y-113884400D01*
X103488166Y-113912299D01*
G37*
G36*
X78410338Y-112687116D02*
G01*
X78430957Y-112693371D01*
X78449953Y-112703524D01*
X78466608Y-112717192D01*
X78480276Y-112733847D01*
X78490429Y-112752843D01*
X78496684Y-112773462D01*
X78499400Y-112801040D01*
X78499400Y-113309760D01*
X78496684Y-113337338D01*
X78490429Y-113357957D01*
X78480276Y-113376953D01*
X78466608Y-113393608D01*
X78449953Y-113407276D01*
X78430957Y-113417429D01*
X78410338Y-113423684D01*
X78382760Y-113426400D01*
X77924040Y-113426400D01*
X77896462Y-113423684D01*
X77875843Y-113417429D01*
X77856847Y-113407276D01*
X77840192Y-113393608D01*
X77826524Y-113376953D01*
X77816371Y-113357957D01*
X77810116Y-113337338D01*
X77807400Y-113309760D01*
X77807400Y-112801040D01*
X77810116Y-112773462D01*
X77816371Y-112752843D01*
X77826524Y-112733847D01*
X77840192Y-112717192D01*
X77856847Y-112703524D01*
X77875843Y-112693371D01*
X77896462Y-112687116D01*
X77924040Y-112684400D01*
X78382760Y-112684400D01*
X78410338Y-112687116D01*
G37*
G36*
X79380338Y-112687116D02*
G01*
X79400957Y-112693371D01*
X79419953Y-112703524D01*
X79436608Y-112717192D01*
X79450276Y-112733847D01*
X79460429Y-112752843D01*
X79466684Y-112773462D01*
X79469400Y-112801040D01*
X79469400Y-113309760D01*
X79466684Y-113337338D01*
X79460429Y-113357957D01*
X79450276Y-113376953D01*
X79436608Y-113393608D01*
X79419953Y-113407276D01*
X79400957Y-113417429D01*
X79380338Y-113423684D01*
X79352760Y-113426400D01*
X78894040Y-113426400D01*
X78866462Y-113423684D01*
X78845843Y-113417429D01*
X78826847Y-113407276D01*
X78810192Y-113393608D01*
X78796524Y-113376953D01*
X78786371Y-113357957D01*
X78780116Y-113337338D01*
X78777400Y-113309760D01*
X78777400Y-112801040D01*
X78780116Y-112773462D01*
X78786371Y-112752843D01*
X78796524Y-112733847D01*
X78810192Y-112717192D01*
X78826847Y-112703524D01*
X78845843Y-112693371D01*
X78866462Y-112687116D01*
X78894040Y-112684400D01*
X79352760Y-112684400D01*
X79380338Y-112687116D01*
G37*
G36*
X103488166Y-111912299D02*
G01*
X103620288Y-111967026D01*
X103620290Y-111967027D01*
X103739198Y-112046479D01*
X103840321Y-112147602D01*
X103840322Y-112147604D01*
X103919774Y-112266512D01*
X103974501Y-112398634D01*
X104002400Y-112538894D01*
X104002400Y-112681906D01*
X103974501Y-112822166D01*
X103919774Y-112954288D01*
X103919773Y-112954290D01*
X103840321Y-113073198D01*
X103739198Y-113174321D01*
X103620290Y-113253773D01*
X103620289Y-113253774D01*
X103620288Y-113253774D01*
X103488166Y-113308501D01*
X103347906Y-113336400D01*
X103204894Y-113336400D01*
X103064634Y-113308501D01*
X102932512Y-113253774D01*
X102932511Y-113253774D01*
X102932510Y-113253773D01*
X102813602Y-113174321D01*
X102712479Y-113073198D01*
X102633027Y-112954290D01*
X102633026Y-112954288D01*
X102578299Y-112822166D01*
X102550400Y-112681906D01*
X102550400Y-112538894D01*
X102578299Y-112398634D01*
X102633026Y-112266512D01*
X102712478Y-112147604D01*
X102712479Y-112147602D01*
X102813602Y-112046479D01*
X102932510Y-111967027D01*
X102932512Y-111967026D01*
X103064634Y-111912299D01*
X103204894Y-111884400D01*
X103347906Y-111884400D01*
X103488166Y-111912299D01*
G37*
G36*
X91064042Y-109846781D02*
G01*
X91209814Y-109907162D01*
X91209816Y-109907163D01*
X91341008Y-109994822D01*
X91452578Y-110106392D01*
X91540237Y-110237584D01*
X91540238Y-110237586D01*
X91600619Y-110383358D01*
X91631400Y-110538107D01*
X91631400Y-110695893D01*
X91600619Y-110850642D01*
X91557687Y-110954288D01*
X91540237Y-110996416D01*
X91452578Y-111127608D01*
X91341008Y-111239178D01*
X91209816Y-111326837D01*
X91209815Y-111326838D01*
X91209814Y-111326838D01*
X91064042Y-111387219D01*
X90909293Y-111418000D01*
X90751507Y-111418000D01*
X90596758Y-111387219D01*
X90450986Y-111326838D01*
X90450985Y-111326838D01*
X90450984Y-111326837D01*
X90319792Y-111239178D01*
X90208222Y-111127608D01*
X90120563Y-110996416D01*
X90103113Y-110954288D01*
X90060181Y-110850642D01*
X90029400Y-110695893D01*
X90029400Y-110538107D01*
X90060181Y-110383358D01*
X90120562Y-110237586D01*
X90120563Y-110237584D01*
X90208222Y-110106392D01*
X90319792Y-109994822D01*
X90450984Y-109907163D01*
X90450986Y-109907162D01*
X90596758Y-109846781D01*
X90751507Y-109816000D01*
X90909293Y-109816000D01*
X91064042Y-109846781D01*
G37*
G36*
X95944042Y-109846781D02*
G01*
X96089814Y-109907162D01*
X96089816Y-109907163D01*
X96221008Y-109994822D01*
X96332578Y-110106392D01*
X96420237Y-110237584D01*
X96420238Y-110237586D01*
X96480619Y-110383358D01*
X96511400Y-110538107D01*
X96511400Y-110695893D01*
X96480619Y-110850642D01*
X96437687Y-110954288D01*
X96420237Y-110996416D01*
X96332578Y-111127608D01*
X96221008Y-111239178D01*
X96089816Y-111326837D01*
X96089815Y-111326838D01*
X96089814Y-111326838D01*
X95944042Y-111387219D01*
X95789293Y-111418000D01*
X95631507Y-111418000D01*
X95476758Y-111387219D01*
X95330986Y-111326838D01*
X95330985Y-111326838D01*
X95330984Y-111326837D01*
X95199792Y-111239178D01*
X95088222Y-111127608D01*
X95000563Y-110996416D01*
X94983113Y-110954288D01*
X94940181Y-110850642D01*
X94909400Y-110695893D01*
X94909400Y-110538107D01*
X94940181Y-110383358D01*
X95000562Y-110237586D01*
X95000563Y-110237584D01*
X95088222Y-110106392D01*
X95199792Y-109994822D01*
X95330984Y-109907163D01*
X95330986Y-109907162D01*
X95476758Y-109846781D01*
X95631507Y-109816000D01*
X95789293Y-109816000D01*
X95944042Y-109846781D01*
G37*
G36*
X103488166Y-109912299D02*
G01*
X103620288Y-109967026D01*
X103620290Y-109967027D01*
X103739198Y-110046479D01*
X103840321Y-110147602D01*
X103919773Y-110266510D01*
X103919774Y-110266512D01*
X103974501Y-110398634D01*
X104002400Y-110538894D01*
X104002400Y-110681906D01*
X103974501Y-110822166D01*
X103962705Y-110850643D01*
X103919773Y-110954290D01*
X103840321Y-111073198D01*
X103739198Y-111174321D01*
X103620290Y-111253773D01*
X103620289Y-111253774D01*
X103620288Y-111253774D01*
X103488166Y-111308501D01*
X103347906Y-111336400D01*
X103204894Y-111336400D01*
X103064634Y-111308501D01*
X102932512Y-111253774D01*
X102932511Y-111253774D01*
X102932510Y-111253773D01*
X102813602Y-111174321D01*
X102712479Y-111073198D01*
X102633027Y-110954290D01*
X102590095Y-110850643D01*
X102578299Y-110822166D01*
X102550400Y-110681906D01*
X102550400Y-110538894D01*
X102578299Y-110398634D01*
X102633026Y-110266512D01*
X102633027Y-110266510D01*
X102712479Y-110147602D01*
X102813602Y-110046479D01*
X102932510Y-109967027D01*
X102932512Y-109967026D01*
X103064634Y-109912299D01*
X103204894Y-109884400D01*
X103347906Y-109884400D01*
X103488166Y-109912299D01*
G37*
G36*
X104002400Y-109336400D02*
G01*
X102550400Y-109336400D01*
X102550400Y-107884400D01*
X104002400Y-107884400D01*
X104002400Y-109336400D01*
G37*
G36*
X91874338Y-106036716D02*
G01*
X91894957Y-106042971D01*
X91913953Y-106053124D01*
X91930608Y-106066792D01*
X91944276Y-106083447D01*
X91954429Y-106102443D01*
X91960684Y-106123062D01*
X91963400Y-106150640D01*
X91963400Y-106609360D01*
X91960684Y-106636938D01*
X91954429Y-106657557D01*
X91944276Y-106676553D01*
X91930608Y-106693208D01*
X91913953Y-106706876D01*
X91894957Y-106717029D01*
X91874338Y-106723284D01*
X91846760Y-106726000D01*
X91338040Y-106726000D01*
X91310462Y-106723284D01*
X91289843Y-106717029D01*
X91270847Y-106706876D01*
X91254192Y-106693208D01*
X91240524Y-106676553D01*
X91230371Y-106657557D01*
X91224116Y-106636938D01*
X91221400Y-106609360D01*
X91221400Y-106150640D01*
X91224116Y-106123062D01*
X91230371Y-106102443D01*
X91240524Y-106083447D01*
X91254192Y-106066792D01*
X91270847Y-106053124D01*
X91289843Y-106042971D01*
X91310462Y-106036716D01*
X91338040Y-106034000D01*
X91846760Y-106034000D01*
X91874338Y-106036716D01*
G37*
G36*
X94414338Y-106036716D02*
G01*
X94434957Y-106042971D01*
X94453953Y-106053124D01*
X94470608Y-106066792D01*
X94484276Y-106083447D01*
X94494429Y-106102443D01*
X94500684Y-106123062D01*
X94503400Y-106150640D01*
X94503400Y-106609360D01*
X94500684Y-106636938D01*
X94494429Y-106657557D01*
X94484276Y-106676553D01*
X94470608Y-106693208D01*
X94453953Y-106706876D01*
X94434957Y-106717029D01*
X94414338Y-106723284D01*
X94386760Y-106726000D01*
X93878040Y-106726000D01*
X93850462Y-106723284D01*
X93829843Y-106717029D01*
X93810847Y-106706876D01*
X93794192Y-106693208D01*
X93780524Y-106676553D01*
X93770371Y-106657557D01*
X93764116Y-106636938D01*
X93761400Y-106609360D01*
X93761400Y-106150640D01*
X93764116Y-106123062D01*
X93770371Y-106102443D01*
X93780524Y-106083447D01*
X93794192Y-106066792D01*
X93810847Y-106053124D01*
X93829843Y-106042971D01*
X93850462Y-106036716D01*
X93878040Y-106034000D01*
X94386760Y-106034000D01*
X94414338Y-106036716D01*
G37*
G36*
X94414338Y-105066716D02*
G01*
X94434957Y-105072971D01*
X94453953Y-105083124D01*
X94470608Y-105096792D01*
X94484276Y-105113447D01*
X94494429Y-105132443D01*
X94500684Y-105153062D01*
X94503400Y-105180640D01*
X94503400Y-105639360D01*
X94500684Y-105666938D01*
X94494429Y-105687557D01*
X94484276Y-105706553D01*
X94470608Y-105723208D01*
X94453953Y-105736876D01*
X94434957Y-105747029D01*
X94414338Y-105753284D01*
X94386760Y-105756000D01*
X93878040Y-105756000D01*
X93850462Y-105753284D01*
X93829843Y-105747029D01*
X93810847Y-105736876D01*
X93794192Y-105723208D01*
X93780524Y-105706553D01*
X93770371Y-105687557D01*
X93764116Y-105666938D01*
X93761400Y-105639360D01*
X93761400Y-105180640D01*
X93764116Y-105153062D01*
X93770371Y-105132443D01*
X93780524Y-105113447D01*
X93794192Y-105096792D01*
X93810847Y-105083124D01*
X93829843Y-105072971D01*
X93850462Y-105066716D01*
X93878040Y-105064000D01*
X94386760Y-105064000D01*
X94414338Y-105066716D01*
G37*
G36*
X91874338Y-105066716D02*
G01*
X91894957Y-105072971D01*
X91913953Y-105083124D01*
X91930608Y-105096792D01*
X91944276Y-105113447D01*
X91954429Y-105132443D01*
X91960684Y-105153062D01*
X91963400Y-105180640D01*
X91963400Y-105639360D01*
X91960684Y-105666938D01*
X91954429Y-105687557D01*
X91944276Y-105706553D01*
X91930608Y-105723208D01*
X91913953Y-105736876D01*
X91894957Y-105747029D01*
X91874338Y-105753284D01*
X91846760Y-105756000D01*
X91338040Y-105756000D01*
X91310462Y-105753284D01*
X91289843Y-105747029D01*
X91270847Y-105736876D01*
X91254192Y-105723208D01*
X91240524Y-105706553D01*
X91230371Y-105687557D01*
X91224116Y-105666938D01*
X91221400Y-105639360D01*
X91221400Y-105180640D01*
X91224116Y-105153062D01*
X91230371Y-105132443D01*
X91240524Y-105113447D01*
X91254192Y-105096792D01*
X91270847Y-105083124D01*
X91289843Y-105072971D01*
X91310462Y-105066716D01*
X91338040Y-105064000D01*
X91846760Y-105064000D01*
X91874338Y-105066716D01*
G37*
G36*
X96573338Y-101640116D02*
G01*
X96593957Y-101646371D01*
X96612953Y-101656524D01*
X96629608Y-101670192D01*
X96643276Y-101686847D01*
X96653429Y-101705843D01*
X96659684Y-101726462D01*
X96662400Y-101754040D01*
X96662400Y-102212760D01*
X96659684Y-102240338D01*
X96653429Y-102260957D01*
X96643276Y-102279953D01*
X96629608Y-102296608D01*
X96612953Y-102310276D01*
X96593957Y-102320429D01*
X96573338Y-102326684D01*
X96545760Y-102329400D01*
X96037040Y-102329400D01*
X96009462Y-102326684D01*
X95988843Y-102320429D01*
X95969847Y-102310276D01*
X95953192Y-102296608D01*
X95939524Y-102279953D01*
X95929371Y-102260957D01*
X95923116Y-102240338D01*
X95920400Y-102212760D01*
X95920400Y-101754040D01*
X95923116Y-101726462D01*
X95929371Y-101705843D01*
X95939524Y-101686847D01*
X95953192Y-101670192D01*
X95969847Y-101656524D01*
X95988843Y-101646371D01*
X96009462Y-101640116D01*
X96037040Y-101637400D01*
X96545760Y-101637400D01*
X96573338Y-101640116D01*
G37*
G36*
X96573338Y-100670116D02*
G01*
X96593957Y-100676371D01*
X96612953Y-100686524D01*
X96629608Y-100700192D01*
X96643276Y-100716847D01*
X96653429Y-100735843D01*
X96659684Y-100756462D01*
X96662400Y-100784040D01*
X96662400Y-101242760D01*
X96659684Y-101270338D01*
X96653429Y-101290957D01*
X96643276Y-101309953D01*
X96629608Y-101326608D01*
X96612953Y-101340276D01*
X96593957Y-101350429D01*
X96573338Y-101356684D01*
X96545760Y-101359400D01*
X96037040Y-101359400D01*
X96009462Y-101356684D01*
X95988843Y-101350429D01*
X95969847Y-101340276D01*
X95953192Y-101326608D01*
X95939524Y-101309953D01*
X95929371Y-101290957D01*
X95923116Y-101270338D01*
X95920400Y-101242760D01*
X95920400Y-100784040D01*
X95923116Y-100756462D01*
X95929371Y-100735843D01*
X95939524Y-100716847D01*
X95953192Y-100700192D01*
X95969847Y-100686524D01*
X95988843Y-100676371D01*
X96009462Y-100670116D01*
X96037040Y-100667400D01*
X96545760Y-100667400D01*
X96573338Y-100670116D01*
G37*
G36*
X100465321Y-100181174D02*
G01*
X100565595Y-100222709D01*
X100565596Y-100222710D01*
X100655842Y-100283010D01*
X100732590Y-100359758D01*
X100732591Y-100359760D01*
X100792891Y-100450005D01*
X100834426Y-100550279D01*
X100855600Y-100656730D01*
X100855600Y-100765270D01*
X100834426Y-100871721D01*
X100792891Y-100971995D01*
X100792890Y-100971996D01*
X100732590Y-101062242D01*
X100655842Y-101138990D01*
X100610412Y-101169345D01*
X100565595Y-101199291D01*
X100465321Y-101240826D01*
X100358870Y-101262000D01*
X100250330Y-101262000D01*
X100143879Y-101240826D01*
X100043605Y-101199291D01*
X99998788Y-101169345D01*
X99953358Y-101138990D01*
X99876610Y-101062242D01*
X99816310Y-100971996D01*
X99816309Y-100971995D01*
X99774774Y-100871721D01*
X99753600Y-100765270D01*
X99753600Y-100656730D01*
X99774774Y-100550279D01*
X99816309Y-100450005D01*
X99876609Y-100359760D01*
X99876610Y-100359758D01*
X99953358Y-100283010D01*
X100043604Y-100222710D01*
X100043605Y-100222709D01*
X100143879Y-100181174D01*
X100250330Y-100160000D01*
X100358870Y-100160000D01*
X100465321Y-100181174D01*
G37*
G36*
X76386121Y-99038174D02*
G01*
X76486395Y-99079709D01*
X76486396Y-99079710D01*
X76576642Y-99140010D01*
X76653390Y-99216758D01*
X76653391Y-99216760D01*
X76713691Y-99307005D01*
X76755226Y-99407279D01*
X76776400Y-99513730D01*
X76776400Y-99622270D01*
X76755226Y-99728721D01*
X76713691Y-99828995D01*
X76713690Y-99828996D01*
X76653390Y-99919242D01*
X76576642Y-99995990D01*
X76536283Y-100022957D01*
X76486395Y-100056291D01*
X76386121Y-100097826D01*
X76279670Y-100119000D01*
X76171130Y-100119000D01*
X76064679Y-100097826D01*
X75964405Y-100056291D01*
X75914517Y-100022957D01*
X75874158Y-99995990D01*
X75797410Y-99919242D01*
X75737110Y-99828996D01*
X75737109Y-99828995D01*
X75695574Y-99728721D01*
X75674400Y-99622270D01*
X75674400Y-99513730D01*
X75695574Y-99407279D01*
X75737109Y-99307005D01*
X75797409Y-99216760D01*
X75797410Y-99216758D01*
X75874158Y-99140010D01*
X75964404Y-99079710D01*
X75964405Y-99079709D01*
X76064679Y-99038174D01*
X76171130Y-99017000D01*
X76279670Y-99017000D01*
X76386121Y-99038174D01*
G37*
G36*
X91745338Y-99352116D02*
G01*
X91765957Y-99358371D01*
X91784953Y-99368524D01*
X91801608Y-99382192D01*
X91815276Y-99398847D01*
X91825429Y-99417843D01*
X91831684Y-99438462D01*
X91834400Y-99466040D01*
X91834400Y-99974760D01*
X91831684Y-100002338D01*
X91825429Y-100022957D01*
X91815276Y-100041953D01*
X91801608Y-100058608D01*
X91784953Y-100072276D01*
X91765957Y-100082429D01*
X91745338Y-100088684D01*
X91717760Y-100091400D01*
X91259040Y-100091400D01*
X91231462Y-100088684D01*
X91210843Y-100082429D01*
X91191847Y-100072276D01*
X91175192Y-100058608D01*
X91161524Y-100041953D01*
X91151371Y-100022957D01*
X91145116Y-100002338D01*
X91142400Y-99974760D01*
X91142400Y-99466040D01*
X91145116Y-99438462D01*
X91151371Y-99417843D01*
X91161524Y-99398847D01*
X91175192Y-99382192D01*
X91191847Y-99368524D01*
X91210843Y-99358371D01*
X91231462Y-99352116D01*
X91259040Y-99349400D01*
X91717760Y-99349400D01*
X91745338Y-99352116D01*
G37*
G36*
X92715338Y-99352116D02*
G01*
X92735957Y-99358371D01*
X92754953Y-99368524D01*
X92771608Y-99382192D01*
X92785276Y-99398847D01*
X92795429Y-99417843D01*
X92801684Y-99438462D01*
X92804400Y-99466040D01*
X92804400Y-99974760D01*
X92801684Y-100002338D01*
X92795429Y-100022957D01*
X92785276Y-100041953D01*
X92771608Y-100058608D01*
X92754953Y-100072276D01*
X92735957Y-100082429D01*
X92715338Y-100088684D01*
X92687760Y-100091400D01*
X92229040Y-100091400D01*
X92201462Y-100088684D01*
X92180843Y-100082429D01*
X92161847Y-100072276D01*
X92145192Y-100058608D01*
X92131524Y-100041953D01*
X92121371Y-100022957D01*
X92115116Y-100002338D01*
X92112400Y-99974760D01*
X92112400Y-99466040D01*
X92115116Y-99438462D01*
X92121371Y-99417843D01*
X92131524Y-99398847D01*
X92145192Y-99382192D01*
X92161847Y-99368524D01*
X92180843Y-99358371D01*
X92201462Y-99352116D01*
X92229040Y-99349400D01*
X92687760Y-99349400D01*
X92715338Y-99352116D01*
G37*
G36*
X89873521Y-98631774D02*
G01*
X89973795Y-98673309D01*
X89973796Y-98673310D01*
X90064042Y-98733610D01*
X90140790Y-98810358D01*
X90140791Y-98810360D01*
X90201091Y-98900605D01*
X90242626Y-99000879D01*
X90263800Y-99107330D01*
X90263800Y-99215870D01*
X90242626Y-99322321D01*
X90201091Y-99422595D01*
X90190489Y-99438462D01*
X90140790Y-99512842D01*
X90064042Y-99589590D01*
X90018612Y-99619945D01*
X89973795Y-99649891D01*
X89873521Y-99691426D01*
X89767070Y-99712600D01*
X89658530Y-99712600D01*
X89552079Y-99691426D01*
X89451805Y-99649891D01*
X89406988Y-99619945D01*
X89361558Y-99589590D01*
X89284810Y-99512842D01*
X89235111Y-99438462D01*
X89224509Y-99422595D01*
X89182974Y-99322321D01*
X89161800Y-99215870D01*
X89161800Y-99107330D01*
X89182974Y-99000879D01*
X89224509Y-98900605D01*
X89284809Y-98810360D01*
X89284810Y-98810358D01*
X89361558Y-98733610D01*
X89451804Y-98673310D01*
X89451805Y-98673309D01*
X89552079Y-98631774D01*
X89658530Y-98610600D01*
X89767070Y-98610600D01*
X89873521Y-98631774D01*
G37*
G36*
X100897121Y-98631774D02*
G01*
X100997395Y-98673309D01*
X100997396Y-98673310D01*
X101087642Y-98733610D01*
X101164390Y-98810358D01*
X101164391Y-98810360D01*
X101224691Y-98900605D01*
X101266226Y-99000879D01*
X101287400Y-99107330D01*
X101287400Y-99215870D01*
X101266226Y-99322321D01*
X101224691Y-99422595D01*
X101214089Y-99438462D01*
X101164390Y-99512842D01*
X101087642Y-99589590D01*
X101042212Y-99619945D01*
X100997395Y-99649891D01*
X100897121Y-99691426D01*
X100790670Y-99712600D01*
X100682130Y-99712600D01*
X100575679Y-99691426D01*
X100475405Y-99649891D01*
X100430588Y-99619945D01*
X100385158Y-99589590D01*
X100308410Y-99512842D01*
X100258711Y-99438462D01*
X100248109Y-99422595D01*
X100206574Y-99322321D01*
X100185400Y-99215870D01*
X100185400Y-99107330D01*
X100206574Y-99000879D01*
X100248109Y-98900605D01*
X100308409Y-98810360D01*
X100308410Y-98810358D01*
X100385158Y-98733610D01*
X100475404Y-98673310D01*
X100475405Y-98673309D01*
X100575679Y-98631774D01*
X100682130Y-98610600D01*
X100790670Y-98610600D01*
X100897121Y-98631774D01*
G37*
G36*
X88143338Y-98844116D02*
G01*
X88163957Y-98850371D01*
X88182953Y-98860524D01*
X88199608Y-98874192D01*
X88213276Y-98890847D01*
X88223429Y-98909843D01*
X88229684Y-98930462D01*
X88232400Y-98958040D01*
X88232400Y-99466760D01*
X88229684Y-99494338D01*
X88223429Y-99514957D01*
X88213276Y-99533953D01*
X88199608Y-99550608D01*
X88182953Y-99564276D01*
X88163957Y-99574429D01*
X88143338Y-99580684D01*
X88115760Y-99583400D01*
X87657040Y-99583400D01*
X87629462Y-99580684D01*
X87608843Y-99574429D01*
X87589847Y-99564276D01*
X87573192Y-99550608D01*
X87559524Y-99533953D01*
X87549371Y-99514957D01*
X87543116Y-99494338D01*
X87540400Y-99466760D01*
X87540400Y-98958040D01*
X87543116Y-98930462D01*
X87549371Y-98909843D01*
X87559524Y-98890847D01*
X87573192Y-98874192D01*
X87589847Y-98860524D01*
X87608843Y-98850371D01*
X87629462Y-98844116D01*
X87657040Y-98841400D01*
X88115760Y-98841400D01*
X88143338Y-98844116D01*
G37*
G36*
X87173338Y-98844116D02*
G01*
X87193957Y-98850371D01*
X87212953Y-98860524D01*
X87229608Y-98874192D01*
X87243276Y-98890847D01*
X87253429Y-98909843D01*
X87259684Y-98930462D01*
X87262400Y-98958040D01*
X87262400Y-99466760D01*
X87259684Y-99494338D01*
X87253429Y-99514957D01*
X87243276Y-99533953D01*
X87229608Y-99550608D01*
X87212953Y-99564276D01*
X87193957Y-99574429D01*
X87173338Y-99580684D01*
X87145760Y-99583400D01*
X86687040Y-99583400D01*
X86659462Y-99580684D01*
X86638843Y-99574429D01*
X86619847Y-99564276D01*
X86603192Y-99550608D01*
X86589524Y-99533953D01*
X86579371Y-99514957D01*
X86573116Y-99494338D01*
X86570400Y-99466760D01*
X86570400Y-98958040D01*
X86573116Y-98930462D01*
X86579371Y-98909843D01*
X86589524Y-98890847D01*
X86603192Y-98874192D01*
X86619847Y-98860524D01*
X86638843Y-98850371D01*
X86659462Y-98844116D01*
X86687040Y-98841400D01*
X87145760Y-98841400D01*
X87173338Y-98844116D01*
G37*
G36*
X95578338Y-98844116D02*
G01*
X95598957Y-98850371D01*
X95617953Y-98860524D01*
X95634608Y-98874192D01*
X95648276Y-98890847D01*
X95658429Y-98909843D01*
X95664684Y-98930462D01*
X95667400Y-98958040D01*
X95667400Y-99466760D01*
X95664684Y-99494338D01*
X95658429Y-99514957D01*
X95648276Y-99533953D01*
X95634608Y-99550608D01*
X95617953Y-99564276D01*
X95598957Y-99574429D01*
X95578338Y-99580684D01*
X95550760Y-99583400D01*
X95092040Y-99583400D01*
X95064462Y-99580684D01*
X95043843Y-99574429D01*
X95024847Y-99564276D01*
X95008192Y-99550608D01*
X94994524Y-99533953D01*
X94984371Y-99514957D01*
X94978116Y-99494338D01*
X94975400Y-99466760D01*
X94975400Y-98958040D01*
X94978116Y-98930462D01*
X94984371Y-98909843D01*
X94994524Y-98890847D01*
X95008192Y-98874192D01*
X95024847Y-98860524D01*
X95043843Y-98850371D01*
X95064462Y-98844116D01*
X95092040Y-98841400D01*
X95550760Y-98841400D01*
X95578338Y-98844116D01*
G37*
G36*
X96548338Y-98844116D02*
G01*
X96568957Y-98850371D01*
X96587953Y-98860524D01*
X96604608Y-98874192D01*
X96618276Y-98890847D01*
X96628429Y-98909843D01*
X96634684Y-98930462D01*
X96637400Y-98958040D01*
X96637400Y-99466760D01*
X96634684Y-99494338D01*
X96628429Y-99514957D01*
X96618276Y-99533953D01*
X96604608Y-99550608D01*
X96587953Y-99564276D01*
X96568957Y-99574429D01*
X96548338Y-99580684D01*
X96520760Y-99583400D01*
X96062040Y-99583400D01*
X96034462Y-99580684D01*
X96013843Y-99574429D01*
X95994847Y-99564276D01*
X95978192Y-99550608D01*
X95964524Y-99533953D01*
X95954371Y-99514957D01*
X95948116Y-99494338D01*
X95945400Y-99466760D01*
X95945400Y-98958040D01*
X95948116Y-98930462D01*
X95954371Y-98909843D01*
X95964524Y-98890847D01*
X95978192Y-98874192D01*
X95994847Y-98860524D01*
X96013843Y-98850371D01*
X96034462Y-98844116D01*
X96062040Y-98841400D01*
X96520760Y-98841400D01*
X96548338Y-98844116D01*
G37*
G36*
X92715338Y-98336116D02*
G01*
X92735957Y-98342371D01*
X92754953Y-98352524D01*
X92771608Y-98366192D01*
X92785276Y-98382847D01*
X92795429Y-98401843D01*
X92801684Y-98422462D01*
X92804400Y-98450040D01*
X92804400Y-98958760D01*
X92801684Y-98986338D01*
X92795429Y-99006957D01*
X92785276Y-99025953D01*
X92771608Y-99042608D01*
X92754953Y-99056276D01*
X92735957Y-99066429D01*
X92715338Y-99072684D01*
X92687760Y-99075400D01*
X92229040Y-99075400D01*
X92201462Y-99072684D01*
X92180843Y-99066429D01*
X92161847Y-99056276D01*
X92145192Y-99042608D01*
X92131524Y-99025953D01*
X92121371Y-99006957D01*
X92115116Y-98986338D01*
X92112400Y-98958760D01*
X92112400Y-98450040D01*
X92115116Y-98422462D01*
X92121371Y-98401843D01*
X92131524Y-98382847D01*
X92145192Y-98366192D01*
X92161847Y-98352524D01*
X92180843Y-98342371D01*
X92201462Y-98336116D01*
X92229040Y-98333400D01*
X92687760Y-98333400D01*
X92715338Y-98336116D01*
G37*
G36*
X91745338Y-98336116D02*
G01*
X91765957Y-98342371D01*
X91784953Y-98352524D01*
X91801608Y-98366192D01*
X91815276Y-98382847D01*
X91825429Y-98401843D01*
X91831684Y-98422462D01*
X91834400Y-98450040D01*
X91834400Y-98958760D01*
X91831684Y-98986338D01*
X91825429Y-99006957D01*
X91815276Y-99025953D01*
X91801608Y-99042608D01*
X91784953Y-99056276D01*
X91765957Y-99066429D01*
X91745338Y-99072684D01*
X91717760Y-99075400D01*
X91259040Y-99075400D01*
X91231462Y-99072684D01*
X91210843Y-99066429D01*
X91191847Y-99056276D01*
X91175192Y-99042608D01*
X91161524Y-99025953D01*
X91151371Y-99006957D01*
X91145116Y-98986338D01*
X91142400Y-98958760D01*
X91142400Y-98450040D01*
X91145116Y-98422462D01*
X91151371Y-98401843D01*
X91161524Y-98382847D01*
X91175192Y-98366192D01*
X91191847Y-98352524D01*
X91210843Y-98342371D01*
X91231462Y-98336116D01*
X91259040Y-98333400D01*
X91717760Y-98333400D01*
X91745338Y-98336116D01*
G37*
G36*
X104827766Y-93535899D02*
G01*
X104959888Y-93590626D01*
X104959890Y-93590627D01*
X105078798Y-93670079D01*
X105179921Y-93771202D01*
X105238379Y-93858691D01*
X105259374Y-93890112D01*
X105314101Y-94022234D01*
X105342000Y-94162494D01*
X105342000Y-94305506D01*
X105314101Y-94445766D01*
X105259374Y-94577888D01*
X105259373Y-94577890D01*
X105179921Y-94696798D01*
X105078798Y-94797921D01*
X104959890Y-94877373D01*
X104959889Y-94877374D01*
X104959888Y-94877374D01*
X104827766Y-94932101D01*
X104687506Y-94960000D01*
X104544494Y-94960000D01*
X104404234Y-94932101D01*
X104272112Y-94877374D01*
X104272111Y-94877374D01*
X104272110Y-94877373D01*
X104153202Y-94797921D01*
X104052079Y-94696798D01*
X103972627Y-94577890D01*
X103972626Y-94577888D01*
X103917899Y-94445766D01*
X103890000Y-94305506D01*
X103890000Y-94162494D01*
X103917899Y-94022234D01*
X103972626Y-93890112D01*
X103993621Y-93858691D01*
X104052079Y-93771202D01*
X104153202Y-93670079D01*
X104272110Y-93590627D01*
X104272112Y-93590626D01*
X104404234Y-93535899D01*
X104544494Y-93508000D01*
X104687506Y-93508000D01*
X104827766Y-93535899D01*
G37*
G36*
X103342000Y-94960000D02*
G01*
X101890000Y-94960000D01*
X101890000Y-93508000D01*
X103342000Y-93508000D01*
X103342000Y-94960000D01*
G37*
G36*
X88628921Y-92840574D02*
G01*
X88729195Y-92882109D01*
X88729196Y-92882110D01*
X88819442Y-92942410D01*
X88896190Y-93019158D01*
X88896191Y-93019160D01*
X88956491Y-93109405D01*
X88998026Y-93209679D01*
X89019200Y-93316130D01*
X89019200Y-93424670D01*
X88998026Y-93531121D01*
X88956491Y-93631395D01*
X88956490Y-93631396D01*
X88896190Y-93721642D01*
X88819442Y-93798390D01*
X88791476Y-93817076D01*
X88729195Y-93858691D01*
X88628921Y-93900226D01*
X88522470Y-93921400D01*
X88413930Y-93921400D01*
X88307479Y-93900226D01*
X88207205Y-93858691D01*
X88144924Y-93817076D01*
X88116958Y-93798390D01*
X88040210Y-93721642D01*
X87979910Y-93631396D01*
X87979909Y-93631395D01*
X87938374Y-93531121D01*
X87917200Y-93424670D01*
X87917200Y-93316130D01*
X87938374Y-93209679D01*
X87979909Y-93109405D01*
X88040209Y-93019160D01*
X88040210Y-93019158D01*
X88116958Y-92942410D01*
X88207204Y-92882110D01*
X88207205Y-92882109D01*
X88307479Y-92840574D01*
X88413930Y-92819400D01*
X88522470Y-92819400D01*
X88628921Y-92840574D01*
G37*
G36*
X96446338Y-93131116D02*
G01*
X96466957Y-93137371D01*
X96485953Y-93147524D01*
X96502608Y-93161192D01*
X96516276Y-93177847D01*
X96526429Y-93196843D01*
X96532684Y-93217462D01*
X96535400Y-93245040D01*
X96535400Y-93703760D01*
X96532684Y-93731338D01*
X96526429Y-93751957D01*
X96516276Y-93770953D01*
X96502608Y-93787608D01*
X96485953Y-93801276D01*
X96466957Y-93811429D01*
X96446338Y-93817684D01*
X96418760Y-93820400D01*
X95910040Y-93820400D01*
X95882462Y-93817684D01*
X95861843Y-93811429D01*
X95842847Y-93801276D01*
X95826192Y-93787608D01*
X95812524Y-93770953D01*
X95802371Y-93751957D01*
X95796116Y-93731338D01*
X95793400Y-93703760D01*
X95793400Y-93245040D01*
X95796116Y-93217462D01*
X95802371Y-93196843D01*
X95812524Y-93177847D01*
X95826192Y-93161192D01*
X95842847Y-93147524D01*
X95861843Y-93137371D01*
X95882462Y-93131116D01*
X95910040Y-93128400D01*
X96418760Y-93128400D01*
X96446338Y-93131116D01*
G37*
G36*
X93906338Y-93131116D02*
G01*
X93926957Y-93137371D01*
X93945953Y-93147524D01*
X93962608Y-93161192D01*
X93976276Y-93177847D01*
X93986429Y-93196843D01*
X93992684Y-93217462D01*
X93995400Y-93245040D01*
X93995400Y-93703760D01*
X93992684Y-93731338D01*
X93986429Y-93751957D01*
X93976276Y-93770953D01*
X93962608Y-93787608D01*
X93945953Y-93801276D01*
X93926957Y-93811429D01*
X93906338Y-93817684D01*
X93878760Y-93820400D01*
X93370040Y-93820400D01*
X93342462Y-93817684D01*
X93321843Y-93811429D01*
X93302847Y-93801276D01*
X93286192Y-93787608D01*
X93272524Y-93770953D01*
X93262371Y-93751957D01*
X93256116Y-93731338D01*
X93253400Y-93703760D01*
X93253400Y-93245040D01*
X93256116Y-93217462D01*
X93262371Y-93196843D01*
X93272524Y-93177847D01*
X93286192Y-93161192D01*
X93302847Y-93147524D01*
X93321843Y-93137371D01*
X93342462Y-93131116D01*
X93370040Y-93128400D01*
X93878760Y-93128400D01*
X93906338Y-93131116D01*
G37*
G36*
X92890338Y-93108116D02*
G01*
X92910957Y-93114371D01*
X92929953Y-93124524D01*
X92946608Y-93138192D01*
X92960276Y-93154847D01*
X92970429Y-93173843D01*
X92976684Y-93194462D01*
X92979400Y-93222040D01*
X92979400Y-93680760D01*
X92976684Y-93708338D01*
X92970429Y-93728957D01*
X92960276Y-93747953D01*
X92946608Y-93764608D01*
X92929953Y-93778276D01*
X92910957Y-93788429D01*
X92890338Y-93794684D01*
X92862760Y-93797400D01*
X92354040Y-93797400D01*
X92326462Y-93794684D01*
X92305843Y-93788429D01*
X92286847Y-93778276D01*
X92270192Y-93764608D01*
X92256524Y-93747953D01*
X92246371Y-93728957D01*
X92240116Y-93708338D01*
X92237400Y-93680760D01*
X92237400Y-93222040D01*
X92240116Y-93194462D01*
X92246371Y-93173843D01*
X92256524Y-93154847D01*
X92270192Y-93138192D01*
X92286847Y-93124524D01*
X92305843Y-93114371D01*
X92326462Y-93108116D01*
X92354040Y-93105400D01*
X92862760Y-93105400D01*
X92890338Y-93108116D01*
G37*
G36*
X93906338Y-92161116D02*
G01*
X93926957Y-92167371D01*
X93945953Y-92177524D01*
X93962608Y-92191192D01*
X93976276Y-92207847D01*
X93986429Y-92226843D01*
X93992684Y-92247462D01*
X93995400Y-92275040D01*
X93995400Y-92733760D01*
X93992684Y-92761338D01*
X93986429Y-92781957D01*
X93976276Y-92800953D01*
X93962608Y-92817608D01*
X93945953Y-92831276D01*
X93926957Y-92841429D01*
X93906338Y-92847684D01*
X93878760Y-92850400D01*
X93370040Y-92850400D01*
X93342462Y-92847684D01*
X93321843Y-92841429D01*
X93302847Y-92831276D01*
X93286192Y-92817608D01*
X93272524Y-92800953D01*
X93262371Y-92781957D01*
X93256116Y-92761338D01*
X93253400Y-92733760D01*
X93253400Y-92275040D01*
X93256116Y-92247462D01*
X93262371Y-92226843D01*
X93272524Y-92207847D01*
X93286192Y-92191192D01*
X93302847Y-92177524D01*
X93321843Y-92167371D01*
X93342462Y-92161116D01*
X93370040Y-92158400D01*
X93878760Y-92158400D01*
X93906338Y-92161116D01*
G37*
G36*
X96446338Y-92161116D02*
G01*
X96466957Y-92167371D01*
X96485953Y-92177524D01*
X96502608Y-92191192D01*
X96516276Y-92207847D01*
X96526429Y-92226843D01*
X96532684Y-92247462D01*
X96535400Y-92275040D01*
X96535400Y-92733760D01*
X96532684Y-92761338D01*
X96526429Y-92781957D01*
X96516276Y-92800953D01*
X96502608Y-92817608D01*
X96485953Y-92831276D01*
X96466957Y-92841429D01*
X96446338Y-92847684D01*
X96418760Y-92850400D01*
X95910040Y-92850400D01*
X95882462Y-92847684D01*
X95861843Y-92841429D01*
X95842847Y-92831276D01*
X95826192Y-92817608D01*
X95812524Y-92800953D01*
X95802371Y-92781957D01*
X95796116Y-92761338D01*
X95793400Y-92733760D01*
X95793400Y-92275040D01*
X95796116Y-92247462D01*
X95802371Y-92226843D01*
X95812524Y-92207847D01*
X95826192Y-92191192D01*
X95842847Y-92177524D01*
X95861843Y-92167371D01*
X95882462Y-92161116D01*
X95910040Y-92158400D01*
X96418760Y-92158400D01*
X96446338Y-92161116D01*
G37*
G36*
X92890338Y-92138116D02*
G01*
X92910957Y-92144371D01*
X92929953Y-92154524D01*
X92946608Y-92168192D01*
X92960276Y-92184847D01*
X92970429Y-92203843D01*
X92976684Y-92224462D01*
X92979400Y-92252040D01*
X92979400Y-92710760D01*
X92976684Y-92738338D01*
X92970429Y-92758957D01*
X92960276Y-92777953D01*
X92946608Y-92794608D01*
X92929953Y-92808276D01*
X92910957Y-92818429D01*
X92890338Y-92824684D01*
X92862760Y-92827400D01*
X92354040Y-92827400D01*
X92326462Y-92824684D01*
X92305843Y-92818429D01*
X92286847Y-92808276D01*
X92270192Y-92794608D01*
X92256524Y-92777953D01*
X92246371Y-92758957D01*
X92240116Y-92738338D01*
X92237400Y-92710760D01*
X92237400Y-92252040D01*
X92240116Y-92224462D01*
X92246371Y-92203843D01*
X92256524Y-92184847D01*
X92270192Y-92168192D01*
X92286847Y-92154524D01*
X92305843Y-92144371D01*
X92326462Y-92138116D01*
X92354040Y-92135400D01*
X92862760Y-92135400D01*
X92890338Y-92138116D01*
G37*
G36*
X83142521Y-85550774D02*
G01*
X83242795Y-85592309D01*
X83242796Y-85592310D01*
X83333042Y-85652610D01*
X83409790Y-85729358D01*
X83409791Y-85729360D01*
X83470091Y-85819605D01*
X83511626Y-85919879D01*
X83532800Y-86026330D01*
X83532800Y-86134870D01*
X83511626Y-86241321D01*
X83470091Y-86341595D01*
X83470090Y-86341596D01*
X83409790Y-86431842D01*
X83333042Y-86508590D01*
X83287612Y-86538945D01*
X83242795Y-86568891D01*
X83142521Y-86610426D01*
X83036070Y-86631600D01*
X82927530Y-86631600D01*
X82821079Y-86610426D01*
X82720805Y-86568891D01*
X82675988Y-86538945D01*
X82630558Y-86508590D01*
X82553810Y-86431842D01*
X82493510Y-86341596D01*
X82493509Y-86341595D01*
X82451974Y-86241321D01*
X82430800Y-86134870D01*
X82430800Y-86026330D01*
X82451974Y-85919879D01*
X82493509Y-85819605D01*
X82553809Y-85729360D01*
X82553810Y-85729358D01*
X82630558Y-85652610D01*
X82720804Y-85592310D01*
X82720805Y-85592309D01*
X82821079Y-85550774D01*
X82927530Y-85529600D01*
X83036070Y-85529600D01*
X83142521Y-85550774D01*
G37*
G36*
X73312721Y-81867774D02*
G01*
X73412995Y-81909309D01*
X73412996Y-81909310D01*
X73503242Y-81969610D01*
X73579990Y-82046358D01*
X73579991Y-82046360D01*
X73640291Y-82136605D01*
X73681826Y-82236879D01*
X73703000Y-82343330D01*
X73703000Y-82451870D01*
X73681826Y-82558321D01*
X73640291Y-82658595D01*
X73640290Y-82658596D01*
X73579990Y-82748842D01*
X73503242Y-82825590D01*
X73457812Y-82855945D01*
X73412995Y-82885891D01*
X73312721Y-82927426D01*
X73206270Y-82948600D01*
X73097730Y-82948600D01*
X72991279Y-82927426D01*
X72891005Y-82885891D01*
X72846188Y-82855945D01*
X72800758Y-82825590D01*
X72724010Y-82748842D01*
X72663710Y-82658596D01*
X72663709Y-82658595D01*
X72622174Y-82558321D01*
X72601000Y-82451870D01*
X72601000Y-82343330D01*
X72622174Y-82236879D01*
X72663709Y-82136605D01*
X72724009Y-82046360D01*
X72724010Y-82046358D01*
X72800758Y-81969610D01*
X72891004Y-81909310D01*
X72891005Y-81909309D01*
X72991279Y-81867774D01*
X73097730Y-81846600D01*
X73206270Y-81846600D01*
X73312721Y-81867774D01*
G37*
G36*
X90686321Y-81334374D02*
G01*
X90786595Y-81375909D01*
X90789920Y-81378131D01*
X90876842Y-81436210D01*
X90953590Y-81512958D01*
X90953591Y-81512960D01*
X91013891Y-81603205D01*
X91055426Y-81703479D01*
X91076600Y-81809930D01*
X91076600Y-81918470D01*
X91055426Y-82024921D01*
X91013891Y-82125195D01*
X91006267Y-82136605D01*
X90953590Y-82215442D01*
X90876842Y-82292190D01*
X90831412Y-82322545D01*
X90786595Y-82352491D01*
X90686321Y-82394026D01*
X90579870Y-82415200D01*
X90471330Y-82415200D01*
X90364879Y-82394026D01*
X90264605Y-82352491D01*
X90219788Y-82322545D01*
X90174358Y-82292190D01*
X90097610Y-82215442D01*
X90044933Y-82136605D01*
X90037309Y-82125195D01*
X89995774Y-82024921D01*
X89974600Y-81918470D01*
X89974600Y-81809930D01*
X89995774Y-81703479D01*
X90037309Y-81603205D01*
X90097609Y-81512960D01*
X90097610Y-81512958D01*
X90174358Y-81436210D01*
X90261280Y-81378131D01*
X90264605Y-81375909D01*
X90364879Y-81334374D01*
X90471330Y-81313200D01*
X90579870Y-81313200D01*
X90686321Y-81334374D01*
G37*
G36*
X89086121Y-81334374D02*
G01*
X89186395Y-81375909D01*
X89189720Y-81378131D01*
X89276642Y-81436210D01*
X89353390Y-81512958D01*
X89353391Y-81512960D01*
X89413691Y-81603205D01*
X89455226Y-81703479D01*
X89476400Y-81809930D01*
X89476400Y-81918470D01*
X89455226Y-82024921D01*
X89413691Y-82125195D01*
X89406067Y-82136605D01*
X89353390Y-82215442D01*
X89276642Y-82292190D01*
X89231212Y-82322545D01*
X89186395Y-82352491D01*
X89086121Y-82394026D01*
X88979670Y-82415200D01*
X88871130Y-82415200D01*
X88764679Y-82394026D01*
X88664405Y-82352491D01*
X88619588Y-82322545D01*
X88574158Y-82292190D01*
X88497410Y-82215442D01*
X88444733Y-82136605D01*
X88437109Y-82125195D01*
X88395574Y-82024921D01*
X88374400Y-81918470D01*
X88374400Y-81809930D01*
X88395574Y-81703479D01*
X88437109Y-81603205D01*
X88497409Y-81512960D01*
X88497410Y-81512958D01*
X88574158Y-81436210D01*
X88661080Y-81378131D01*
X88664405Y-81375909D01*
X88764679Y-81334374D01*
X88871130Y-81313200D01*
X88979670Y-81313200D01*
X89086121Y-81334374D01*
G37*
G36*
X72245921Y-80902574D02*
G01*
X72346195Y-80944109D01*
X72346196Y-80944110D01*
X72436442Y-81004410D01*
X72513190Y-81081158D01*
X72513191Y-81081160D01*
X72573491Y-81171405D01*
X72615026Y-81271679D01*
X72636200Y-81378130D01*
X72636200Y-81486670D01*
X72615026Y-81593121D01*
X72573491Y-81693395D01*
X72573490Y-81693396D01*
X72513190Y-81783642D01*
X72436442Y-81860390D01*
X72425391Y-81867774D01*
X72346195Y-81920691D01*
X72245921Y-81962226D01*
X72139470Y-81983400D01*
X72030930Y-81983400D01*
X71924479Y-81962226D01*
X71824205Y-81920691D01*
X71745009Y-81867774D01*
X71733958Y-81860390D01*
X71657210Y-81783642D01*
X71596910Y-81693396D01*
X71596909Y-81693395D01*
X71555374Y-81593121D01*
X71534200Y-81486670D01*
X71534200Y-81378130D01*
X71555374Y-81271679D01*
X71596909Y-81171405D01*
X71657209Y-81081160D01*
X71657210Y-81081158D01*
X71733958Y-81004410D01*
X71824204Y-80944110D01*
X71824205Y-80944109D01*
X71924479Y-80902574D01*
X72030930Y-80881400D01*
X72139470Y-80881400D01*
X72245921Y-80902574D01*
G37*
G36*
X82253521Y-79632574D02*
G01*
X82353795Y-79674109D01*
X82353796Y-79674110D01*
X82444042Y-79734410D01*
X82520790Y-79811158D01*
X82520791Y-79811160D01*
X82581091Y-79901405D01*
X82622626Y-80001679D01*
X82643800Y-80108130D01*
X82643800Y-80216670D01*
X82622626Y-80323121D01*
X82581091Y-80423395D01*
X82581090Y-80423396D01*
X82520790Y-80513642D01*
X82444042Y-80590390D01*
X82398612Y-80620745D01*
X82353795Y-80650691D01*
X82253521Y-80692226D01*
X82147070Y-80713400D01*
X82038530Y-80713400D01*
X81932079Y-80692226D01*
X81831805Y-80650691D01*
X81786988Y-80620745D01*
X81741558Y-80590390D01*
X81664810Y-80513642D01*
X81604510Y-80423396D01*
X81604509Y-80423395D01*
X81562974Y-80323121D01*
X81541800Y-80216670D01*
X81541800Y-80108130D01*
X81562974Y-80001679D01*
X81604509Y-79901405D01*
X81664809Y-79811160D01*
X81664810Y-79811158D01*
X81741558Y-79734410D01*
X81831804Y-79674110D01*
X81831805Y-79674109D01*
X81932079Y-79632574D01*
X82038530Y-79611400D01*
X82147070Y-79611400D01*
X82253521Y-79632574D01*
G37*
G36*
X72195121Y-79480174D02*
G01*
X72295395Y-79521709D01*
X72295396Y-79521710D01*
X72385642Y-79582010D01*
X72462390Y-79658758D01*
X72462391Y-79658760D01*
X72522691Y-79749005D01*
X72564226Y-79849279D01*
X72585400Y-79955730D01*
X72585400Y-80064270D01*
X72564226Y-80170721D01*
X72522691Y-80270995D01*
X72522690Y-80270996D01*
X72462390Y-80361242D01*
X72385642Y-80437990D01*
X72340212Y-80468345D01*
X72295395Y-80498291D01*
X72195121Y-80539826D01*
X72088670Y-80561000D01*
X71980130Y-80561000D01*
X71873679Y-80539826D01*
X71773405Y-80498291D01*
X71728588Y-80468345D01*
X71683158Y-80437990D01*
X71606410Y-80361242D01*
X71546110Y-80270996D01*
X71546109Y-80270995D01*
X71504574Y-80170721D01*
X71483400Y-80064270D01*
X71483400Y-79955730D01*
X71504574Y-79849279D01*
X71546109Y-79749005D01*
X71606409Y-79658760D01*
X71606410Y-79658758D01*
X71683158Y-79582010D01*
X71773404Y-79521710D01*
X71773405Y-79521709D01*
X71873679Y-79480174D01*
X71980130Y-79459000D01*
X72088670Y-79459000D01*
X72195121Y-79480174D01*
G37*
G36*
X105212400Y-77788400D02*
G01*
X105071845Y-77788400D01*
X105047459Y-77790802D01*
X105024010Y-77797915D01*
X105002399Y-77809466D01*
X104983457Y-77825011D01*
X104967912Y-77843953D01*
X104956361Y-77865564D01*
X104949248Y-77889013D01*
X104946846Y-77913399D01*
X104949248Y-77937785D01*
X104956361Y-77961234D01*
X104967912Y-77982845D01*
X104983457Y-78001787D01*
X105002399Y-78017332D01*
X105012921Y-78023638D01*
X105203955Y-78125747D01*
X105379218Y-78269582D01*
X105523053Y-78444845D01*
X105629929Y-78644798D01*
X105629930Y-78644800D01*
X105695746Y-78861765D01*
X105717969Y-79087400D01*
X105695746Y-79313035D01*
X105632445Y-79521710D01*
X105629929Y-79530002D01*
X105523053Y-79729955D01*
X105379218Y-79905218D01*
X105203955Y-80049053D01*
X105004002Y-80155929D01*
X105004000Y-80155930D01*
X104787035Y-80221746D01*
X104730671Y-80227297D01*
X104617945Y-80238400D01*
X103204855Y-80238400D01*
X103092129Y-80227297D01*
X103035765Y-80221746D01*
X102818800Y-80155930D01*
X102818798Y-80155929D01*
X102618845Y-80049053D01*
X102443582Y-79905218D01*
X102299747Y-79729955D01*
X102192871Y-79530002D01*
X102190356Y-79521710D01*
X102127054Y-79313035D01*
X102104831Y-79087400D01*
X102127054Y-78861765D01*
X102192870Y-78644800D01*
X102192871Y-78644798D01*
X102299747Y-78444845D01*
X102443582Y-78269582D01*
X102618845Y-78125747D01*
X102809879Y-78023638D01*
X102830253Y-78010025D01*
X102847580Y-77992698D01*
X102861194Y-77972323D01*
X102870572Y-77949685D01*
X102875352Y-77925651D01*
X102875352Y-77901147D01*
X102870572Y-77877114D01*
X102861194Y-77854475D01*
X102847581Y-77834101D01*
X102830254Y-77816774D01*
X102809879Y-77803160D01*
X102787241Y-77793782D01*
X102763207Y-77789002D01*
X102750955Y-77788400D01*
X102610400Y-77788400D01*
X102610400Y-76186400D01*
X105212400Y-76186400D01*
X105212400Y-77788400D01*
G37*
G36*
X72753921Y-78133974D02*
G01*
X72854195Y-78175509D01*
X72854196Y-78175510D01*
X72944442Y-78235810D01*
X73021190Y-78312558D01*
X73021191Y-78312560D01*
X73081491Y-78402805D01*
X73123026Y-78503079D01*
X73144200Y-78609530D01*
X73144200Y-78718070D01*
X73123026Y-78824521D01*
X73081491Y-78924795D01*
X73081490Y-78924796D01*
X73021190Y-79015042D01*
X72944442Y-79091790D01*
X72899012Y-79122145D01*
X72854195Y-79152091D01*
X72753921Y-79193626D01*
X72647470Y-79214800D01*
X72538930Y-79214800D01*
X72432479Y-79193626D01*
X72332205Y-79152091D01*
X72287388Y-79122145D01*
X72241958Y-79091790D01*
X72165210Y-79015042D01*
X72104910Y-78924796D01*
X72104909Y-78924795D01*
X72063374Y-78824521D01*
X72042200Y-78718070D01*
X72042200Y-78609530D01*
X72063374Y-78503079D01*
X72104909Y-78402805D01*
X72165209Y-78312560D01*
X72165210Y-78312558D01*
X72241958Y-78235810D01*
X72332204Y-78175510D01*
X72332205Y-78175509D01*
X72432479Y-78133974D01*
X72538930Y-78112800D01*
X72647470Y-78112800D01*
X72753921Y-78133974D01*
G37*
G36*
X72195121Y-76660774D02*
G01*
X72295395Y-76702309D01*
X72295396Y-76702310D01*
X72385642Y-76762610D01*
X72462390Y-76839358D01*
X72462391Y-76839360D01*
X72522691Y-76929605D01*
X72564226Y-77029879D01*
X72585400Y-77136330D01*
X72585400Y-77244870D01*
X72564226Y-77351321D01*
X72522691Y-77451595D01*
X72522690Y-77451596D01*
X72462390Y-77541842D01*
X72385642Y-77618590D01*
X72340212Y-77648945D01*
X72295395Y-77678891D01*
X72195121Y-77720426D01*
X72088670Y-77741600D01*
X71980130Y-77741600D01*
X71873679Y-77720426D01*
X71773405Y-77678891D01*
X71728588Y-77648945D01*
X71683158Y-77618590D01*
X71606410Y-77541842D01*
X71546110Y-77451596D01*
X71546109Y-77451595D01*
X71504574Y-77351321D01*
X71483400Y-77244870D01*
X71483400Y-77136330D01*
X71504574Y-77029879D01*
X71546109Y-76929605D01*
X71606409Y-76839360D01*
X71606410Y-76839358D01*
X71683158Y-76762610D01*
X71773404Y-76702310D01*
X71773405Y-76702309D01*
X71873679Y-76660774D01*
X71980130Y-76639600D01*
X72088670Y-76639600D01*
X72195121Y-76660774D01*
G37*
G36*
X73261921Y-75543174D02*
G01*
X73362195Y-75584709D01*
X73362196Y-75584710D01*
X73452442Y-75645010D01*
X73529190Y-75721758D01*
X73559545Y-75767188D01*
X73589491Y-75812005D01*
X73631026Y-75912279D01*
X73652200Y-76018730D01*
X73652200Y-76127270D01*
X73631026Y-76233721D01*
X73589491Y-76333995D01*
X73589490Y-76333996D01*
X73529190Y-76424242D01*
X73452442Y-76500990D01*
X73407012Y-76531345D01*
X73362195Y-76561291D01*
X73261921Y-76602826D01*
X73155470Y-76624000D01*
X73046930Y-76624000D01*
X72940479Y-76602826D01*
X72840205Y-76561291D01*
X72795388Y-76531345D01*
X72749958Y-76500990D01*
X72673210Y-76424242D01*
X72612910Y-76333996D01*
X72612909Y-76333995D01*
X72571374Y-76233721D01*
X72550200Y-76127270D01*
X72550200Y-76018730D01*
X72571374Y-75912279D01*
X72612909Y-75812005D01*
X72642855Y-75767188D01*
X72673210Y-75721758D01*
X72749958Y-75645010D01*
X72840204Y-75584710D01*
X72840205Y-75584709D01*
X72940479Y-75543174D01*
X73046930Y-75522000D01*
X73155470Y-75522000D01*
X73261921Y-75543174D01*
G37*
G36*
X104489971Y-74190263D02*
G01*
X104568423Y-74197990D01*
X104669082Y-74228525D01*
X104719413Y-74243792D01*
X104858565Y-74318171D01*
X104980533Y-74418267D01*
X105080629Y-74540235D01*
X105155008Y-74679387D01*
X105155008Y-74679388D01*
X105200810Y-74830377D01*
X105216275Y-74987400D01*
X105200810Y-75144423D01*
X105170275Y-75245082D01*
X105155008Y-75295413D01*
X105080629Y-75434565D01*
X104980533Y-75556533D01*
X104858565Y-75656629D01*
X104719413Y-75731008D01*
X104669082Y-75746275D01*
X104568423Y-75776810D01*
X104489971Y-75784537D01*
X104450746Y-75788400D01*
X103372054Y-75788400D01*
X103332829Y-75784537D01*
X103254377Y-75776810D01*
X103153718Y-75746275D01*
X103103387Y-75731008D01*
X102964235Y-75656629D01*
X102842267Y-75556533D01*
X102742171Y-75434565D01*
X102667792Y-75295413D01*
X102652525Y-75245082D01*
X102621990Y-75144423D01*
X102606525Y-74987400D01*
X102621990Y-74830377D01*
X102667792Y-74679388D01*
X102667792Y-74679387D01*
X102742171Y-74540235D01*
X102842267Y-74418267D01*
X102964235Y-74318171D01*
X103103387Y-74243792D01*
X103153718Y-74228525D01*
X103254377Y-74197990D01*
X103332829Y-74190263D01*
X103372054Y-74186400D01*
X104450746Y-74186400D01*
X104489971Y-74190263D01*
G37*
G36*
X104730671Y-69747503D02*
G01*
X104787035Y-69753054D01*
X105004000Y-69818870D01*
X105004002Y-69818871D01*
X105203955Y-69925747D01*
X105379218Y-70069582D01*
X105523053Y-70244845D01*
X105616947Y-70420510D01*
X105629930Y-70444800D01*
X105695746Y-70661765D01*
X105717969Y-70887400D01*
X105695746Y-71113035D01*
X105661115Y-71227198D01*
X105629929Y-71330002D01*
X105523053Y-71529955D01*
X105379218Y-71705218D01*
X105203955Y-71849053D01*
X105004002Y-71955929D01*
X105004000Y-71955930D01*
X104787035Y-72021746D01*
X104787031Y-72021746D01*
X104784916Y-72022388D01*
X104765203Y-72026309D01*
X104742564Y-72035685D01*
X104722190Y-72049299D01*
X104704862Y-72066625D01*
X104691248Y-72086999D01*
X104681870Y-72109638D01*
X104677089Y-72133671D01*
X104677089Y-72158175D01*
X104681869Y-72182209D01*
X104691245Y-72204848D01*
X104704859Y-72225222D01*
X104722185Y-72242550D01*
X104742561Y-72256165D01*
X104858565Y-72318171D01*
X104980533Y-72418267D01*
X105080629Y-72540235D01*
X105155008Y-72679387D01*
X105170275Y-72729718D01*
X105200810Y-72830377D01*
X105216275Y-72987400D01*
X105200810Y-73144423D01*
X105175701Y-73227196D01*
X105155008Y-73295413D01*
X105080629Y-73434565D01*
X104980533Y-73556533D01*
X104858565Y-73656629D01*
X104719413Y-73731008D01*
X104669082Y-73746275D01*
X104568423Y-73776810D01*
X104489971Y-73784537D01*
X104450746Y-73788400D01*
X103372054Y-73788400D01*
X103332829Y-73784537D01*
X103254377Y-73776810D01*
X103153718Y-73746275D01*
X103103387Y-73731008D01*
X102964235Y-73656629D01*
X102842267Y-73556533D01*
X102742171Y-73434565D01*
X102667792Y-73295413D01*
X102647099Y-73227196D01*
X102621990Y-73144423D01*
X102606525Y-72987400D01*
X102621990Y-72830377D01*
X102652525Y-72729718D01*
X102667792Y-72679387D01*
X102742171Y-72540235D01*
X102842267Y-72418267D01*
X102964235Y-72318171D01*
X103080239Y-72256165D01*
X103100613Y-72242551D01*
X103117940Y-72225224D01*
X103131554Y-72204850D01*
X103140931Y-72182211D01*
X103145711Y-72158177D01*
X103145711Y-72133673D01*
X103140930Y-72109640D01*
X103131553Y-72087001D01*
X103117939Y-72066627D01*
X103100612Y-72049300D01*
X103080238Y-72035686D01*
X103057599Y-72026309D01*
X103037884Y-72022388D01*
X103035769Y-72021746D01*
X103035765Y-72021746D01*
X102818800Y-71955930D01*
X102818798Y-71955929D01*
X102618845Y-71849053D01*
X102443582Y-71705218D01*
X102299747Y-71529955D01*
X102192871Y-71330002D01*
X102161686Y-71227198D01*
X102127054Y-71113035D01*
X102104831Y-70887400D01*
X102127054Y-70661765D01*
X102192870Y-70444800D01*
X102205853Y-70420510D01*
X102299747Y-70244845D01*
X102443582Y-70069582D01*
X102618845Y-69925747D01*
X102818798Y-69818871D01*
X102818800Y-69818870D01*
X103035765Y-69753054D01*
X103092129Y-69747503D01*
X103204855Y-69736400D01*
X104617945Y-69736400D01*
X104730671Y-69747503D01*
G37*
G36*
X77263166Y-72066299D02*
G01*
X77395288Y-72121026D01*
X77395290Y-72121027D01*
X77514198Y-72200479D01*
X77615321Y-72301602D01*
X77615322Y-72301604D01*
X77694774Y-72420512D01*
X77749501Y-72552634D01*
X77777400Y-72692894D01*
X77777400Y-72835906D01*
X77749501Y-72976166D01*
X77694774Y-73108288D01*
X77694773Y-73108290D01*
X77615321Y-73227198D01*
X77514198Y-73328321D01*
X77395290Y-73407773D01*
X77395289Y-73407774D01*
X77395288Y-73407774D01*
X77263166Y-73462501D01*
X77122906Y-73490400D01*
X76979894Y-73490400D01*
X76839634Y-73462501D01*
X76707512Y-73407774D01*
X76707511Y-73407774D01*
X76707510Y-73407773D01*
X76588602Y-73328321D01*
X76487479Y-73227198D01*
X76408027Y-73108290D01*
X76408026Y-73108288D01*
X76353299Y-72976166D01*
X76325400Y-72835906D01*
X76325400Y-72692894D01*
X76353299Y-72552634D01*
X76408026Y-72420512D01*
X76487478Y-72301604D01*
X76487479Y-72301602D01*
X76588602Y-72200479D01*
X76707510Y-72121027D01*
X76707512Y-72121026D01*
X76839634Y-72066299D01*
X76979894Y-72038400D01*
X77122906Y-72038400D01*
X77263166Y-72066299D01*
G37*
G36*
X81263166Y-72066299D02*
G01*
X81395288Y-72121026D01*
X81395290Y-72121027D01*
X81514198Y-72200479D01*
X81615321Y-72301602D01*
X81615322Y-72301604D01*
X81694774Y-72420512D01*
X81749501Y-72552634D01*
X81777400Y-72692894D01*
X81777400Y-72835906D01*
X81749501Y-72976166D01*
X81694774Y-73108288D01*
X81694773Y-73108290D01*
X81615321Y-73227198D01*
X81514198Y-73328321D01*
X81395290Y-73407773D01*
X81395289Y-73407774D01*
X81395288Y-73407774D01*
X81263166Y-73462501D01*
X81122906Y-73490400D01*
X80979894Y-73490400D01*
X80839634Y-73462501D01*
X80707512Y-73407774D01*
X80707511Y-73407774D01*
X80707510Y-73407773D01*
X80588602Y-73328321D01*
X80487479Y-73227198D01*
X80408027Y-73108290D01*
X80408026Y-73108288D01*
X80353299Y-72976166D01*
X80325400Y-72835906D01*
X80325400Y-72692894D01*
X80353299Y-72552634D01*
X80408026Y-72420512D01*
X80487478Y-72301604D01*
X80487479Y-72301602D01*
X80588602Y-72200479D01*
X80707510Y-72121027D01*
X80707512Y-72121026D01*
X80839634Y-72066299D01*
X80979894Y-72038400D01*
X81122906Y-72038400D01*
X81263166Y-72066299D01*
G37*
G36*
X79263166Y-72066299D02*
G01*
X79395288Y-72121026D01*
X79395290Y-72121027D01*
X79514198Y-72200479D01*
X79615321Y-72301602D01*
X79615322Y-72301604D01*
X79694774Y-72420512D01*
X79749501Y-72552634D01*
X79777400Y-72692894D01*
X79777400Y-72835906D01*
X79749501Y-72976166D01*
X79694774Y-73108288D01*
X79694773Y-73108290D01*
X79615321Y-73227198D01*
X79514198Y-73328321D01*
X79395290Y-73407773D01*
X79395289Y-73407774D01*
X79395288Y-73407774D01*
X79263166Y-73462501D01*
X79122906Y-73490400D01*
X78979894Y-73490400D01*
X78839634Y-73462501D01*
X78707512Y-73407774D01*
X78707511Y-73407774D01*
X78707510Y-73407773D01*
X78588602Y-73328321D01*
X78487479Y-73227198D01*
X78408027Y-73108290D01*
X78408026Y-73108288D01*
X78353299Y-72976166D01*
X78325400Y-72835906D01*
X78325400Y-72692894D01*
X78353299Y-72552634D01*
X78408026Y-72420512D01*
X78487478Y-72301604D01*
X78487479Y-72301602D01*
X78588602Y-72200479D01*
X78707510Y-72121027D01*
X78707512Y-72121026D01*
X78839634Y-72066299D01*
X78979894Y-72038400D01*
X79122906Y-72038400D01*
X79263166Y-72066299D01*
G37*
G36*
X79263166Y-70066299D02*
G01*
X79395288Y-70121026D01*
X79395290Y-70121027D01*
X79514198Y-70200479D01*
X79615321Y-70301602D01*
X79615322Y-70301604D01*
X79694774Y-70420512D01*
X79749501Y-70552634D01*
X79777400Y-70692894D01*
X79777400Y-70835906D01*
X79749501Y-70976166D01*
X79694774Y-71108288D01*
X79694773Y-71108290D01*
X79615321Y-71227198D01*
X79514198Y-71328321D01*
X79395290Y-71407773D01*
X79395289Y-71407774D01*
X79395288Y-71407774D01*
X79263166Y-71462501D01*
X79122906Y-71490400D01*
X78979894Y-71490400D01*
X78839634Y-71462501D01*
X78707512Y-71407774D01*
X78707511Y-71407774D01*
X78707510Y-71407773D01*
X78588602Y-71328321D01*
X78487479Y-71227198D01*
X78408027Y-71108290D01*
X78408026Y-71108288D01*
X78353299Y-70976166D01*
X78325400Y-70835906D01*
X78325400Y-70692894D01*
X78353299Y-70552634D01*
X78408026Y-70420512D01*
X78487478Y-70301604D01*
X78487479Y-70301602D01*
X78588602Y-70200479D01*
X78707510Y-70121027D01*
X78707512Y-70121026D01*
X78839634Y-70066299D01*
X78979894Y-70038400D01*
X79122906Y-70038400D01*
X79263166Y-70066299D01*
G37*
G36*
X77263166Y-70066299D02*
G01*
X77395288Y-70121026D01*
X77395290Y-70121027D01*
X77514198Y-70200479D01*
X77615321Y-70301602D01*
X77615322Y-70301604D01*
X77694774Y-70420512D01*
X77749501Y-70552634D01*
X77777400Y-70692894D01*
X77777400Y-70835906D01*
X77749501Y-70976166D01*
X77694774Y-71108288D01*
X77694773Y-71108290D01*
X77615321Y-71227198D01*
X77514198Y-71328321D01*
X77395290Y-71407773D01*
X77395289Y-71407774D01*
X77395288Y-71407774D01*
X77263166Y-71462501D01*
X77122906Y-71490400D01*
X76979894Y-71490400D01*
X76839634Y-71462501D01*
X76707512Y-71407774D01*
X76707511Y-71407774D01*
X76707510Y-71407773D01*
X76588602Y-71328321D01*
X76487479Y-71227198D01*
X76408027Y-71108290D01*
X76408026Y-71108288D01*
X76353299Y-70976166D01*
X76325400Y-70835906D01*
X76325400Y-70692894D01*
X76353299Y-70552634D01*
X76408026Y-70420512D01*
X76487478Y-70301604D01*
X76487479Y-70301602D01*
X76588602Y-70200479D01*
X76707510Y-70121027D01*
X76707512Y-70121026D01*
X76839634Y-70066299D01*
X76979894Y-70038400D01*
X77122906Y-70038400D01*
X77263166Y-70066299D01*
G37*
G36*
X81777400Y-71490400D02*
G01*
X80325400Y-71490400D01*
X80325400Y-70038400D01*
X81777400Y-70038400D01*
X81777400Y-71490400D01*
G37*
G36*
X93851613Y-65808649D02*
G01*
X93946052Y-65837297D01*
X94033087Y-65883818D01*
X94109375Y-65946425D01*
X94171982Y-66022713D01*
X94218503Y-66109748D01*
X94247151Y-66204187D01*
X94254400Y-66277788D01*
X94254400Y-67427012D01*
X94247151Y-67500613D01*
X94218503Y-67595052D01*
X94171982Y-67682087D01*
X94109375Y-67758375D01*
X94033087Y-67820982D01*
X93946051Y-67867503D01*
X93851612Y-67896151D01*
X93753400Y-67905824D01*
X93655187Y-67896151D01*
X93560748Y-67867503D01*
X93473713Y-67820982D01*
X93397425Y-67758375D01*
X93334818Y-67682087D01*
X93288297Y-67595051D01*
X93259649Y-67500612D01*
X93252400Y-67427011D01*
X93252401Y-66277788D01*
X93259650Y-66204187D01*
X93288298Y-66109748D01*
X93334819Y-66022713D01*
X93397426Y-65946425D01*
X93473714Y-65883818D01*
X93560749Y-65837297D01*
X93655188Y-65808649D01*
X93753400Y-65798976D01*
X93851613Y-65808649D01*
G37*
G36*
X85211613Y-65808649D02*
G01*
X85306052Y-65837297D01*
X85393087Y-65883818D01*
X85469375Y-65946425D01*
X85531982Y-66022713D01*
X85578503Y-66109748D01*
X85607151Y-66204187D01*
X85614400Y-66277788D01*
X85614400Y-67427012D01*
X85607151Y-67500613D01*
X85578503Y-67595052D01*
X85531982Y-67682087D01*
X85469375Y-67758375D01*
X85393087Y-67820982D01*
X85306051Y-67867503D01*
X85211612Y-67896151D01*
X85113400Y-67905824D01*
X85015187Y-67896151D01*
X84920748Y-67867503D01*
X84833713Y-67820982D01*
X84757425Y-67758375D01*
X84694818Y-67682087D01*
X84648297Y-67595051D01*
X84619649Y-67500612D01*
X84612400Y-67427011D01*
X84612401Y-66277788D01*
X84619650Y-66204187D01*
X84648298Y-66109748D01*
X84694819Y-66022713D01*
X84757426Y-65946425D01*
X84833714Y-65883818D01*
X84920749Y-65837297D01*
X85015188Y-65808649D01*
X85113400Y-65798976D01*
X85211613Y-65808649D01*
G37*
G36*
X86645783Y-66034889D02*
G01*
X86645786Y-66034890D01*
X86645785Y-66034890D01*
X86709658Y-66061346D01*
X86767148Y-66099760D01*
X86816040Y-66148652D01*
X86854454Y-66206142D01*
X86876024Y-66258218D01*
X86880911Y-66270017D01*
X86894400Y-66337830D01*
X86894400Y-66406970D01*
X86880911Y-66474783D01*
X86880910Y-66474785D01*
X86854454Y-66538658D01*
X86816040Y-66596148D01*
X86767148Y-66645040D01*
X86709658Y-66683454D01*
X86657582Y-66705024D01*
X86645783Y-66709911D01*
X86577970Y-66723400D01*
X86508830Y-66723400D01*
X86441017Y-66709911D01*
X86429218Y-66705024D01*
X86377142Y-66683454D01*
X86319652Y-66645040D01*
X86270760Y-66596148D01*
X86232346Y-66538658D01*
X86205890Y-66474785D01*
X86205889Y-66474783D01*
X86192400Y-66406970D01*
X86192400Y-66337830D01*
X86205889Y-66270017D01*
X86210776Y-66258218D01*
X86232346Y-66206142D01*
X86270760Y-66148652D01*
X86319652Y-66099760D01*
X86377142Y-66061346D01*
X86441015Y-66034890D01*
X86441014Y-66034890D01*
X86441017Y-66034889D01*
X86508830Y-66021400D01*
X86577970Y-66021400D01*
X86645783Y-66034889D01*
G37*
G36*
X92425783Y-66034889D02*
G01*
X92425786Y-66034890D01*
X92425785Y-66034890D01*
X92489658Y-66061346D01*
X92547148Y-66099760D01*
X92596040Y-66148652D01*
X92634454Y-66206142D01*
X92656024Y-66258218D01*
X92660911Y-66270017D01*
X92674400Y-66337830D01*
X92674400Y-66406970D01*
X92660911Y-66474783D01*
X92660910Y-66474785D01*
X92634454Y-66538658D01*
X92596040Y-66596148D01*
X92547148Y-66645040D01*
X92489658Y-66683454D01*
X92437582Y-66705024D01*
X92425783Y-66709911D01*
X92357970Y-66723400D01*
X92288830Y-66723400D01*
X92221017Y-66709911D01*
X92209218Y-66705024D01*
X92157142Y-66683454D01*
X92099652Y-66645040D01*
X92050760Y-66596148D01*
X92012346Y-66538658D01*
X91985890Y-66474785D01*
X91985889Y-66474783D01*
X91972400Y-66406970D01*
X91972400Y-66337830D01*
X91985889Y-66270017D01*
X91990776Y-66258218D01*
X92012346Y-66206142D01*
X92050760Y-66148652D01*
X92099652Y-66099760D01*
X92157142Y-66061346D01*
X92221015Y-66034890D01*
X92221014Y-66034890D01*
X92221017Y-66034889D01*
X92288830Y-66021400D01*
X92357970Y-66021400D01*
X92425783Y-66034889D01*
G37*
G36*
X80834800Y-66534600D02*
G01*
X79032800Y-66534600D01*
X79032800Y-64732600D01*
X80834800Y-64732600D01*
X80834800Y-66534600D01*
G37*
G36*
X80047312Y-62197527D02*
G01*
X80196612Y-62227224D01*
X80360584Y-62295144D01*
X80508154Y-62393747D01*
X80633653Y-62519246D01*
X80732256Y-62666816D01*
X80800176Y-62830788D01*
X80834800Y-63004859D01*
X80834800Y-63182341D01*
X80800176Y-63356412D01*
X80732256Y-63520384D01*
X80633653Y-63667954D01*
X80508154Y-63793453D01*
X80360584Y-63892056D01*
X80196612Y-63959976D01*
X80047312Y-63989673D01*
X80022542Y-63994600D01*
X79845058Y-63994600D01*
X79820288Y-63989673D01*
X79670988Y-63959976D01*
X79507016Y-63892056D01*
X79359446Y-63793453D01*
X79233947Y-63667954D01*
X79135344Y-63520384D01*
X79067424Y-63356412D01*
X79032800Y-63182341D01*
X79032800Y-63004859D01*
X79067424Y-62830788D01*
X79135344Y-62666816D01*
X79233947Y-62519246D01*
X79359446Y-62393747D01*
X79507016Y-62295144D01*
X79670988Y-62227224D01*
X79820288Y-62197527D01*
X79845058Y-62192600D01*
X80022542Y-62192600D01*
X80047312Y-62197527D01*
G37*
G36*
X93851613Y-61788649D02*
G01*
X93946052Y-61817297D01*
X94033087Y-61863818D01*
X94109375Y-61926425D01*
X94171982Y-62002713D01*
X94218503Y-62089748D01*
X94247151Y-62184187D01*
X94254400Y-62257788D01*
X94254400Y-63107012D01*
X94247151Y-63180613D01*
X94218503Y-63275052D01*
X94171982Y-63362087D01*
X94109375Y-63438375D01*
X94033087Y-63500982D01*
X93946051Y-63547503D01*
X93851612Y-63576151D01*
X93753400Y-63585824D01*
X93655187Y-63576151D01*
X93560748Y-63547503D01*
X93473713Y-63500982D01*
X93397425Y-63438375D01*
X93334818Y-63362087D01*
X93288297Y-63275051D01*
X93259649Y-63180612D01*
X93252400Y-63107011D01*
X93252400Y-62257798D01*
X93259650Y-62184186D01*
X93270246Y-62149256D01*
X93288298Y-62089748D01*
X93334819Y-62002713D01*
X93397426Y-61926425D01*
X93473714Y-61863818D01*
X93560749Y-61817297D01*
X93655188Y-61788649D01*
X93753400Y-61778976D01*
X93851613Y-61788649D01*
G37*
G36*
X85211613Y-61788649D02*
G01*
X85306052Y-61817297D01*
X85393087Y-61863818D01*
X85469375Y-61926425D01*
X85531982Y-62002713D01*
X85578503Y-62089748D01*
X85607151Y-62184187D01*
X85614400Y-62257788D01*
X85614400Y-63107012D01*
X85607151Y-63180613D01*
X85578503Y-63275052D01*
X85531982Y-63362087D01*
X85469375Y-63438375D01*
X85393087Y-63500982D01*
X85306051Y-63547503D01*
X85211612Y-63576151D01*
X85113400Y-63585824D01*
X85015187Y-63576151D01*
X84920748Y-63547503D01*
X84833713Y-63500982D01*
X84757425Y-63438375D01*
X84694818Y-63362087D01*
X84648297Y-63275051D01*
X84619649Y-63180612D01*
X84612400Y-63107011D01*
X84612400Y-62257798D01*
X84619650Y-62184186D01*
X84630246Y-62149256D01*
X84648298Y-62089748D01*
X84694819Y-62002713D01*
X84757426Y-61926425D01*
X84833714Y-61863818D01*
X84920749Y-61817297D01*
X85015188Y-61788649D01*
X85113400Y-61778976D01*
X85211613Y-61788649D01*
G37*
M02*
