G04 #@! TF.GenerationSoftware,KiCad,Pcbnew,(5.1.5)-3*
G04 #@! TF.CreationDate,2020-09-05T19:48:14+08:00*
G04 #@! TF.ProjectId,VS1053 Dev Brd,56533130-3533-4204-9465-76204272642e,rev?*
G04 #@! TF.SameCoordinates,Original*
G04 #@! TF.FileFunction,Paste,Bot*
G04 #@! TF.FilePolarity,Positive*
%FSLAX46Y46*%
G04 Gerber Fmt 4.6, Leading zero omitted, Abs format (unit mm)*
G04 Created by KiCad (PCBNEW (5.1.5)-3) date 2020-09-05 19:48:14*
%MOMM*%
%LPD*%
G04 APERTURE LIST*
%ADD10C,0.100000*%
G04 APERTURE END LIST*
D10*
G36*
X87078358Y-98893110D02*
G01*
X87092676Y-98895234D01*
X87106717Y-98898751D01*
X87120346Y-98903628D01*
X87133431Y-98909817D01*
X87145847Y-98917258D01*
X87157473Y-98925881D01*
X87168198Y-98935602D01*
X87177919Y-98946327D01*
X87186542Y-98957953D01*
X87193983Y-98970369D01*
X87200172Y-98983454D01*
X87205049Y-98997083D01*
X87208566Y-99011124D01*
X87210690Y-99025442D01*
X87211400Y-99039900D01*
X87211400Y-99384900D01*
X87210690Y-99399358D01*
X87208566Y-99413676D01*
X87205049Y-99427717D01*
X87200172Y-99441346D01*
X87193983Y-99454431D01*
X87186542Y-99466847D01*
X87177919Y-99478473D01*
X87168198Y-99489198D01*
X87157473Y-99498919D01*
X87145847Y-99507542D01*
X87133431Y-99514983D01*
X87120346Y-99521172D01*
X87106717Y-99526049D01*
X87092676Y-99529566D01*
X87078358Y-99531690D01*
X87063900Y-99532400D01*
X86768900Y-99532400D01*
X86754442Y-99531690D01*
X86740124Y-99529566D01*
X86726083Y-99526049D01*
X86712454Y-99521172D01*
X86699369Y-99514983D01*
X86686953Y-99507542D01*
X86675327Y-99498919D01*
X86664602Y-99489198D01*
X86654881Y-99478473D01*
X86646258Y-99466847D01*
X86638817Y-99454431D01*
X86632628Y-99441346D01*
X86627751Y-99427717D01*
X86624234Y-99413676D01*
X86622110Y-99399358D01*
X86621400Y-99384900D01*
X86621400Y-99039900D01*
X86622110Y-99025442D01*
X86624234Y-99011124D01*
X86627751Y-98997083D01*
X86632628Y-98983454D01*
X86638817Y-98970369D01*
X86646258Y-98957953D01*
X86654881Y-98946327D01*
X86664602Y-98935602D01*
X86675327Y-98925881D01*
X86686953Y-98917258D01*
X86699369Y-98909817D01*
X86712454Y-98903628D01*
X86726083Y-98898751D01*
X86740124Y-98895234D01*
X86754442Y-98893110D01*
X86768900Y-98892400D01*
X87063900Y-98892400D01*
X87078358Y-98893110D01*
G37*
G36*
X88048358Y-98893110D02*
G01*
X88062676Y-98895234D01*
X88076717Y-98898751D01*
X88090346Y-98903628D01*
X88103431Y-98909817D01*
X88115847Y-98917258D01*
X88127473Y-98925881D01*
X88138198Y-98935602D01*
X88147919Y-98946327D01*
X88156542Y-98957953D01*
X88163983Y-98970369D01*
X88170172Y-98983454D01*
X88175049Y-98997083D01*
X88178566Y-99011124D01*
X88180690Y-99025442D01*
X88181400Y-99039900D01*
X88181400Y-99384900D01*
X88180690Y-99399358D01*
X88178566Y-99413676D01*
X88175049Y-99427717D01*
X88170172Y-99441346D01*
X88163983Y-99454431D01*
X88156542Y-99466847D01*
X88147919Y-99478473D01*
X88138198Y-99489198D01*
X88127473Y-99498919D01*
X88115847Y-99507542D01*
X88103431Y-99514983D01*
X88090346Y-99521172D01*
X88076717Y-99526049D01*
X88062676Y-99529566D01*
X88048358Y-99531690D01*
X88033900Y-99532400D01*
X87738900Y-99532400D01*
X87724442Y-99531690D01*
X87710124Y-99529566D01*
X87696083Y-99526049D01*
X87682454Y-99521172D01*
X87669369Y-99514983D01*
X87656953Y-99507542D01*
X87645327Y-99498919D01*
X87634602Y-99489198D01*
X87624881Y-99478473D01*
X87616258Y-99466847D01*
X87608817Y-99454431D01*
X87602628Y-99441346D01*
X87597751Y-99427717D01*
X87594234Y-99413676D01*
X87592110Y-99399358D01*
X87591400Y-99384900D01*
X87591400Y-99039900D01*
X87592110Y-99025442D01*
X87594234Y-99011124D01*
X87597751Y-98997083D01*
X87602628Y-98983454D01*
X87608817Y-98970369D01*
X87616258Y-98957953D01*
X87624881Y-98946327D01*
X87634602Y-98935602D01*
X87645327Y-98925881D01*
X87656953Y-98917258D01*
X87669369Y-98909817D01*
X87682454Y-98903628D01*
X87696083Y-98898751D01*
X87710124Y-98895234D01*
X87724442Y-98893110D01*
X87738900Y-98892400D01*
X88033900Y-98892400D01*
X88048358Y-98893110D01*
G37*
G36*
X91779358Y-105115710D02*
G01*
X91793676Y-105117834D01*
X91807717Y-105121351D01*
X91821346Y-105126228D01*
X91834431Y-105132417D01*
X91846847Y-105139858D01*
X91858473Y-105148481D01*
X91869198Y-105158202D01*
X91878919Y-105168927D01*
X91887542Y-105180553D01*
X91894983Y-105192969D01*
X91901172Y-105206054D01*
X91906049Y-105219683D01*
X91909566Y-105233724D01*
X91911690Y-105248042D01*
X91912400Y-105262500D01*
X91912400Y-105557500D01*
X91911690Y-105571958D01*
X91909566Y-105586276D01*
X91906049Y-105600317D01*
X91901172Y-105613946D01*
X91894983Y-105627031D01*
X91887542Y-105639447D01*
X91878919Y-105651073D01*
X91869198Y-105661798D01*
X91858473Y-105671519D01*
X91846847Y-105680142D01*
X91834431Y-105687583D01*
X91821346Y-105693772D01*
X91807717Y-105698649D01*
X91793676Y-105702166D01*
X91779358Y-105704290D01*
X91764900Y-105705000D01*
X91419900Y-105705000D01*
X91405442Y-105704290D01*
X91391124Y-105702166D01*
X91377083Y-105698649D01*
X91363454Y-105693772D01*
X91350369Y-105687583D01*
X91337953Y-105680142D01*
X91326327Y-105671519D01*
X91315602Y-105661798D01*
X91305881Y-105651073D01*
X91297258Y-105639447D01*
X91289817Y-105627031D01*
X91283628Y-105613946D01*
X91278751Y-105600317D01*
X91275234Y-105586276D01*
X91273110Y-105571958D01*
X91272400Y-105557500D01*
X91272400Y-105262500D01*
X91273110Y-105248042D01*
X91275234Y-105233724D01*
X91278751Y-105219683D01*
X91283628Y-105206054D01*
X91289817Y-105192969D01*
X91297258Y-105180553D01*
X91305881Y-105168927D01*
X91315602Y-105158202D01*
X91326327Y-105148481D01*
X91337953Y-105139858D01*
X91350369Y-105132417D01*
X91363454Y-105126228D01*
X91377083Y-105121351D01*
X91391124Y-105117834D01*
X91405442Y-105115710D01*
X91419900Y-105115000D01*
X91764900Y-105115000D01*
X91779358Y-105115710D01*
G37*
G36*
X91779358Y-106085710D02*
G01*
X91793676Y-106087834D01*
X91807717Y-106091351D01*
X91821346Y-106096228D01*
X91834431Y-106102417D01*
X91846847Y-106109858D01*
X91858473Y-106118481D01*
X91869198Y-106128202D01*
X91878919Y-106138927D01*
X91887542Y-106150553D01*
X91894983Y-106162969D01*
X91901172Y-106176054D01*
X91906049Y-106189683D01*
X91909566Y-106203724D01*
X91911690Y-106218042D01*
X91912400Y-106232500D01*
X91912400Y-106527500D01*
X91911690Y-106541958D01*
X91909566Y-106556276D01*
X91906049Y-106570317D01*
X91901172Y-106583946D01*
X91894983Y-106597031D01*
X91887542Y-106609447D01*
X91878919Y-106621073D01*
X91869198Y-106631798D01*
X91858473Y-106641519D01*
X91846847Y-106650142D01*
X91834431Y-106657583D01*
X91821346Y-106663772D01*
X91807717Y-106668649D01*
X91793676Y-106672166D01*
X91779358Y-106674290D01*
X91764900Y-106675000D01*
X91419900Y-106675000D01*
X91405442Y-106674290D01*
X91391124Y-106672166D01*
X91377083Y-106668649D01*
X91363454Y-106663772D01*
X91350369Y-106657583D01*
X91337953Y-106650142D01*
X91326327Y-106641519D01*
X91315602Y-106631798D01*
X91305881Y-106621073D01*
X91297258Y-106609447D01*
X91289817Y-106597031D01*
X91283628Y-106583946D01*
X91278751Y-106570317D01*
X91275234Y-106556276D01*
X91273110Y-106541958D01*
X91272400Y-106527500D01*
X91272400Y-106232500D01*
X91273110Y-106218042D01*
X91275234Y-106203724D01*
X91278751Y-106189683D01*
X91283628Y-106176054D01*
X91289817Y-106162969D01*
X91297258Y-106150553D01*
X91305881Y-106138927D01*
X91315602Y-106128202D01*
X91326327Y-106118481D01*
X91337953Y-106109858D01*
X91350369Y-106102417D01*
X91363454Y-106096228D01*
X91377083Y-106091351D01*
X91391124Y-106087834D01*
X91405442Y-106085710D01*
X91419900Y-106085000D01*
X91764900Y-106085000D01*
X91779358Y-106085710D01*
G37*
G36*
X94319358Y-106085710D02*
G01*
X94333676Y-106087834D01*
X94347717Y-106091351D01*
X94361346Y-106096228D01*
X94374431Y-106102417D01*
X94386847Y-106109858D01*
X94398473Y-106118481D01*
X94409198Y-106128202D01*
X94418919Y-106138927D01*
X94427542Y-106150553D01*
X94434983Y-106162969D01*
X94441172Y-106176054D01*
X94446049Y-106189683D01*
X94449566Y-106203724D01*
X94451690Y-106218042D01*
X94452400Y-106232500D01*
X94452400Y-106527500D01*
X94451690Y-106541958D01*
X94449566Y-106556276D01*
X94446049Y-106570317D01*
X94441172Y-106583946D01*
X94434983Y-106597031D01*
X94427542Y-106609447D01*
X94418919Y-106621073D01*
X94409198Y-106631798D01*
X94398473Y-106641519D01*
X94386847Y-106650142D01*
X94374431Y-106657583D01*
X94361346Y-106663772D01*
X94347717Y-106668649D01*
X94333676Y-106672166D01*
X94319358Y-106674290D01*
X94304900Y-106675000D01*
X93959900Y-106675000D01*
X93945442Y-106674290D01*
X93931124Y-106672166D01*
X93917083Y-106668649D01*
X93903454Y-106663772D01*
X93890369Y-106657583D01*
X93877953Y-106650142D01*
X93866327Y-106641519D01*
X93855602Y-106631798D01*
X93845881Y-106621073D01*
X93837258Y-106609447D01*
X93829817Y-106597031D01*
X93823628Y-106583946D01*
X93818751Y-106570317D01*
X93815234Y-106556276D01*
X93813110Y-106541958D01*
X93812400Y-106527500D01*
X93812400Y-106232500D01*
X93813110Y-106218042D01*
X93815234Y-106203724D01*
X93818751Y-106189683D01*
X93823628Y-106176054D01*
X93829817Y-106162969D01*
X93837258Y-106150553D01*
X93845881Y-106138927D01*
X93855602Y-106128202D01*
X93866327Y-106118481D01*
X93877953Y-106109858D01*
X93890369Y-106102417D01*
X93903454Y-106096228D01*
X93917083Y-106091351D01*
X93931124Y-106087834D01*
X93945442Y-106085710D01*
X93959900Y-106085000D01*
X94304900Y-106085000D01*
X94319358Y-106085710D01*
G37*
G36*
X94319358Y-105115710D02*
G01*
X94333676Y-105117834D01*
X94347717Y-105121351D01*
X94361346Y-105126228D01*
X94374431Y-105132417D01*
X94386847Y-105139858D01*
X94398473Y-105148481D01*
X94409198Y-105158202D01*
X94418919Y-105168927D01*
X94427542Y-105180553D01*
X94434983Y-105192969D01*
X94441172Y-105206054D01*
X94446049Y-105219683D01*
X94449566Y-105233724D01*
X94451690Y-105248042D01*
X94452400Y-105262500D01*
X94452400Y-105557500D01*
X94451690Y-105571958D01*
X94449566Y-105586276D01*
X94446049Y-105600317D01*
X94441172Y-105613946D01*
X94434983Y-105627031D01*
X94427542Y-105639447D01*
X94418919Y-105651073D01*
X94409198Y-105661798D01*
X94398473Y-105671519D01*
X94386847Y-105680142D01*
X94374431Y-105687583D01*
X94361346Y-105693772D01*
X94347717Y-105698649D01*
X94333676Y-105702166D01*
X94319358Y-105704290D01*
X94304900Y-105705000D01*
X93959900Y-105705000D01*
X93945442Y-105704290D01*
X93931124Y-105702166D01*
X93917083Y-105698649D01*
X93903454Y-105693772D01*
X93890369Y-105687583D01*
X93877953Y-105680142D01*
X93866327Y-105671519D01*
X93855602Y-105661798D01*
X93845881Y-105651073D01*
X93837258Y-105639447D01*
X93829817Y-105627031D01*
X93823628Y-105613946D01*
X93818751Y-105600317D01*
X93815234Y-105586276D01*
X93813110Y-105571958D01*
X93812400Y-105557500D01*
X93812400Y-105262500D01*
X93813110Y-105248042D01*
X93815234Y-105233724D01*
X93818751Y-105219683D01*
X93823628Y-105206054D01*
X93829817Y-105192969D01*
X93837258Y-105180553D01*
X93845881Y-105168927D01*
X93855602Y-105158202D01*
X93866327Y-105148481D01*
X93877953Y-105139858D01*
X93890369Y-105132417D01*
X93903454Y-105126228D01*
X93917083Y-105121351D01*
X93931124Y-105117834D01*
X93945442Y-105115710D01*
X93959900Y-105115000D01*
X94304900Y-105115000D01*
X94319358Y-105115710D01*
G37*
G36*
X96351358Y-93180110D02*
G01*
X96365676Y-93182234D01*
X96379717Y-93185751D01*
X96393346Y-93190628D01*
X96406431Y-93196817D01*
X96418847Y-93204258D01*
X96430473Y-93212881D01*
X96441198Y-93222602D01*
X96450919Y-93233327D01*
X96459542Y-93244953D01*
X96466983Y-93257369D01*
X96473172Y-93270454D01*
X96478049Y-93284083D01*
X96481566Y-93298124D01*
X96483690Y-93312442D01*
X96484400Y-93326900D01*
X96484400Y-93621900D01*
X96483690Y-93636358D01*
X96481566Y-93650676D01*
X96478049Y-93664717D01*
X96473172Y-93678346D01*
X96466983Y-93691431D01*
X96459542Y-93703847D01*
X96450919Y-93715473D01*
X96441198Y-93726198D01*
X96430473Y-93735919D01*
X96418847Y-93744542D01*
X96406431Y-93751983D01*
X96393346Y-93758172D01*
X96379717Y-93763049D01*
X96365676Y-93766566D01*
X96351358Y-93768690D01*
X96336900Y-93769400D01*
X95991900Y-93769400D01*
X95977442Y-93768690D01*
X95963124Y-93766566D01*
X95949083Y-93763049D01*
X95935454Y-93758172D01*
X95922369Y-93751983D01*
X95909953Y-93744542D01*
X95898327Y-93735919D01*
X95887602Y-93726198D01*
X95877881Y-93715473D01*
X95869258Y-93703847D01*
X95861817Y-93691431D01*
X95855628Y-93678346D01*
X95850751Y-93664717D01*
X95847234Y-93650676D01*
X95845110Y-93636358D01*
X95844400Y-93621900D01*
X95844400Y-93326900D01*
X95845110Y-93312442D01*
X95847234Y-93298124D01*
X95850751Y-93284083D01*
X95855628Y-93270454D01*
X95861817Y-93257369D01*
X95869258Y-93244953D01*
X95877881Y-93233327D01*
X95887602Y-93222602D01*
X95898327Y-93212881D01*
X95909953Y-93204258D01*
X95922369Y-93196817D01*
X95935454Y-93190628D01*
X95949083Y-93185751D01*
X95963124Y-93182234D01*
X95977442Y-93180110D01*
X95991900Y-93179400D01*
X96336900Y-93179400D01*
X96351358Y-93180110D01*
G37*
G36*
X96351358Y-92210110D02*
G01*
X96365676Y-92212234D01*
X96379717Y-92215751D01*
X96393346Y-92220628D01*
X96406431Y-92226817D01*
X96418847Y-92234258D01*
X96430473Y-92242881D01*
X96441198Y-92252602D01*
X96450919Y-92263327D01*
X96459542Y-92274953D01*
X96466983Y-92287369D01*
X96473172Y-92300454D01*
X96478049Y-92314083D01*
X96481566Y-92328124D01*
X96483690Y-92342442D01*
X96484400Y-92356900D01*
X96484400Y-92651900D01*
X96483690Y-92666358D01*
X96481566Y-92680676D01*
X96478049Y-92694717D01*
X96473172Y-92708346D01*
X96466983Y-92721431D01*
X96459542Y-92733847D01*
X96450919Y-92745473D01*
X96441198Y-92756198D01*
X96430473Y-92765919D01*
X96418847Y-92774542D01*
X96406431Y-92781983D01*
X96393346Y-92788172D01*
X96379717Y-92793049D01*
X96365676Y-92796566D01*
X96351358Y-92798690D01*
X96336900Y-92799400D01*
X95991900Y-92799400D01*
X95977442Y-92798690D01*
X95963124Y-92796566D01*
X95949083Y-92793049D01*
X95935454Y-92788172D01*
X95922369Y-92781983D01*
X95909953Y-92774542D01*
X95898327Y-92765919D01*
X95887602Y-92756198D01*
X95877881Y-92745473D01*
X95869258Y-92733847D01*
X95861817Y-92721431D01*
X95855628Y-92708346D01*
X95850751Y-92694717D01*
X95847234Y-92680676D01*
X95845110Y-92666358D01*
X95844400Y-92651900D01*
X95844400Y-92356900D01*
X95845110Y-92342442D01*
X95847234Y-92328124D01*
X95850751Y-92314083D01*
X95855628Y-92300454D01*
X95861817Y-92287369D01*
X95869258Y-92274953D01*
X95877881Y-92263327D01*
X95887602Y-92252602D01*
X95898327Y-92242881D01*
X95909953Y-92234258D01*
X95922369Y-92226817D01*
X95935454Y-92220628D01*
X95949083Y-92215751D01*
X95963124Y-92212234D01*
X95977442Y-92210110D01*
X95991900Y-92209400D01*
X96336900Y-92209400D01*
X96351358Y-92210110D01*
G37*
G36*
X92795358Y-92187110D02*
G01*
X92809676Y-92189234D01*
X92823717Y-92192751D01*
X92837346Y-92197628D01*
X92850431Y-92203817D01*
X92862847Y-92211258D01*
X92874473Y-92219881D01*
X92885198Y-92229602D01*
X92894919Y-92240327D01*
X92903542Y-92251953D01*
X92910983Y-92264369D01*
X92917172Y-92277454D01*
X92922049Y-92291083D01*
X92925566Y-92305124D01*
X92927690Y-92319442D01*
X92928400Y-92333900D01*
X92928400Y-92628900D01*
X92927690Y-92643358D01*
X92925566Y-92657676D01*
X92922049Y-92671717D01*
X92917172Y-92685346D01*
X92910983Y-92698431D01*
X92903542Y-92710847D01*
X92894919Y-92722473D01*
X92885198Y-92733198D01*
X92874473Y-92742919D01*
X92862847Y-92751542D01*
X92850431Y-92758983D01*
X92837346Y-92765172D01*
X92823717Y-92770049D01*
X92809676Y-92773566D01*
X92795358Y-92775690D01*
X92780900Y-92776400D01*
X92435900Y-92776400D01*
X92421442Y-92775690D01*
X92407124Y-92773566D01*
X92393083Y-92770049D01*
X92379454Y-92765172D01*
X92366369Y-92758983D01*
X92353953Y-92751542D01*
X92342327Y-92742919D01*
X92331602Y-92733198D01*
X92321881Y-92722473D01*
X92313258Y-92710847D01*
X92305817Y-92698431D01*
X92299628Y-92685346D01*
X92294751Y-92671717D01*
X92291234Y-92657676D01*
X92289110Y-92643358D01*
X92288400Y-92628900D01*
X92288400Y-92333900D01*
X92289110Y-92319442D01*
X92291234Y-92305124D01*
X92294751Y-92291083D01*
X92299628Y-92277454D01*
X92305817Y-92264369D01*
X92313258Y-92251953D01*
X92321881Y-92240327D01*
X92331602Y-92229602D01*
X92342327Y-92219881D01*
X92353953Y-92211258D01*
X92366369Y-92203817D01*
X92379454Y-92197628D01*
X92393083Y-92192751D01*
X92407124Y-92189234D01*
X92421442Y-92187110D01*
X92435900Y-92186400D01*
X92780900Y-92186400D01*
X92795358Y-92187110D01*
G37*
G36*
X92795358Y-93157110D02*
G01*
X92809676Y-93159234D01*
X92823717Y-93162751D01*
X92837346Y-93167628D01*
X92850431Y-93173817D01*
X92862847Y-93181258D01*
X92874473Y-93189881D01*
X92885198Y-93199602D01*
X92894919Y-93210327D01*
X92903542Y-93221953D01*
X92910983Y-93234369D01*
X92917172Y-93247454D01*
X92922049Y-93261083D01*
X92925566Y-93275124D01*
X92927690Y-93289442D01*
X92928400Y-93303900D01*
X92928400Y-93598900D01*
X92927690Y-93613358D01*
X92925566Y-93627676D01*
X92922049Y-93641717D01*
X92917172Y-93655346D01*
X92910983Y-93668431D01*
X92903542Y-93680847D01*
X92894919Y-93692473D01*
X92885198Y-93703198D01*
X92874473Y-93712919D01*
X92862847Y-93721542D01*
X92850431Y-93728983D01*
X92837346Y-93735172D01*
X92823717Y-93740049D01*
X92809676Y-93743566D01*
X92795358Y-93745690D01*
X92780900Y-93746400D01*
X92435900Y-93746400D01*
X92421442Y-93745690D01*
X92407124Y-93743566D01*
X92393083Y-93740049D01*
X92379454Y-93735172D01*
X92366369Y-93728983D01*
X92353953Y-93721542D01*
X92342327Y-93712919D01*
X92331602Y-93703198D01*
X92321881Y-93692473D01*
X92313258Y-93680847D01*
X92305817Y-93668431D01*
X92299628Y-93655346D01*
X92294751Y-93641717D01*
X92291234Y-93627676D01*
X92289110Y-93613358D01*
X92288400Y-93598900D01*
X92288400Y-93303900D01*
X92289110Y-93289442D01*
X92291234Y-93275124D01*
X92294751Y-93261083D01*
X92299628Y-93247454D01*
X92305817Y-93234369D01*
X92313258Y-93221953D01*
X92321881Y-93210327D01*
X92331602Y-93199602D01*
X92342327Y-93189881D01*
X92353953Y-93181258D01*
X92366369Y-93173817D01*
X92379454Y-93167628D01*
X92393083Y-93162751D01*
X92407124Y-93159234D01*
X92421442Y-93157110D01*
X92435900Y-93156400D01*
X92780900Y-93156400D01*
X92795358Y-93157110D01*
G37*
G36*
X93811358Y-93180110D02*
G01*
X93825676Y-93182234D01*
X93839717Y-93185751D01*
X93853346Y-93190628D01*
X93866431Y-93196817D01*
X93878847Y-93204258D01*
X93890473Y-93212881D01*
X93901198Y-93222602D01*
X93910919Y-93233327D01*
X93919542Y-93244953D01*
X93926983Y-93257369D01*
X93933172Y-93270454D01*
X93938049Y-93284083D01*
X93941566Y-93298124D01*
X93943690Y-93312442D01*
X93944400Y-93326900D01*
X93944400Y-93621900D01*
X93943690Y-93636358D01*
X93941566Y-93650676D01*
X93938049Y-93664717D01*
X93933172Y-93678346D01*
X93926983Y-93691431D01*
X93919542Y-93703847D01*
X93910919Y-93715473D01*
X93901198Y-93726198D01*
X93890473Y-93735919D01*
X93878847Y-93744542D01*
X93866431Y-93751983D01*
X93853346Y-93758172D01*
X93839717Y-93763049D01*
X93825676Y-93766566D01*
X93811358Y-93768690D01*
X93796900Y-93769400D01*
X93451900Y-93769400D01*
X93437442Y-93768690D01*
X93423124Y-93766566D01*
X93409083Y-93763049D01*
X93395454Y-93758172D01*
X93382369Y-93751983D01*
X93369953Y-93744542D01*
X93358327Y-93735919D01*
X93347602Y-93726198D01*
X93337881Y-93715473D01*
X93329258Y-93703847D01*
X93321817Y-93691431D01*
X93315628Y-93678346D01*
X93310751Y-93664717D01*
X93307234Y-93650676D01*
X93305110Y-93636358D01*
X93304400Y-93621900D01*
X93304400Y-93326900D01*
X93305110Y-93312442D01*
X93307234Y-93298124D01*
X93310751Y-93284083D01*
X93315628Y-93270454D01*
X93321817Y-93257369D01*
X93329258Y-93244953D01*
X93337881Y-93233327D01*
X93347602Y-93222602D01*
X93358327Y-93212881D01*
X93369953Y-93204258D01*
X93382369Y-93196817D01*
X93395454Y-93190628D01*
X93409083Y-93185751D01*
X93423124Y-93182234D01*
X93437442Y-93180110D01*
X93451900Y-93179400D01*
X93796900Y-93179400D01*
X93811358Y-93180110D01*
G37*
G36*
X93811358Y-92210110D02*
G01*
X93825676Y-92212234D01*
X93839717Y-92215751D01*
X93853346Y-92220628D01*
X93866431Y-92226817D01*
X93878847Y-92234258D01*
X93890473Y-92242881D01*
X93901198Y-92252602D01*
X93910919Y-92263327D01*
X93919542Y-92274953D01*
X93926983Y-92287369D01*
X93933172Y-92300454D01*
X93938049Y-92314083D01*
X93941566Y-92328124D01*
X93943690Y-92342442D01*
X93944400Y-92356900D01*
X93944400Y-92651900D01*
X93943690Y-92666358D01*
X93941566Y-92680676D01*
X93938049Y-92694717D01*
X93933172Y-92708346D01*
X93926983Y-92721431D01*
X93919542Y-92733847D01*
X93910919Y-92745473D01*
X93901198Y-92756198D01*
X93890473Y-92765919D01*
X93878847Y-92774542D01*
X93866431Y-92781983D01*
X93853346Y-92788172D01*
X93839717Y-92793049D01*
X93825676Y-92796566D01*
X93811358Y-92798690D01*
X93796900Y-92799400D01*
X93451900Y-92799400D01*
X93437442Y-92798690D01*
X93423124Y-92796566D01*
X93409083Y-92793049D01*
X93395454Y-92788172D01*
X93382369Y-92781983D01*
X93369953Y-92774542D01*
X93358327Y-92765919D01*
X93347602Y-92756198D01*
X93337881Y-92745473D01*
X93329258Y-92733847D01*
X93321817Y-92721431D01*
X93315628Y-92708346D01*
X93310751Y-92694717D01*
X93307234Y-92680676D01*
X93305110Y-92666358D01*
X93304400Y-92651900D01*
X93304400Y-92356900D01*
X93305110Y-92342442D01*
X93307234Y-92328124D01*
X93310751Y-92314083D01*
X93315628Y-92300454D01*
X93321817Y-92287369D01*
X93329258Y-92274953D01*
X93337881Y-92263327D01*
X93347602Y-92252602D01*
X93358327Y-92242881D01*
X93369953Y-92234258D01*
X93382369Y-92226817D01*
X93395454Y-92220628D01*
X93409083Y-92215751D01*
X93423124Y-92212234D01*
X93437442Y-92210110D01*
X93451900Y-92209400D01*
X93796900Y-92209400D01*
X93811358Y-92210110D01*
G37*
G36*
X96478358Y-100719110D02*
G01*
X96492676Y-100721234D01*
X96506717Y-100724751D01*
X96520346Y-100729628D01*
X96533431Y-100735817D01*
X96545847Y-100743258D01*
X96557473Y-100751881D01*
X96568198Y-100761602D01*
X96577919Y-100772327D01*
X96586542Y-100783953D01*
X96593983Y-100796369D01*
X96600172Y-100809454D01*
X96605049Y-100823083D01*
X96608566Y-100837124D01*
X96610690Y-100851442D01*
X96611400Y-100865900D01*
X96611400Y-101160900D01*
X96610690Y-101175358D01*
X96608566Y-101189676D01*
X96605049Y-101203717D01*
X96600172Y-101217346D01*
X96593983Y-101230431D01*
X96586542Y-101242847D01*
X96577919Y-101254473D01*
X96568198Y-101265198D01*
X96557473Y-101274919D01*
X96545847Y-101283542D01*
X96533431Y-101290983D01*
X96520346Y-101297172D01*
X96506717Y-101302049D01*
X96492676Y-101305566D01*
X96478358Y-101307690D01*
X96463900Y-101308400D01*
X96118900Y-101308400D01*
X96104442Y-101307690D01*
X96090124Y-101305566D01*
X96076083Y-101302049D01*
X96062454Y-101297172D01*
X96049369Y-101290983D01*
X96036953Y-101283542D01*
X96025327Y-101274919D01*
X96014602Y-101265198D01*
X96004881Y-101254473D01*
X95996258Y-101242847D01*
X95988817Y-101230431D01*
X95982628Y-101217346D01*
X95977751Y-101203717D01*
X95974234Y-101189676D01*
X95972110Y-101175358D01*
X95971400Y-101160900D01*
X95971400Y-100865900D01*
X95972110Y-100851442D01*
X95974234Y-100837124D01*
X95977751Y-100823083D01*
X95982628Y-100809454D01*
X95988817Y-100796369D01*
X95996258Y-100783953D01*
X96004881Y-100772327D01*
X96014602Y-100761602D01*
X96025327Y-100751881D01*
X96036953Y-100743258D01*
X96049369Y-100735817D01*
X96062454Y-100729628D01*
X96076083Y-100724751D01*
X96090124Y-100721234D01*
X96104442Y-100719110D01*
X96118900Y-100718400D01*
X96463900Y-100718400D01*
X96478358Y-100719110D01*
G37*
G36*
X96478358Y-101689110D02*
G01*
X96492676Y-101691234D01*
X96506717Y-101694751D01*
X96520346Y-101699628D01*
X96533431Y-101705817D01*
X96545847Y-101713258D01*
X96557473Y-101721881D01*
X96568198Y-101731602D01*
X96577919Y-101742327D01*
X96586542Y-101753953D01*
X96593983Y-101766369D01*
X96600172Y-101779454D01*
X96605049Y-101793083D01*
X96608566Y-101807124D01*
X96610690Y-101821442D01*
X96611400Y-101835900D01*
X96611400Y-102130900D01*
X96610690Y-102145358D01*
X96608566Y-102159676D01*
X96605049Y-102173717D01*
X96600172Y-102187346D01*
X96593983Y-102200431D01*
X96586542Y-102212847D01*
X96577919Y-102224473D01*
X96568198Y-102235198D01*
X96557473Y-102244919D01*
X96545847Y-102253542D01*
X96533431Y-102260983D01*
X96520346Y-102267172D01*
X96506717Y-102272049D01*
X96492676Y-102275566D01*
X96478358Y-102277690D01*
X96463900Y-102278400D01*
X96118900Y-102278400D01*
X96104442Y-102277690D01*
X96090124Y-102275566D01*
X96076083Y-102272049D01*
X96062454Y-102267172D01*
X96049369Y-102260983D01*
X96036953Y-102253542D01*
X96025327Y-102244919D01*
X96014602Y-102235198D01*
X96004881Y-102224473D01*
X95996258Y-102212847D01*
X95988817Y-102200431D01*
X95982628Y-102187346D01*
X95977751Y-102173717D01*
X95974234Y-102159676D01*
X95972110Y-102145358D01*
X95971400Y-102130900D01*
X95971400Y-101835900D01*
X95972110Y-101821442D01*
X95974234Y-101807124D01*
X95977751Y-101793083D01*
X95982628Y-101779454D01*
X95988817Y-101766369D01*
X95996258Y-101753953D01*
X96004881Y-101742327D01*
X96014602Y-101731602D01*
X96025327Y-101721881D01*
X96036953Y-101713258D01*
X96049369Y-101705817D01*
X96062454Y-101699628D01*
X96076083Y-101694751D01*
X96090124Y-101691234D01*
X96104442Y-101689110D01*
X96118900Y-101688400D01*
X96463900Y-101688400D01*
X96478358Y-101689110D01*
G37*
G36*
X91650358Y-99401110D02*
G01*
X91664676Y-99403234D01*
X91678717Y-99406751D01*
X91692346Y-99411628D01*
X91705431Y-99417817D01*
X91717847Y-99425258D01*
X91729473Y-99433881D01*
X91740198Y-99443602D01*
X91749919Y-99454327D01*
X91758542Y-99465953D01*
X91765983Y-99478369D01*
X91772172Y-99491454D01*
X91777049Y-99505083D01*
X91780566Y-99519124D01*
X91782690Y-99533442D01*
X91783400Y-99547900D01*
X91783400Y-99892900D01*
X91782690Y-99907358D01*
X91780566Y-99921676D01*
X91777049Y-99935717D01*
X91772172Y-99949346D01*
X91765983Y-99962431D01*
X91758542Y-99974847D01*
X91749919Y-99986473D01*
X91740198Y-99997198D01*
X91729473Y-100006919D01*
X91717847Y-100015542D01*
X91705431Y-100022983D01*
X91692346Y-100029172D01*
X91678717Y-100034049D01*
X91664676Y-100037566D01*
X91650358Y-100039690D01*
X91635900Y-100040400D01*
X91340900Y-100040400D01*
X91326442Y-100039690D01*
X91312124Y-100037566D01*
X91298083Y-100034049D01*
X91284454Y-100029172D01*
X91271369Y-100022983D01*
X91258953Y-100015542D01*
X91247327Y-100006919D01*
X91236602Y-99997198D01*
X91226881Y-99986473D01*
X91218258Y-99974847D01*
X91210817Y-99962431D01*
X91204628Y-99949346D01*
X91199751Y-99935717D01*
X91196234Y-99921676D01*
X91194110Y-99907358D01*
X91193400Y-99892900D01*
X91193400Y-99547900D01*
X91194110Y-99533442D01*
X91196234Y-99519124D01*
X91199751Y-99505083D01*
X91204628Y-99491454D01*
X91210817Y-99478369D01*
X91218258Y-99465953D01*
X91226881Y-99454327D01*
X91236602Y-99443602D01*
X91247327Y-99433881D01*
X91258953Y-99425258D01*
X91271369Y-99417817D01*
X91284454Y-99411628D01*
X91298083Y-99406751D01*
X91312124Y-99403234D01*
X91326442Y-99401110D01*
X91340900Y-99400400D01*
X91635900Y-99400400D01*
X91650358Y-99401110D01*
G37*
G36*
X92620358Y-99401110D02*
G01*
X92634676Y-99403234D01*
X92648717Y-99406751D01*
X92662346Y-99411628D01*
X92675431Y-99417817D01*
X92687847Y-99425258D01*
X92699473Y-99433881D01*
X92710198Y-99443602D01*
X92719919Y-99454327D01*
X92728542Y-99465953D01*
X92735983Y-99478369D01*
X92742172Y-99491454D01*
X92747049Y-99505083D01*
X92750566Y-99519124D01*
X92752690Y-99533442D01*
X92753400Y-99547900D01*
X92753400Y-99892900D01*
X92752690Y-99907358D01*
X92750566Y-99921676D01*
X92747049Y-99935717D01*
X92742172Y-99949346D01*
X92735983Y-99962431D01*
X92728542Y-99974847D01*
X92719919Y-99986473D01*
X92710198Y-99997198D01*
X92699473Y-100006919D01*
X92687847Y-100015542D01*
X92675431Y-100022983D01*
X92662346Y-100029172D01*
X92648717Y-100034049D01*
X92634676Y-100037566D01*
X92620358Y-100039690D01*
X92605900Y-100040400D01*
X92310900Y-100040400D01*
X92296442Y-100039690D01*
X92282124Y-100037566D01*
X92268083Y-100034049D01*
X92254454Y-100029172D01*
X92241369Y-100022983D01*
X92228953Y-100015542D01*
X92217327Y-100006919D01*
X92206602Y-99997198D01*
X92196881Y-99986473D01*
X92188258Y-99974847D01*
X92180817Y-99962431D01*
X92174628Y-99949346D01*
X92169751Y-99935717D01*
X92166234Y-99921676D01*
X92164110Y-99907358D01*
X92163400Y-99892900D01*
X92163400Y-99547900D01*
X92164110Y-99533442D01*
X92166234Y-99519124D01*
X92169751Y-99505083D01*
X92174628Y-99491454D01*
X92180817Y-99478369D01*
X92188258Y-99465953D01*
X92196881Y-99454327D01*
X92206602Y-99443602D01*
X92217327Y-99433881D01*
X92228953Y-99425258D01*
X92241369Y-99417817D01*
X92254454Y-99411628D01*
X92268083Y-99406751D01*
X92282124Y-99403234D01*
X92296442Y-99401110D01*
X92310900Y-99400400D01*
X92605900Y-99400400D01*
X92620358Y-99401110D01*
G37*
G36*
X95483358Y-98893110D02*
G01*
X95497676Y-98895234D01*
X95511717Y-98898751D01*
X95525346Y-98903628D01*
X95538431Y-98909817D01*
X95550847Y-98917258D01*
X95562473Y-98925881D01*
X95573198Y-98935602D01*
X95582919Y-98946327D01*
X95591542Y-98957953D01*
X95598983Y-98970369D01*
X95605172Y-98983454D01*
X95610049Y-98997083D01*
X95613566Y-99011124D01*
X95615690Y-99025442D01*
X95616400Y-99039900D01*
X95616400Y-99384900D01*
X95615690Y-99399358D01*
X95613566Y-99413676D01*
X95610049Y-99427717D01*
X95605172Y-99441346D01*
X95598983Y-99454431D01*
X95591542Y-99466847D01*
X95582919Y-99478473D01*
X95573198Y-99489198D01*
X95562473Y-99498919D01*
X95550847Y-99507542D01*
X95538431Y-99514983D01*
X95525346Y-99521172D01*
X95511717Y-99526049D01*
X95497676Y-99529566D01*
X95483358Y-99531690D01*
X95468900Y-99532400D01*
X95173900Y-99532400D01*
X95159442Y-99531690D01*
X95145124Y-99529566D01*
X95131083Y-99526049D01*
X95117454Y-99521172D01*
X95104369Y-99514983D01*
X95091953Y-99507542D01*
X95080327Y-99498919D01*
X95069602Y-99489198D01*
X95059881Y-99478473D01*
X95051258Y-99466847D01*
X95043817Y-99454431D01*
X95037628Y-99441346D01*
X95032751Y-99427717D01*
X95029234Y-99413676D01*
X95027110Y-99399358D01*
X95026400Y-99384900D01*
X95026400Y-99039900D01*
X95027110Y-99025442D01*
X95029234Y-99011124D01*
X95032751Y-98997083D01*
X95037628Y-98983454D01*
X95043817Y-98970369D01*
X95051258Y-98957953D01*
X95059881Y-98946327D01*
X95069602Y-98935602D01*
X95080327Y-98925881D01*
X95091953Y-98917258D01*
X95104369Y-98909817D01*
X95117454Y-98903628D01*
X95131083Y-98898751D01*
X95145124Y-98895234D01*
X95159442Y-98893110D01*
X95173900Y-98892400D01*
X95468900Y-98892400D01*
X95483358Y-98893110D01*
G37*
G36*
X96453358Y-98893110D02*
G01*
X96467676Y-98895234D01*
X96481717Y-98898751D01*
X96495346Y-98903628D01*
X96508431Y-98909817D01*
X96520847Y-98917258D01*
X96532473Y-98925881D01*
X96543198Y-98935602D01*
X96552919Y-98946327D01*
X96561542Y-98957953D01*
X96568983Y-98970369D01*
X96575172Y-98983454D01*
X96580049Y-98997083D01*
X96583566Y-99011124D01*
X96585690Y-99025442D01*
X96586400Y-99039900D01*
X96586400Y-99384900D01*
X96585690Y-99399358D01*
X96583566Y-99413676D01*
X96580049Y-99427717D01*
X96575172Y-99441346D01*
X96568983Y-99454431D01*
X96561542Y-99466847D01*
X96552919Y-99478473D01*
X96543198Y-99489198D01*
X96532473Y-99498919D01*
X96520847Y-99507542D01*
X96508431Y-99514983D01*
X96495346Y-99521172D01*
X96481717Y-99526049D01*
X96467676Y-99529566D01*
X96453358Y-99531690D01*
X96438900Y-99532400D01*
X96143900Y-99532400D01*
X96129442Y-99531690D01*
X96115124Y-99529566D01*
X96101083Y-99526049D01*
X96087454Y-99521172D01*
X96074369Y-99514983D01*
X96061953Y-99507542D01*
X96050327Y-99498919D01*
X96039602Y-99489198D01*
X96029881Y-99478473D01*
X96021258Y-99466847D01*
X96013817Y-99454431D01*
X96007628Y-99441346D01*
X96002751Y-99427717D01*
X95999234Y-99413676D01*
X95997110Y-99399358D01*
X95996400Y-99384900D01*
X95996400Y-99039900D01*
X95997110Y-99025442D01*
X95999234Y-99011124D01*
X96002751Y-98997083D01*
X96007628Y-98983454D01*
X96013817Y-98970369D01*
X96021258Y-98957953D01*
X96029881Y-98946327D01*
X96039602Y-98935602D01*
X96050327Y-98925881D01*
X96061953Y-98917258D01*
X96074369Y-98909817D01*
X96087454Y-98903628D01*
X96101083Y-98898751D01*
X96115124Y-98895234D01*
X96129442Y-98893110D01*
X96143900Y-98892400D01*
X96438900Y-98892400D01*
X96453358Y-98893110D01*
G37*
G36*
X91650358Y-98385110D02*
G01*
X91664676Y-98387234D01*
X91678717Y-98390751D01*
X91692346Y-98395628D01*
X91705431Y-98401817D01*
X91717847Y-98409258D01*
X91729473Y-98417881D01*
X91740198Y-98427602D01*
X91749919Y-98438327D01*
X91758542Y-98449953D01*
X91765983Y-98462369D01*
X91772172Y-98475454D01*
X91777049Y-98489083D01*
X91780566Y-98503124D01*
X91782690Y-98517442D01*
X91783400Y-98531900D01*
X91783400Y-98876900D01*
X91782690Y-98891358D01*
X91780566Y-98905676D01*
X91777049Y-98919717D01*
X91772172Y-98933346D01*
X91765983Y-98946431D01*
X91758542Y-98958847D01*
X91749919Y-98970473D01*
X91740198Y-98981198D01*
X91729473Y-98990919D01*
X91717847Y-98999542D01*
X91705431Y-99006983D01*
X91692346Y-99013172D01*
X91678717Y-99018049D01*
X91664676Y-99021566D01*
X91650358Y-99023690D01*
X91635900Y-99024400D01*
X91340900Y-99024400D01*
X91326442Y-99023690D01*
X91312124Y-99021566D01*
X91298083Y-99018049D01*
X91284454Y-99013172D01*
X91271369Y-99006983D01*
X91258953Y-98999542D01*
X91247327Y-98990919D01*
X91236602Y-98981198D01*
X91226881Y-98970473D01*
X91218258Y-98958847D01*
X91210817Y-98946431D01*
X91204628Y-98933346D01*
X91199751Y-98919717D01*
X91196234Y-98905676D01*
X91194110Y-98891358D01*
X91193400Y-98876900D01*
X91193400Y-98531900D01*
X91194110Y-98517442D01*
X91196234Y-98503124D01*
X91199751Y-98489083D01*
X91204628Y-98475454D01*
X91210817Y-98462369D01*
X91218258Y-98449953D01*
X91226881Y-98438327D01*
X91236602Y-98427602D01*
X91247327Y-98417881D01*
X91258953Y-98409258D01*
X91271369Y-98401817D01*
X91284454Y-98395628D01*
X91298083Y-98390751D01*
X91312124Y-98387234D01*
X91326442Y-98385110D01*
X91340900Y-98384400D01*
X91635900Y-98384400D01*
X91650358Y-98385110D01*
G37*
G36*
X92620358Y-98385110D02*
G01*
X92634676Y-98387234D01*
X92648717Y-98390751D01*
X92662346Y-98395628D01*
X92675431Y-98401817D01*
X92687847Y-98409258D01*
X92699473Y-98417881D01*
X92710198Y-98427602D01*
X92719919Y-98438327D01*
X92728542Y-98449953D01*
X92735983Y-98462369D01*
X92742172Y-98475454D01*
X92747049Y-98489083D01*
X92750566Y-98503124D01*
X92752690Y-98517442D01*
X92753400Y-98531900D01*
X92753400Y-98876900D01*
X92752690Y-98891358D01*
X92750566Y-98905676D01*
X92747049Y-98919717D01*
X92742172Y-98933346D01*
X92735983Y-98946431D01*
X92728542Y-98958847D01*
X92719919Y-98970473D01*
X92710198Y-98981198D01*
X92699473Y-98990919D01*
X92687847Y-98999542D01*
X92675431Y-99006983D01*
X92662346Y-99013172D01*
X92648717Y-99018049D01*
X92634676Y-99021566D01*
X92620358Y-99023690D01*
X92605900Y-99024400D01*
X92310900Y-99024400D01*
X92296442Y-99023690D01*
X92282124Y-99021566D01*
X92268083Y-99018049D01*
X92254454Y-99013172D01*
X92241369Y-99006983D01*
X92228953Y-98999542D01*
X92217327Y-98990919D01*
X92206602Y-98981198D01*
X92196881Y-98970473D01*
X92188258Y-98958847D01*
X92180817Y-98946431D01*
X92174628Y-98933346D01*
X92169751Y-98919717D01*
X92166234Y-98905676D01*
X92164110Y-98891358D01*
X92163400Y-98876900D01*
X92163400Y-98531900D01*
X92164110Y-98517442D01*
X92166234Y-98503124D01*
X92169751Y-98489083D01*
X92174628Y-98475454D01*
X92180817Y-98462369D01*
X92188258Y-98449953D01*
X92196881Y-98438327D01*
X92206602Y-98427602D01*
X92217327Y-98417881D01*
X92228953Y-98409258D01*
X92241369Y-98401817D01*
X92254454Y-98395628D01*
X92268083Y-98390751D01*
X92282124Y-98387234D01*
X92296442Y-98385110D01*
X92310900Y-98384400D01*
X92605900Y-98384400D01*
X92620358Y-98385110D01*
G37*
G36*
X79285358Y-112736110D02*
G01*
X79299676Y-112738234D01*
X79313717Y-112741751D01*
X79327346Y-112746628D01*
X79340431Y-112752817D01*
X79352847Y-112760258D01*
X79364473Y-112768881D01*
X79375198Y-112778602D01*
X79384919Y-112789327D01*
X79393542Y-112800953D01*
X79400983Y-112813369D01*
X79407172Y-112826454D01*
X79412049Y-112840083D01*
X79415566Y-112854124D01*
X79417690Y-112868442D01*
X79418400Y-112882900D01*
X79418400Y-113227900D01*
X79417690Y-113242358D01*
X79415566Y-113256676D01*
X79412049Y-113270717D01*
X79407172Y-113284346D01*
X79400983Y-113297431D01*
X79393542Y-113309847D01*
X79384919Y-113321473D01*
X79375198Y-113332198D01*
X79364473Y-113341919D01*
X79352847Y-113350542D01*
X79340431Y-113357983D01*
X79327346Y-113364172D01*
X79313717Y-113369049D01*
X79299676Y-113372566D01*
X79285358Y-113374690D01*
X79270900Y-113375400D01*
X78975900Y-113375400D01*
X78961442Y-113374690D01*
X78947124Y-113372566D01*
X78933083Y-113369049D01*
X78919454Y-113364172D01*
X78906369Y-113357983D01*
X78893953Y-113350542D01*
X78882327Y-113341919D01*
X78871602Y-113332198D01*
X78861881Y-113321473D01*
X78853258Y-113309847D01*
X78845817Y-113297431D01*
X78839628Y-113284346D01*
X78834751Y-113270717D01*
X78831234Y-113256676D01*
X78829110Y-113242358D01*
X78828400Y-113227900D01*
X78828400Y-112882900D01*
X78829110Y-112868442D01*
X78831234Y-112854124D01*
X78834751Y-112840083D01*
X78839628Y-112826454D01*
X78845817Y-112813369D01*
X78853258Y-112800953D01*
X78861881Y-112789327D01*
X78871602Y-112778602D01*
X78882327Y-112768881D01*
X78893953Y-112760258D01*
X78906369Y-112752817D01*
X78919454Y-112746628D01*
X78933083Y-112741751D01*
X78947124Y-112738234D01*
X78961442Y-112736110D01*
X78975900Y-112735400D01*
X79270900Y-112735400D01*
X79285358Y-112736110D01*
G37*
G36*
X78315358Y-112736110D02*
G01*
X78329676Y-112738234D01*
X78343717Y-112741751D01*
X78357346Y-112746628D01*
X78370431Y-112752817D01*
X78382847Y-112760258D01*
X78394473Y-112768881D01*
X78405198Y-112778602D01*
X78414919Y-112789327D01*
X78423542Y-112800953D01*
X78430983Y-112813369D01*
X78437172Y-112826454D01*
X78442049Y-112840083D01*
X78445566Y-112854124D01*
X78447690Y-112868442D01*
X78448400Y-112882900D01*
X78448400Y-113227900D01*
X78447690Y-113242358D01*
X78445566Y-113256676D01*
X78442049Y-113270717D01*
X78437172Y-113284346D01*
X78430983Y-113297431D01*
X78423542Y-113309847D01*
X78414919Y-113321473D01*
X78405198Y-113332198D01*
X78394473Y-113341919D01*
X78382847Y-113350542D01*
X78370431Y-113357983D01*
X78357346Y-113364172D01*
X78343717Y-113369049D01*
X78329676Y-113372566D01*
X78315358Y-113374690D01*
X78300900Y-113375400D01*
X78005900Y-113375400D01*
X77991442Y-113374690D01*
X77977124Y-113372566D01*
X77963083Y-113369049D01*
X77949454Y-113364172D01*
X77936369Y-113357983D01*
X77923953Y-113350542D01*
X77912327Y-113341919D01*
X77901602Y-113332198D01*
X77891881Y-113321473D01*
X77883258Y-113309847D01*
X77875817Y-113297431D01*
X77869628Y-113284346D01*
X77864751Y-113270717D01*
X77861234Y-113256676D01*
X77859110Y-113242358D01*
X77858400Y-113227900D01*
X77858400Y-112882900D01*
X77859110Y-112868442D01*
X77861234Y-112854124D01*
X77864751Y-112840083D01*
X77869628Y-112826454D01*
X77875817Y-112813369D01*
X77883258Y-112800953D01*
X77891881Y-112789327D01*
X77901602Y-112778602D01*
X77912327Y-112768881D01*
X77923953Y-112760258D01*
X77936369Y-112752817D01*
X77949454Y-112746628D01*
X77963083Y-112741751D01*
X77977124Y-112738234D01*
X77991442Y-112736110D01*
X78005900Y-112735400D01*
X78300900Y-112735400D01*
X78315358Y-112736110D01*
G37*
G36*
X82206358Y-122896110D02*
G01*
X82220676Y-122898234D01*
X82234717Y-122901751D01*
X82248346Y-122906628D01*
X82261431Y-122912817D01*
X82273847Y-122920258D01*
X82285473Y-122928881D01*
X82296198Y-122938602D01*
X82305919Y-122949327D01*
X82314542Y-122960953D01*
X82321983Y-122973369D01*
X82328172Y-122986454D01*
X82333049Y-123000083D01*
X82336566Y-123014124D01*
X82338690Y-123028442D01*
X82339400Y-123042900D01*
X82339400Y-123387900D01*
X82338690Y-123402358D01*
X82336566Y-123416676D01*
X82333049Y-123430717D01*
X82328172Y-123444346D01*
X82321983Y-123457431D01*
X82314542Y-123469847D01*
X82305919Y-123481473D01*
X82296198Y-123492198D01*
X82285473Y-123501919D01*
X82273847Y-123510542D01*
X82261431Y-123517983D01*
X82248346Y-123524172D01*
X82234717Y-123529049D01*
X82220676Y-123532566D01*
X82206358Y-123534690D01*
X82191900Y-123535400D01*
X81896900Y-123535400D01*
X81882442Y-123534690D01*
X81868124Y-123532566D01*
X81854083Y-123529049D01*
X81840454Y-123524172D01*
X81827369Y-123517983D01*
X81814953Y-123510542D01*
X81803327Y-123501919D01*
X81792602Y-123492198D01*
X81782881Y-123481473D01*
X81774258Y-123469847D01*
X81766817Y-123457431D01*
X81760628Y-123444346D01*
X81755751Y-123430717D01*
X81752234Y-123416676D01*
X81750110Y-123402358D01*
X81749400Y-123387900D01*
X81749400Y-123042900D01*
X81750110Y-123028442D01*
X81752234Y-123014124D01*
X81755751Y-123000083D01*
X81760628Y-122986454D01*
X81766817Y-122973369D01*
X81774258Y-122960953D01*
X81782881Y-122949327D01*
X81792602Y-122938602D01*
X81803327Y-122928881D01*
X81814953Y-122920258D01*
X81827369Y-122912817D01*
X81840454Y-122906628D01*
X81854083Y-122901751D01*
X81868124Y-122898234D01*
X81882442Y-122896110D01*
X81896900Y-122895400D01*
X82191900Y-122895400D01*
X82206358Y-122896110D01*
G37*
G36*
X81236358Y-122896110D02*
G01*
X81250676Y-122898234D01*
X81264717Y-122901751D01*
X81278346Y-122906628D01*
X81291431Y-122912817D01*
X81303847Y-122920258D01*
X81315473Y-122928881D01*
X81326198Y-122938602D01*
X81335919Y-122949327D01*
X81344542Y-122960953D01*
X81351983Y-122973369D01*
X81358172Y-122986454D01*
X81363049Y-123000083D01*
X81366566Y-123014124D01*
X81368690Y-123028442D01*
X81369400Y-123042900D01*
X81369400Y-123387900D01*
X81368690Y-123402358D01*
X81366566Y-123416676D01*
X81363049Y-123430717D01*
X81358172Y-123444346D01*
X81351983Y-123457431D01*
X81344542Y-123469847D01*
X81335919Y-123481473D01*
X81326198Y-123492198D01*
X81315473Y-123501919D01*
X81303847Y-123510542D01*
X81291431Y-123517983D01*
X81278346Y-123524172D01*
X81264717Y-123529049D01*
X81250676Y-123532566D01*
X81236358Y-123534690D01*
X81221900Y-123535400D01*
X80926900Y-123535400D01*
X80912442Y-123534690D01*
X80898124Y-123532566D01*
X80884083Y-123529049D01*
X80870454Y-123524172D01*
X80857369Y-123517983D01*
X80844953Y-123510542D01*
X80833327Y-123501919D01*
X80822602Y-123492198D01*
X80812881Y-123481473D01*
X80804258Y-123469847D01*
X80796817Y-123457431D01*
X80790628Y-123444346D01*
X80785751Y-123430717D01*
X80782234Y-123416676D01*
X80780110Y-123402358D01*
X80779400Y-123387900D01*
X80779400Y-123042900D01*
X80780110Y-123028442D01*
X80782234Y-123014124D01*
X80785751Y-123000083D01*
X80790628Y-122986454D01*
X80796817Y-122973369D01*
X80804258Y-122960953D01*
X80812881Y-122949327D01*
X80822602Y-122938602D01*
X80833327Y-122928881D01*
X80844953Y-122920258D01*
X80857369Y-122912817D01*
X80870454Y-122906628D01*
X80884083Y-122901751D01*
X80898124Y-122898234D01*
X80912442Y-122896110D01*
X80926900Y-122895400D01*
X81221900Y-122895400D01*
X81236358Y-122896110D01*
G37*
G36*
X82206358Y-129500110D02*
G01*
X82220676Y-129502234D01*
X82234717Y-129505751D01*
X82248346Y-129510628D01*
X82261431Y-129516817D01*
X82273847Y-129524258D01*
X82285473Y-129532881D01*
X82296198Y-129542602D01*
X82305919Y-129553327D01*
X82314542Y-129564953D01*
X82321983Y-129577369D01*
X82328172Y-129590454D01*
X82333049Y-129604083D01*
X82336566Y-129618124D01*
X82338690Y-129632442D01*
X82339400Y-129646900D01*
X82339400Y-129991900D01*
X82338690Y-130006358D01*
X82336566Y-130020676D01*
X82333049Y-130034717D01*
X82328172Y-130048346D01*
X82321983Y-130061431D01*
X82314542Y-130073847D01*
X82305919Y-130085473D01*
X82296198Y-130096198D01*
X82285473Y-130105919D01*
X82273847Y-130114542D01*
X82261431Y-130121983D01*
X82248346Y-130128172D01*
X82234717Y-130133049D01*
X82220676Y-130136566D01*
X82206358Y-130138690D01*
X82191900Y-130139400D01*
X81896900Y-130139400D01*
X81882442Y-130138690D01*
X81868124Y-130136566D01*
X81854083Y-130133049D01*
X81840454Y-130128172D01*
X81827369Y-130121983D01*
X81814953Y-130114542D01*
X81803327Y-130105919D01*
X81792602Y-130096198D01*
X81782881Y-130085473D01*
X81774258Y-130073847D01*
X81766817Y-130061431D01*
X81760628Y-130048346D01*
X81755751Y-130034717D01*
X81752234Y-130020676D01*
X81750110Y-130006358D01*
X81749400Y-129991900D01*
X81749400Y-129646900D01*
X81750110Y-129632442D01*
X81752234Y-129618124D01*
X81755751Y-129604083D01*
X81760628Y-129590454D01*
X81766817Y-129577369D01*
X81774258Y-129564953D01*
X81782881Y-129553327D01*
X81792602Y-129542602D01*
X81803327Y-129532881D01*
X81814953Y-129524258D01*
X81827369Y-129516817D01*
X81840454Y-129510628D01*
X81854083Y-129505751D01*
X81868124Y-129502234D01*
X81882442Y-129500110D01*
X81896900Y-129499400D01*
X82191900Y-129499400D01*
X82206358Y-129500110D01*
G37*
G36*
X81236358Y-129500110D02*
G01*
X81250676Y-129502234D01*
X81264717Y-129505751D01*
X81278346Y-129510628D01*
X81291431Y-129516817D01*
X81303847Y-129524258D01*
X81315473Y-129532881D01*
X81326198Y-129542602D01*
X81335919Y-129553327D01*
X81344542Y-129564953D01*
X81351983Y-129577369D01*
X81358172Y-129590454D01*
X81363049Y-129604083D01*
X81366566Y-129618124D01*
X81368690Y-129632442D01*
X81369400Y-129646900D01*
X81369400Y-129991900D01*
X81368690Y-130006358D01*
X81366566Y-130020676D01*
X81363049Y-130034717D01*
X81358172Y-130048346D01*
X81351983Y-130061431D01*
X81344542Y-130073847D01*
X81335919Y-130085473D01*
X81326198Y-130096198D01*
X81315473Y-130105919D01*
X81303847Y-130114542D01*
X81291431Y-130121983D01*
X81278346Y-130128172D01*
X81264717Y-130133049D01*
X81250676Y-130136566D01*
X81236358Y-130138690D01*
X81221900Y-130139400D01*
X80926900Y-130139400D01*
X80912442Y-130138690D01*
X80898124Y-130136566D01*
X80884083Y-130133049D01*
X80870454Y-130128172D01*
X80857369Y-130121983D01*
X80844953Y-130114542D01*
X80833327Y-130105919D01*
X80822602Y-130096198D01*
X80812881Y-130085473D01*
X80804258Y-130073847D01*
X80796817Y-130061431D01*
X80790628Y-130048346D01*
X80785751Y-130034717D01*
X80782234Y-130020676D01*
X80780110Y-130006358D01*
X80779400Y-129991900D01*
X80779400Y-129646900D01*
X80780110Y-129632442D01*
X80782234Y-129618124D01*
X80785751Y-129604083D01*
X80790628Y-129590454D01*
X80796817Y-129577369D01*
X80804258Y-129564953D01*
X80812881Y-129553327D01*
X80822602Y-129542602D01*
X80833327Y-129532881D01*
X80844953Y-129524258D01*
X80857369Y-129516817D01*
X80870454Y-129510628D01*
X80884083Y-129505751D01*
X80898124Y-129502234D01*
X80912442Y-129500110D01*
X80926900Y-129499400D01*
X81221900Y-129499400D01*
X81236358Y-129500110D01*
G37*
G36*
X81236358Y-128357110D02*
G01*
X81250676Y-128359234D01*
X81264717Y-128362751D01*
X81278346Y-128367628D01*
X81291431Y-128373817D01*
X81303847Y-128381258D01*
X81315473Y-128389881D01*
X81326198Y-128399602D01*
X81335919Y-128410327D01*
X81344542Y-128421953D01*
X81351983Y-128434369D01*
X81358172Y-128447454D01*
X81363049Y-128461083D01*
X81366566Y-128475124D01*
X81368690Y-128489442D01*
X81369400Y-128503900D01*
X81369400Y-128848900D01*
X81368690Y-128863358D01*
X81366566Y-128877676D01*
X81363049Y-128891717D01*
X81358172Y-128905346D01*
X81351983Y-128918431D01*
X81344542Y-128930847D01*
X81335919Y-128942473D01*
X81326198Y-128953198D01*
X81315473Y-128962919D01*
X81303847Y-128971542D01*
X81291431Y-128978983D01*
X81278346Y-128985172D01*
X81264717Y-128990049D01*
X81250676Y-128993566D01*
X81236358Y-128995690D01*
X81221900Y-128996400D01*
X80926900Y-128996400D01*
X80912442Y-128995690D01*
X80898124Y-128993566D01*
X80884083Y-128990049D01*
X80870454Y-128985172D01*
X80857369Y-128978983D01*
X80844953Y-128971542D01*
X80833327Y-128962919D01*
X80822602Y-128953198D01*
X80812881Y-128942473D01*
X80804258Y-128930847D01*
X80796817Y-128918431D01*
X80790628Y-128905346D01*
X80785751Y-128891717D01*
X80782234Y-128877676D01*
X80780110Y-128863358D01*
X80779400Y-128848900D01*
X80779400Y-128503900D01*
X80780110Y-128489442D01*
X80782234Y-128475124D01*
X80785751Y-128461083D01*
X80790628Y-128447454D01*
X80796817Y-128434369D01*
X80804258Y-128421953D01*
X80812881Y-128410327D01*
X80822602Y-128399602D01*
X80833327Y-128389881D01*
X80844953Y-128381258D01*
X80857369Y-128373817D01*
X80870454Y-128367628D01*
X80884083Y-128362751D01*
X80898124Y-128359234D01*
X80912442Y-128357110D01*
X80926900Y-128356400D01*
X81221900Y-128356400D01*
X81236358Y-128357110D01*
G37*
G36*
X82206358Y-128357110D02*
G01*
X82220676Y-128359234D01*
X82234717Y-128362751D01*
X82248346Y-128367628D01*
X82261431Y-128373817D01*
X82273847Y-128381258D01*
X82285473Y-128389881D01*
X82296198Y-128399602D01*
X82305919Y-128410327D01*
X82314542Y-128421953D01*
X82321983Y-128434369D01*
X82328172Y-128447454D01*
X82333049Y-128461083D01*
X82336566Y-128475124D01*
X82338690Y-128489442D01*
X82339400Y-128503900D01*
X82339400Y-128848900D01*
X82338690Y-128863358D01*
X82336566Y-128877676D01*
X82333049Y-128891717D01*
X82328172Y-128905346D01*
X82321983Y-128918431D01*
X82314542Y-128930847D01*
X82305919Y-128942473D01*
X82296198Y-128953198D01*
X82285473Y-128962919D01*
X82273847Y-128971542D01*
X82261431Y-128978983D01*
X82248346Y-128985172D01*
X82234717Y-128990049D01*
X82220676Y-128993566D01*
X82206358Y-128995690D01*
X82191900Y-128996400D01*
X81896900Y-128996400D01*
X81882442Y-128995690D01*
X81868124Y-128993566D01*
X81854083Y-128990049D01*
X81840454Y-128985172D01*
X81827369Y-128978983D01*
X81814953Y-128971542D01*
X81803327Y-128962919D01*
X81792602Y-128953198D01*
X81782881Y-128942473D01*
X81774258Y-128930847D01*
X81766817Y-128918431D01*
X81760628Y-128905346D01*
X81755751Y-128891717D01*
X81752234Y-128877676D01*
X81750110Y-128863358D01*
X81749400Y-128848900D01*
X81749400Y-128503900D01*
X81750110Y-128489442D01*
X81752234Y-128475124D01*
X81755751Y-128461083D01*
X81760628Y-128447454D01*
X81766817Y-128434369D01*
X81774258Y-128421953D01*
X81782881Y-128410327D01*
X81792602Y-128399602D01*
X81803327Y-128389881D01*
X81814953Y-128381258D01*
X81827369Y-128373817D01*
X81840454Y-128367628D01*
X81854083Y-128362751D01*
X81868124Y-128359234D01*
X81882442Y-128357110D01*
X81896900Y-128356400D01*
X82191900Y-128356400D01*
X82206358Y-128357110D01*
G37*
G36*
X82206358Y-123912110D02*
G01*
X82220676Y-123914234D01*
X82234717Y-123917751D01*
X82248346Y-123922628D01*
X82261431Y-123928817D01*
X82273847Y-123936258D01*
X82285473Y-123944881D01*
X82296198Y-123954602D01*
X82305919Y-123965327D01*
X82314542Y-123976953D01*
X82321983Y-123989369D01*
X82328172Y-124002454D01*
X82333049Y-124016083D01*
X82336566Y-124030124D01*
X82338690Y-124044442D01*
X82339400Y-124058900D01*
X82339400Y-124403900D01*
X82338690Y-124418358D01*
X82336566Y-124432676D01*
X82333049Y-124446717D01*
X82328172Y-124460346D01*
X82321983Y-124473431D01*
X82314542Y-124485847D01*
X82305919Y-124497473D01*
X82296198Y-124508198D01*
X82285473Y-124517919D01*
X82273847Y-124526542D01*
X82261431Y-124533983D01*
X82248346Y-124540172D01*
X82234717Y-124545049D01*
X82220676Y-124548566D01*
X82206358Y-124550690D01*
X82191900Y-124551400D01*
X81896900Y-124551400D01*
X81882442Y-124550690D01*
X81868124Y-124548566D01*
X81854083Y-124545049D01*
X81840454Y-124540172D01*
X81827369Y-124533983D01*
X81814953Y-124526542D01*
X81803327Y-124517919D01*
X81792602Y-124508198D01*
X81782881Y-124497473D01*
X81774258Y-124485847D01*
X81766817Y-124473431D01*
X81760628Y-124460346D01*
X81755751Y-124446717D01*
X81752234Y-124432676D01*
X81750110Y-124418358D01*
X81749400Y-124403900D01*
X81749400Y-124058900D01*
X81750110Y-124044442D01*
X81752234Y-124030124D01*
X81755751Y-124016083D01*
X81760628Y-124002454D01*
X81766817Y-123989369D01*
X81774258Y-123976953D01*
X81782881Y-123965327D01*
X81792602Y-123954602D01*
X81803327Y-123944881D01*
X81814953Y-123936258D01*
X81827369Y-123928817D01*
X81840454Y-123922628D01*
X81854083Y-123917751D01*
X81868124Y-123914234D01*
X81882442Y-123912110D01*
X81896900Y-123911400D01*
X82191900Y-123911400D01*
X82206358Y-123912110D01*
G37*
G36*
X81236358Y-123912110D02*
G01*
X81250676Y-123914234D01*
X81264717Y-123917751D01*
X81278346Y-123922628D01*
X81291431Y-123928817D01*
X81303847Y-123936258D01*
X81315473Y-123944881D01*
X81326198Y-123954602D01*
X81335919Y-123965327D01*
X81344542Y-123976953D01*
X81351983Y-123989369D01*
X81358172Y-124002454D01*
X81363049Y-124016083D01*
X81366566Y-124030124D01*
X81368690Y-124044442D01*
X81369400Y-124058900D01*
X81369400Y-124403900D01*
X81368690Y-124418358D01*
X81366566Y-124432676D01*
X81363049Y-124446717D01*
X81358172Y-124460346D01*
X81351983Y-124473431D01*
X81344542Y-124485847D01*
X81335919Y-124497473D01*
X81326198Y-124508198D01*
X81315473Y-124517919D01*
X81303847Y-124526542D01*
X81291431Y-124533983D01*
X81278346Y-124540172D01*
X81264717Y-124545049D01*
X81250676Y-124548566D01*
X81236358Y-124550690D01*
X81221900Y-124551400D01*
X80926900Y-124551400D01*
X80912442Y-124550690D01*
X80898124Y-124548566D01*
X80884083Y-124545049D01*
X80870454Y-124540172D01*
X80857369Y-124533983D01*
X80844953Y-124526542D01*
X80833327Y-124517919D01*
X80822602Y-124508198D01*
X80812881Y-124497473D01*
X80804258Y-124485847D01*
X80796817Y-124473431D01*
X80790628Y-124460346D01*
X80785751Y-124446717D01*
X80782234Y-124432676D01*
X80780110Y-124418358D01*
X80779400Y-124403900D01*
X80779400Y-124058900D01*
X80780110Y-124044442D01*
X80782234Y-124030124D01*
X80785751Y-124016083D01*
X80790628Y-124002454D01*
X80796817Y-123989369D01*
X80804258Y-123976953D01*
X80812881Y-123965327D01*
X80822602Y-123954602D01*
X80833327Y-123944881D01*
X80844953Y-123936258D01*
X80857369Y-123928817D01*
X80870454Y-123922628D01*
X80884083Y-123917751D01*
X80898124Y-123914234D01*
X80912442Y-123912110D01*
X80926900Y-123911400D01*
X81221900Y-123911400D01*
X81236358Y-123912110D01*
G37*
G36*
X81236358Y-121880110D02*
G01*
X81250676Y-121882234D01*
X81264717Y-121885751D01*
X81278346Y-121890628D01*
X81291431Y-121896817D01*
X81303847Y-121904258D01*
X81315473Y-121912881D01*
X81326198Y-121922602D01*
X81335919Y-121933327D01*
X81344542Y-121944953D01*
X81351983Y-121957369D01*
X81358172Y-121970454D01*
X81363049Y-121984083D01*
X81366566Y-121998124D01*
X81368690Y-122012442D01*
X81369400Y-122026900D01*
X81369400Y-122371900D01*
X81368690Y-122386358D01*
X81366566Y-122400676D01*
X81363049Y-122414717D01*
X81358172Y-122428346D01*
X81351983Y-122441431D01*
X81344542Y-122453847D01*
X81335919Y-122465473D01*
X81326198Y-122476198D01*
X81315473Y-122485919D01*
X81303847Y-122494542D01*
X81291431Y-122501983D01*
X81278346Y-122508172D01*
X81264717Y-122513049D01*
X81250676Y-122516566D01*
X81236358Y-122518690D01*
X81221900Y-122519400D01*
X80926900Y-122519400D01*
X80912442Y-122518690D01*
X80898124Y-122516566D01*
X80884083Y-122513049D01*
X80870454Y-122508172D01*
X80857369Y-122501983D01*
X80844953Y-122494542D01*
X80833327Y-122485919D01*
X80822602Y-122476198D01*
X80812881Y-122465473D01*
X80804258Y-122453847D01*
X80796817Y-122441431D01*
X80790628Y-122428346D01*
X80785751Y-122414717D01*
X80782234Y-122400676D01*
X80780110Y-122386358D01*
X80779400Y-122371900D01*
X80779400Y-122026900D01*
X80780110Y-122012442D01*
X80782234Y-121998124D01*
X80785751Y-121984083D01*
X80790628Y-121970454D01*
X80796817Y-121957369D01*
X80804258Y-121944953D01*
X80812881Y-121933327D01*
X80822602Y-121922602D01*
X80833327Y-121912881D01*
X80844953Y-121904258D01*
X80857369Y-121896817D01*
X80870454Y-121890628D01*
X80884083Y-121885751D01*
X80898124Y-121882234D01*
X80912442Y-121880110D01*
X80926900Y-121879400D01*
X81221900Y-121879400D01*
X81236358Y-121880110D01*
G37*
G36*
X82206358Y-121880110D02*
G01*
X82220676Y-121882234D01*
X82234717Y-121885751D01*
X82248346Y-121890628D01*
X82261431Y-121896817D01*
X82273847Y-121904258D01*
X82285473Y-121912881D01*
X82296198Y-121922602D01*
X82305919Y-121933327D01*
X82314542Y-121944953D01*
X82321983Y-121957369D01*
X82328172Y-121970454D01*
X82333049Y-121984083D01*
X82336566Y-121998124D01*
X82338690Y-122012442D01*
X82339400Y-122026900D01*
X82339400Y-122371900D01*
X82338690Y-122386358D01*
X82336566Y-122400676D01*
X82333049Y-122414717D01*
X82328172Y-122428346D01*
X82321983Y-122441431D01*
X82314542Y-122453847D01*
X82305919Y-122465473D01*
X82296198Y-122476198D01*
X82285473Y-122485919D01*
X82273847Y-122494542D01*
X82261431Y-122501983D01*
X82248346Y-122508172D01*
X82234717Y-122513049D01*
X82220676Y-122516566D01*
X82206358Y-122518690D01*
X82191900Y-122519400D01*
X81896900Y-122519400D01*
X81882442Y-122518690D01*
X81868124Y-122516566D01*
X81854083Y-122513049D01*
X81840454Y-122508172D01*
X81827369Y-122501983D01*
X81814953Y-122494542D01*
X81803327Y-122485919D01*
X81792602Y-122476198D01*
X81782881Y-122465473D01*
X81774258Y-122453847D01*
X81766817Y-122441431D01*
X81760628Y-122428346D01*
X81755751Y-122414717D01*
X81752234Y-122400676D01*
X81750110Y-122386358D01*
X81749400Y-122371900D01*
X81749400Y-122026900D01*
X81750110Y-122012442D01*
X81752234Y-121998124D01*
X81755751Y-121984083D01*
X81760628Y-121970454D01*
X81766817Y-121957369D01*
X81774258Y-121944953D01*
X81782881Y-121933327D01*
X81792602Y-121922602D01*
X81803327Y-121912881D01*
X81814953Y-121904258D01*
X81827369Y-121896817D01*
X81840454Y-121890628D01*
X81854083Y-121885751D01*
X81868124Y-121882234D01*
X81882442Y-121880110D01*
X81896900Y-121879400D01*
X82191900Y-121879400D01*
X82206358Y-121880110D01*
G37*
G36*
X82206358Y-127341110D02*
G01*
X82220676Y-127343234D01*
X82234717Y-127346751D01*
X82248346Y-127351628D01*
X82261431Y-127357817D01*
X82273847Y-127365258D01*
X82285473Y-127373881D01*
X82296198Y-127383602D01*
X82305919Y-127394327D01*
X82314542Y-127405953D01*
X82321983Y-127418369D01*
X82328172Y-127431454D01*
X82333049Y-127445083D01*
X82336566Y-127459124D01*
X82338690Y-127473442D01*
X82339400Y-127487900D01*
X82339400Y-127832900D01*
X82338690Y-127847358D01*
X82336566Y-127861676D01*
X82333049Y-127875717D01*
X82328172Y-127889346D01*
X82321983Y-127902431D01*
X82314542Y-127914847D01*
X82305919Y-127926473D01*
X82296198Y-127937198D01*
X82285473Y-127946919D01*
X82273847Y-127955542D01*
X82261431Y-127962983D01*
X82248346Y-127969172D01*
X82234717Y-127974049D01*
X82220676Y-127977566D01*
X82206358Y-127979690D01*
X82191900Y-127980400D01*
X81896900Y-127980400D01*
X81882442Y-127979690D01*
X81868124Y-127977566D01*
X81854083Y-127974049D01*
X81840454Y-127969172D01*
X81827369Y-127962983D01*
X81814953Y-127955542D01*
X81803327Y-127946919D01*
X81792602Y-127937198D01*
X81782881Y-127926473D01*
X81774258Y-127914847D01*
X81766817Y-127902431D01*
X81760628Y-127889346D01*
X81755751Y-127875717D01*
X81752234Y-127861676D01*
X81750110Y-127847358D01*
X81749400Y-127832900D01*
X81749400Y-127487900D01*
X81750110Y-127473442D01*
X81752234Y-127459124D01*
X81755751Y-127445083D01*
X81760628Y-127431454D01*
X81766817Y-127418369D01*
X81774258Y-127405953D01*
X81782881Y-127394327D01*
X81792602Y-127383602D01*
X81803327Y-127373881D01*
X81814953Y-127365258D01*
X81827369Y-127357817D01*
X81840454Y-127351628D01*
X81854083Y-127346751D01*
X81868124Y-127343234D01*
X81882442Y-127341110D01*
X81896900Y-127340400D01*
X82191900Y-127340400D01*
X82206358Y-127341110D01*
G37*
G36*
X81236358Y-127341110D02*
G01*
X81250676Y-127343234D01*
X81264717Y-127346751D01*
X81278346Y-127351628D01*
X81291431Y-127357817D01*
X81303847Y-127365258D01*
X81315473Y-127373881D01*
X81326198Y-127383602D01*
X81335919Y-127394327D01*
X81344542Y-127405953D01*
X81351983Y-127418369D01*
X81358172Y-127431454D01*
X81363049Y-127445083D01*
X81366566Y-127459124D01*
X81368690Y-127473442D01*
X81369400Y-127487900D01*
X81369400Y-127832900D01*
X81368690Y-127847358D01*
X81366566Y-127861676D01*
X81363049Y-127875717D01*
X81358172Y-127889346D01*
X81351983Y-127902431D01*
X81344542Y-127914847D01*
X81335919Y-127926473D01*
X81326198Y-127937198D01*
X81315473Y-127946919D01*
X81303847Y-127955542D01*
X81291431Y-127962983D01*
X81278346Y-127969172D01*
X81264717Y-127974049D01*
X81250676Y-127977566D01*
X81236358Y-127979690D01*
X81221900Y-127980400D01*
X80926900Y-127980400D01*
X80912442Y-127979690D01*
X80898124Y-127977566D01*
X80884083Y-127974049D01*
X80870454Y-127969172D01*
X80857369Y-127962983D01*
X80844953Y-127955542D01*
X80833327Y-127946919D01*
X80822602Y-127937198D01*
X80812881Y-127926473D01*
X80804258Y-127914847D01*
X80796817Y-127902431D01*
X80790628Y-127889346D01*
X80785751Y-127875717D01*
X80782234Y-127861676D01*
X80780110Y-127847358D01*
X80779400Y-127832900D01*
X80779400Y-127487900D01*
X80780110Y-127473442D01*
X80782234Y-127459124D01*
X80785751Y-127445083D01*
X80790628Y-127431454D01*
X80796817Y-127418369D01*
X80804258Y-127405953D01*
X80812881Y-127394327D01*
X80822602Y-127383602D01*
X80833327Y-127373881D01*
X80844953Y-127365258D01*
X80857369Y-127357817D01*
X80870454Y-127351628D01*
X80884083Y-127346751D01*
X80898124Y-127343234D01*
X80912442Y-127341110D01*
X80926900Y-127340400D01*
X81221900Y-127340400D01*
X81236358Y-127341110D01*
G37*
M02*
