M48
; DRILL file {KiCad (5.1.5)-3} date 2020-09-05 17:48:56
; FORMAT={-:-/ absolute / metric / decimal}
; #@! TF.CreationDate,2020-09-05T17:48:56+08:00
; #@! TF.GenerationSoftware,Kicad,Pcbnew,(5.1.5)-3
; #@! TF.FileFunction,Plated,1,4,PTH
FMAT,2
METRIC
T1C0.254
T2C0.305
T3C0.356
T4C0.600
T5C0.800
T6C0.900
T7C1.000
T8C1.500
%
G90
G05
T1
X71.145Y-112.497
X71.425Y-87.071
X71.603Y-115.113
X72.238Y-86.208
X72.339Y-116.383
X72.517Y-112.573
X72.542Y-87.274
X72.974Y-111.354
X73.076Y-86.335
X73.228Y-113.513
X73.381Y-112.751
X73.406Y-116.535
X73.482Y-85.192
X73.939Y-86.335
X75.082Y-114.402
X75.616Y-82.779
X75.667Y-113.055
X75.895Y-95.123
X75.895Y-97.892
X75.997Y-89.408
X75.997Y-90.348
X76.149Y-76.987
X76.149Y-77.648
X76.149Y-78.308
X76.149Y-78.969
X76.149Y-79.629
X76.149Y-80.289
X76.149Y-80.95
X76.175Y-86.233
X76.454Y-116.18
X76.556Y-109.576
X76.632Y-112.497
X77.013Y-101.905
X77.013Y-102.362
X77.775Y-87.173
X78.054Y-104.038
X78.13Y-63.119
X78.207Y-108.153
X78.232Y-110.185
X79.223Y-111.912
X79.466Y-116.423
X79.934Y-87.122
X80.229Y-80.248
X80.391Y-83.033
X80.391Y-115.087
X80.569Y-97.688
X80.696Y-78.308
X81.991Y-94.793
X82.042Y-108.712
X82.093Y-87.147
X82.22Y-115.9
X82.423Y-107.953
X82.829Y-94.132
X82.982Y-134.391
X83.033Y-116.408
X83.261Y-78.943
X83.261Y-81.943
X83.292Y-125.419
X83.49Y-82.982
X83.515Y-94.996
X83.845Y-108.839
X83.845Y-109.626
X83.871Y-85.674
X83.896Y-94.005
X83.922Y-104.8
X84.15Y-108.153
X85.598Y-134.417
X85.649Y-77.978
X85.7Y-82.347
X85.725Y-75.489
X86.919Y-98.501
X87.63Y-103.556
X87.63Y-110.566
X87.655Y-108.153
X87.681Y-113.081
X87.859Y-98.4
X88.193Y-66.355
X88.659Y-65.887
X89.23Y-80.797
X89.51Y-93.32
X90.094Y-113.614
X90.145Y-126.492
X90.221Y-80.772
X90.227Y-65.886
X90.693Y-106.031
X90.694Y-66.353
X90.771Y-105.376
X91.084Y-92.253
X91.084Y-121.463
X91.465Y-93.548
X91.618Y-116.459
X91.768Y-104.881
X91.846Y-92.481
X92.278Y-116.459
X92.405Y-106.197
X92.456Y-97.892
X92.456Y-100.457
X92.583Y-93.98
X92.634Y-68.707
X92.735Y-121.488
X93.421Y-113.132
X93.624Y-72.365
X93.624Y-76.886
X93.65Y-116.484
X93.726Y-113.614
X93.802Y-93.98
X93.904Y-96.749
X94.209Y-104.775
X94.259Y-71.73
X94.437Y-92.634
X94.539Y-121.514
X94.691Y-83.007
X94.767Y-93.294
X94.971Y-105.969
X95.021Y-76.378
X95.148Y-105.156
X95.326Y-98.476
X95.453Y-96.85
X95.479Y-101.016
X95.504Y-101.981
X96.012Y-105.181
X96.164Y-120.955
X96.317Y-94.158
X96.393Y-97.434
X96.698Y-91.465
X96.952Y-99.212
X97.358Y-85.954
X97.358Y-87.655
X97.409Y-93.955
X97.46Y-107.417
X97.688Y-130.708
X97.765Y-72.517
X98.222Y-89.967
X98.425Y-77.114
X98.476Y-72.542
X98.577Y-102.972
X98.857Y-108.204
X98.882Y-113.081
X98.908Y-110.617
X98.958Y-73.025
X99.441Y-97.155
X99.517Y-126.543
X99.67Y-129.489
X99.873Y-84.709
X100.037Y-98.724
X100.076Y-97.663
X100.635Y-102.616
X101.141Y-100.498
X101.219Y-102.083
X101.448Y-121.906
X101.575Y-130.708
X101.956Y-100.508
X102.676Y-100.491
X103.607Y-98.704
X103.747Y-99.35
X104.318Y-122.606
X105.329Y-101.6
X105.867Y-95.098
X105.892Y-100.696
X106.147Y-121.564
X106.172Y-123.571
X106.375Y-94.615
X106.426Y-100.203
X106.705Y-109.474
X107.188Y-99.949
X107.188Y-100.838
X107.188Y-124.714
X107.645Y-110.49
X107.848Y-122.606
T2
X75.108Y-115.9
X80.899Y-88.494
X82.169Y-114.656
X83.287Y-121.031
X83.287Y-122.123
X83.287Y-123.215
X83.287Y-124.308
X83.287Y-127.61
X83.287Y-128.702
X83.287Y-129.819
X84.023Y-68.097
X86.03Y-101.041
X86.131Y-100.228
X87.427Y-99.974
X87.478Y-96.672
X88.57Y-95.072
X89.408Y-94.488
X92.735Y-70.383
X94.183Y-68.504
T3
X75.87Y-94.132
X76.835Y-115.087
X77.165Y-100.863
X77.191Y-97.638
X78.105Y-101.143
X80.34Y-107.518
X80.416Y-106.451
X81.407Y-102.438
X81.788Y-88.646
X82.194Y-89.459
X82.448Y-102.133
X83.287Y-126.517
X83.693Y-98.882
X83.845Y-70.917
X83.972Y-116.103
X85.979Y-76.479
X87.605Y-82.728
X88.341Y-83.769
X88.392Y-99.212
X90.957Y-77.14
X91.034Y-97.942
X91.034Y-100.533
X92.405Y-74.727
X92.405Y-75.489
X92.405Y-76.403
X93.04Y-82.22
X93.675Y-82.245
X100.457Y-80.061
X100.533Y-81.686
X101.016Y-75.768
X101.117Y-78.664
X101.651Y-76.987
X103.759Y-95.123
X105.689Y-112.547
T5
X103.276Y-108.61
X103.276Y-110.61
X103.276Y-112.61
X103.276Y-114.61
X103.276Y-116.61
X106.832Y-116.865
X106.832Y-118.865
X77.051Y-70.764
X77.051Y-72.764
X79.051Y-70.764
X79.051Y-72.764
X81.051Y-70.764
X81.051Y-72.764
X102.616Y-94.234
X104.616Y-94.234
X90.83Y-110.617
X95.71Y-110.617
T6
X103.911Y-72.987
X103.911Y-74.987
X103.911Y-76.987
T7
X79.934Y-63.094
X79.934Y-65.634
X74.234Y-122.619
X74.234Y-130.619
T8
X103.911Y-70.887
X103.911Y-79.087
T4
G00X85.113Y-62.282
M15
G01X85.113Y-63.082
M16
G05
G00X85.113Y-66.302
M15
G01X85.113Y-67.402
M16
G05
G00X93.753Y-62.282
M15
G01X93.753Y-63.082
M16
G05
G00X93.753Y-66.302
M15
G01X93.753Y-67.402
M16
G05
T0
M30
